<?xml version="1.0" encoding="UTF-8" standalone="no"?>
<!-- Created with Inkscape (http://www.inkscape.org/) -->

<svg
   width="152.13852mm"
   height="60.255753mm"
   viewBox="0 0 152.13852 60.255753"
   version="1.1"
   id="svg1"
   xml:space="preserve"
   inkscape:version="1.4.3 (1:1.4.3+202512261034+0d15f75042)"
   sodipodi:docname="aap-logo.svg"
   xmlns:inkscape="http://www.inkscape.org/namespaces/inkscape"
   xmlns:sodipodi="http://sodipodi.sourceforge.net/DTD/sodipodi-0.dtd"
   xmlns="http://www.w3.org/2000/svg"
   xmlns:svg="http://www.w3.org/2000/svg"><sodipodi:namedview
     id="namedview1"
     pagecolor="#ffffff"
     bordercolor="#000000"
     borderopacity="0.25"
     inkscape:showpageshadow="2"
     inkscape:pageopacity="0.0"
     inkscape:pagecheckerboard="0"
     inkscape:deskcolor="#d1d1d1"
     inkscape:document-units="mm"
     showguides="true"
     inkscape:zoom="0.28598739"
     inkscape:cx="585.69015"
     inkscape:cy="251.75935"
     inkscape:window-width="1314"
     inkscape:window-height="699"
     inkscape:window-x="0"
     inkscape:window-y="32"
     inkscape:window-maximized="1"
     inkscape:current-layer="layer1"><sodipodi:guide
       position="53.807739,238.00714"
       orientation="0,-1"
       id="guide1"
       inkscape:locked="false" /><sodipodi:guide
       position="83.899269,296.83671"
       orientation="0,-1"
       id="guide4"
       inkscape:locked="false" /><sodipodi:guide
       position="122.13772,285.0886"
       orientation="0,-1"
       id="guide10"
       inkscape:locked="false" /><sodipodi:guide
       position="122.42684,269.61246"
       orientation="0,-1"
       id="guide11"
       inkscape:locked="false" /></sodipodi:namedview><defs
     id="defs1" /><g
     inkscape:label="Layer 1"
     inkscape:groupmode="layer"
     id="layer1"
     transform="translate(-9.8128377,-63.541858)"><g
       id="g11"><path
         id="rect4"
         style="opacity:1;fill:#b8c5e6;fill-opacity:1;stroke-width:1.5;stroke-linecap:round;stroke-linejoin:round;paint-order:markers stroke fill"
         d="m 110.32505,63.541858 v 0.163297 11.748121 47.081364 h 17.34674 v -19.69389 h 10.07949 0.13333 c 10.8691,-0.0332 24.06674,-4.134341 24.06674,-19.648412 0,-13.26472 -13.30586,-19.65048 -24.20007,-19.65048 z m 17.34674,11.911418 h 10.07949 v 0.123506 c 3.41462,4.65e-4 6.14948,3.409457 6.1495,7.614523 -2e-5,4.205066 -2.57136,7.614034 -6.1495,7.614522 v 0.123506 h -10.07949 z" /><path
         id="path3"
         style="opacity:1;fill:#97a9db;fill-opacity:1;stroke-width:1.5;stroke-linecap:round;stroke-linejoin:round;paint-order:markers stroke fill"
         d="m 77.357552,63.541858 -22.569165,59.039812 16.026929,-0.0858 3.628202,-10.13788 h 22.113379 l 3.533633,9.93531 -29.173928,0.20206 44.874268,-0.24082 -22.078761,-58.549395 z m 8.177279,17.826302 6.915857,19.44532 H 78.575566 Z" /><path
         id="path1"
         style="opacity:1;fill:#3f5592;fill-opacity:1;stroke-width:1.5;stroke-linecap:round;stroke-linejoin:round;paint-order:markers stroke fill"
         d="m 32.382003,63.783187 -22.5691653,59.039803 16.0269283,-0.0858 6.629053,-18.52187 8.090462,-22.605851 7.70444,21.661731 -4.310848,2.01176 -2.698544,-5.27461 -8.78551,4.20697 -6.527767,18.52135 8.46305,-4.43228 2.225187,4.35839 -10.688237,0.0739 10.696505,-0.0574 0.571025,1.11828 2.460314,-1.13481 31.14642,-0.16692 -4.560445,-12.09383 4.805908,-2.21641 2.855639,5.64514 6.700367,-18.72134 -18.268653,-6.203239 3.070614,6.359302 -4.1429,1.933215 L 48.73656,63.946484 Z m 20.595642,52.742003 2.137337,6.00945 -15.39906,0.10645 z" /></g></g></svg>
