<?xml version="1.0" encoding="UTF-8" standalone="no"?>
<!-- Created with Inkscape (http://www.inkscape.org/) -->
<svg width="138.28604mm" height="138.29175mm" viewBox="0 0 489.98991 490.01013" id="svg5037" version="1.1" inkscape:version="1.2.2 (732a01da63, 2022-12-09)" sodipodi:docname="Commission_on_Higher_Education_(CHEd).svg" xmlns:inkscape="http://www.inkscape.org/namespaces/inkscape" xmlns:sodipodi="http://sodipodi.sourceforge.net/DTD/sodipodi-0.dtd" xmlns="http://www.w3.org/2000/svg" xmlns:svg="http://www.w3.org/2000/svg" xmlns:rdf="http://www.w3.org/1999/02/22-rdf-syntax-ns#" xmlns:cc="http://creativecommons.org/ns#" xmlns:dc="http://purl.org/dc/elements/1.1/">
  <title id="title6144">Commission on Higher Education (CHEd) , Philippines</title>
  <defs id="defs5039"/>
  <sodipodi:namedview id="base" pagecolor="#ffffff" bordercolor="#666666" borderopacity="1.0" inkscape:pageopacity="0.0" inkscape:pageshadow="2" inkscape:zoom="1.0367345" inkscape:cx="310.10833" inkscape:cy="198.70082" inkscape:document-units="px" inkscape:current-layer="layer1" showgrid="false" inkscape:snap-object-midpoints="true" inkscape:snap-bbox="true" fit-margin-top="0" fit-margin-left="0" fit-margin-right="0" fit-margin-bottom="0" inkscape:window-width="1920" inkscape:window-height="1009" inkscape:window-x="1072" inkscape:window-y="-8" inkscape:window-maximized="1" inkscape:showpageshadow="2" inkscape:pagecheckerboard="0" inkscape:deskcolor="#d1d1d1"/>
  <metadata id="metadata5042">
    <rdf:RDF>
      <cc:Work rdf:about="">
        <dc:format>image/svg+xml</dc:format>
        <dc:type rdf:resource="http://purl.org/dc/dcmitype/StillImage"/>
        <dc:title>Commission on Higher Education (CHEd) , Philippines</dc:title>
      </cc:Work>
    </rdf:RDF>
  </metadata>
  <g inkscape:label="Layer 1" inkscape:groupmode="layer" id="layer1" transform="translate(-29.286386,-382.47765)">
    <g id="g952">
      <ellipse ry="243.6051" rx="243.59499" cy="627.48273" cx="274.28134" id="path5723-7-7" style="color:#000000;clip-rule:nonzero;display:inline;overflow:visible;visibility:visible;isolation:auto;mix-blend-mode:normal;color-interpolation:sRGB;color-interpolation-filters:linearRGB;solid-color:#000000;solid-opacity:1;fill:#ffffff;fill-opacity:1;fill-rule:nonzero;stroke:#000000;stroke-width:2.79994;stroke-linecap:round;stroke-linejoin:round;stroke-miterlimit:4;stroke-dasharray:none;stroke-dashoffset:0;stroke-opacity:1;color-rendering:auto;image-rendering:auto;shape-rendering:auto;text-rendering:auto;enable-background:accumulate"/>
      <g transform="matrix(0.70503598,0,0,0.69998533,7.9037082,261.45146)" id="text5812" style="font-style:normal;font-variant:normal;font-weight:bold;font-stretch:normal;font-size:25px;line-height:125%;font-family:'Swis721 BT';-inkscape-font-specification:'Swis721 BT, Bold';text-align:start;letter-spacing:0px;word-spacing:0px;writing-mode:lr-tb;text-anchor:start;fill:#000000;fill-opacity:1;stroke:none;stroke-width:1px;stroke-linecap:butt;stroke-linejoin:miter;stroke-opacity:1">
        <path id="path5820" style="letter-spacing:1px" d="m 246.20712,820.6901 q -1.12568,2.74441 -0.53132,4.76939 0.599,2.01369 2.79001,2.91238 2.21361,0.90796 4.06539,-0.10049 1.85641,-1.01974 2.98209,-3.76416 1.12568,-2.74442 0.51539,-4.76274 -0.60565,-2.02961 -2.81926,-2.93756 -2.19101,-0.8987 -4.0315,0.11438 -1.84049,1.01308 -2.9708,3.7688 z m -3.48982,-1.43142 q 1.65378,-4.03193 4.81298,-5.49366 3.17512,-1.4684 6.9021,0.0603 3.72699,1.5287 4.95649,4.80374 1.2408,3.27968 -0.40835,7.30031 -1.64914,4.02062 -4.83556,5.48439 -3.17512,1.46839 -6.90211,-0.0603 -3.72699,-1.5287 -4.95649,-4.80375 -1.2182,-3.27041 0.43094,-7.29103 z" inkscape:connector-curvature="0"/>
        <path id="path5822" style="letter-spacing:1px" d="m 259.28446,835.54183 5.90312,-16.98435 11.8533,4.11976 -1.02594,2.9518 -8.40569,-2.92151 -1.33852,3.85117 7.36795,2.56082 -1.02593,2.9518 -7.36796,-2.56083 -2.51273,7.22959 z" inkscape:connector-curvature="0"/>
        <path id="path5824" style="letter-spacing:1px" d="m 285.76217,843.97124 3.83448,-14.2641 -5.15158,-1.38485 0.83345,-3.10038 13.83972,3.7204 -0.83345,3.10038 -5.11622,-1.37534 -3.83448,14.2641 z" inkscape:connector-curvature="0"/>
        <path id="path5826" style="letter-spacing:1px" d="m 297.48887,847.04578 3.73995,-17.58771 3.64172,0.77439 -1.39391,6.5551 7.25955,1.54371 1.39392,-6.55509 3.64172,0.77439 -3.73995,17.58771 -3.64172,-0.77439 1.65797,-7.79686 -7.25956,-1.54372 -1.65797,7.79686 z" inkscape:connector-curvature="0"/>
        <path id="path5828" style="letter-spacing:1px" d="m 316.69758,850.96475 2.76251,-17.76748 12.89439,2.00485 -0.48011,3.0879 -9.28782,-1.44409 -0.58889,3.7875 8.49173,1.32031 -0.47262,3.03965 -8.49172,-1.32031 -0.71079,4.57154 9.72206,1.5116 -0.51012,3.28089 z" inkscape:connector-curvature="0"/>
        <path id="path5830" style="letter-spacing:1px" d="m 346.36139,845.054 3.56592,0.27701 q 1.44828,0.1125 2.15274,-0.44497 0.70542,-0.56964 0.8113,-1.93272 0.0993,-1.27789 -0.49471,-1.98519 -0.59397,-0.70731 -1.87186,-0.80657 l -3.76065,-0.29213 z m -0.27676,3.2476 -0.49539,6.37727 -3.68762,-0.28645 1.39257,-17.92695 7.97159,0.61923 q 2.82353,0.21933 4.15741,1.80445 1.347,1.57389 1.12672,4.40959 -0.21555,2.77484 -1.75671,4.17336 -1.54022,1.38634 -4.18119,1.18119 z" inkscape:connector-curvature="0"/>
        <path id="path5832" style="letter-spacing:1px" d="m 359.55773,855.65864 0.39104,-17.97671 3.72226,0.081 -0.14574,6.70008 7.42012,0.1614 0.14574,-6.70007 3.72226,0.081 -0.39103,17.9767 -3.72227,-0.081 0.17335,-7.9693 -7.42012,-0.16141 -0.17335,7.96931 z" inkscape:connector-curvature="0"/>
        <path id="path5834" style="letter-spacing:1px" d="m 379.2809,855.86743 -0.36849,-17.97718 3.69795,-0.0758 0.36849,17.97718 z" inkscape:connector-curvature="0"/>
        <path id="path5836" style="letter-spacing:1px" d="m 387.82348,855.66897 -1.01706,-17.95217 3.6928,-0.20921 0.82926,14.63718 8.7628,-0.49645 0.18781,3.315 z" inkscape:connector-curvature="0"/>
        <path id="path5838" style="letter-spacing:1px" d="m 403.41253,854.63448 -1.66417,-17.90378 3.68286,-0.34232 1.66417,17.90378 z" inkscape:connector-curvature="0"/>
        <path id="path5840" style="letter-spacing:1px" d="m 414.34044,843.77776 3.54552,-0.47094 q 1.43999,-0.19126 2.01306,-0.8831 0.57147,-0.70393 0.39146,-2.05921 -0.16877,-1.27058 -0.8969,-1.83884 -0.72814,-0.56825 -1.99871,-0.39948 l -3.73914,0.49665 z m 0.40494,3.23411 0.84222,6.3408 -3.66653,0.48701 -2.36753,-17.82441 7.92599,-1.05278 q 2.80738,-0.37289 4.44185,0.90004 1.64496,1.25921 2.01946,4.07869 0.36646,2.75897 -0.85002,4.44752 -1.21809,1.67644 -3.84396,2.02522 z" inkscape:connector-curvature="0"/>
        <path id="path5842" style="letter-spacing:1px" d="m 431.33495,841.21002 3.51569,-0.65761 q 1.42787,-0.26708 1.96359,-0.98823 0.53348,-0.73314 0.2821,-2.07702 -0.23566,-1.25989 -0.9928,-1.78888 -0.75714,-0.52899 -2.01703,-0.29332 l -3.70767,0.69352 z m 0.57526,3.2082 1.17607,6.28744 -3.63567,0.68006 -3.30602,-17.67442 7.8593,-1.47009 q 2.78375,-0.5207 4.4832,0.66408 1.7092,1.17055 2.23214,3.96629 0.51173,2.73576 -0.61384,4.48622 -1.12781,1.73847 -3.73158,2.2255 z" inkscape:connector-curvature="0"/>
        <path id="path5844" style="letter-spacing:1px" d="m 446.93188,847.92612 -3.99935,-17.53055 3.60608,-0.82267 3.99935,17.53054 z" inkscape:connector-curvature="0"/>
        <path id="path5846" style="letter-spacing:1px" d="m 455.26761,846.04027 -4.73493,-17.34633 3.73305,-1.01899 10.29522,9.99524 -3.25306,-11.91751 3.52109,-0.96113 4.73493,17.34634 -3.68595,1.00613 -10.34232,-9.98239 3.25305,11.91751 z" inkscape:connector-curvature="0"/>
        <path id="path5848" style="letter-spacing:1px" d="m 474.09002,840.73578 -5.68347,-17.0591 12.38029,-4.12467 0.98776,2.96479 -8.91752,2.971 1.21155,3.63649 8.15316,-2.71634 0.97233,2.91846 -8.15316,2.71634 1.46235,4.38928 9.33444,-3.1099 1.04949,3.15008 z" inkscape:connector-curvature="0"/>
        <path id="path5850" style="letter-spacing:1px" d="m 487.67289,830.28531 3.39762,-1.33342 q 0.73278,1.29914 1.92769,1.60389 1.19044,0.29338 2.95175,-0.39786 1.49995,-0.58866 2.05168,-1.42153 0.55174,-0.83287 0.14146,-1.87829 -0.59759,-1.52267 -5.36489,-0.80569 l -0.11119,0.0174 q -0.12255,0.0219 -0.38347,0.0587 -2.54152,0.40733 -3.79122,0.16343 -1.10932,-0.22031 -1.94981,-0.99198 -0.84496,-0.78303 -1.35782,-2.08981 -0.95881,-2.4431 0.19183,-4.38961 1.14618,-1.95788 4.28244,-3.18873 2.93172,-1.15057 5.12346,-0.4109 2.20311,0.73522 3.28405,3.22219 l -3.30671,1.29774 q -0.56808,-1.18019 -1.6587,-1.48653 -1.09062,-0.30633 -2.64739,0.30464 -1.35222,0.53069 -1.88124,1.35464 -0.5221,0.80812 -0.13858,1.78536 0.52178,1.3295 3.63261,0.86921 0.84406,-0.12144 1.316,-0.18863 2.01232,-0.25211 2.87623,-0.28954 0.87527,-0.0419 1.56831,0.0533 1.24567,0.1668 2.12716,0.90927 0.87704,0.7311 1.38989,2.03788 1.02571,2.61354 -0.16923,4.74792 -1.19939,2.123 -4.40383,3.38061 -3.15899,1.23977 -5.52967,0.47853 -2.37068,-0.76125 -3.56843,-3.41219 z" inkscape:connector-curvature="0"/>
      </g>
      <g transform="matrix(0.70503598,0,0,0.69998533,7.9037082,261.45146)" id="text5805" style="font-style:normal;font-variant:normal;font-weight:bold;font-stretch:normal;font-size:25px;line-height:125%;font-family:'Swis721 BT';-inkscape-font-specification:'Swis721 BT, Bold';text-align:start;letter-spacing:1px;word-spacing:0px;writing-mode:lr-tb;text-anchor:start;fill:#000000;fill-opacity:1;stroke:none;stroke-width:1px;stroke-linecap:butt;stroke-linejoin:miter;stroke-opacity:1">
        <path id="path5853" style="letter-spacing:1px" d="m 213.43149,775.31745 q -1.54665,2.53118 -1.28093,4.62479 0.27209,2.0832 2.29286,3.31797 2.04161,1.2475 4.02988,0.54547 1.99463,-0.71244 3.54128,-3.24362 1.54665,-2.53118 1.26415,-4.62073 -0.27613,-2.09998 -2.31774,-3.34748 -2.02078,-1.23478 -3.99863,-0.52638 -1.97785,0.70839 -3.53087,3.24998 z m -3.21865,-1.96672 q 2.27223,-3.71865 5.62326,-4.66089 3.3678,-0.9463 6.8052,1.15409 3.4374,2.10038 4.13198,5.52896 0.705,3.43494 -1.56087,7.14317 -2.26588,3.70823 -5.64409,4.64816 -3.36781,0.9463 -6.80521,-1.15409 -3.4374,-2.10039 -4.13198,-5.52896 -0.68417,-3.42222 1.58171,-7.13044 z" inkscape:connector-curvature="0"/>
        <path id="path5855" style="letter-spacing:1px" d="m 223.99573,792.04246 8.45438,-15.86942 11.07519,5.90028 -1.46933,2.75802 -7.8539,-4.18414 -1.91702,3.59836 6.88429,3.66758 -1.46933,2.75802 -6.88429,-3.66758 -3.5987,6.75501 z" inkscape:connector-curvature="0"/>
        <path id="path5857" style="letter-spacing:1px" d="m 238.12238,799.43114 7.62581,-16.28379 11.36439,5.32201 -1.32533,2.83004 -8.05899,-3.77407 -1.72913,3.69232 7.06404,3.30814 -1.32532,2.83004 -7.06405,-3.30814 -3.24602,6.93139 z" inkscape:connector-curvature="0"/>
        <path id="path5859" style="letter-spacing:1px" d="m 252.74074,806.08807 6.97093,-16.57471 3.40946,1.43394 -6.97093,16.57471 z" inkscape:connector-curvature="0"/>
        <path id="path5861" style="letter-spacing:1px" d="m 277.43198,809.01967 q -1.25194,2.80421 -3.90326,3.75441 -2.63985,0.95441 -5.89375,-0.24175 -3.74657,-1.37727 -4.9726,-4.48113 -1.21458,-3.09966 0.33538,-7.31598 1.58365,-4.30798 4.54564,-5.82027 2.96198,-1.51229 6.9377,-0.0508 3.23099,1.18774 4.51731,3.45539 1.30199,2.26041 0.42814,5.20361 l -3.42576,-1.25934 q 0.30878,-1.5122 -0.36841,-2.60652 -0.67298,-1.10577 -2.28848,-1.69964 -2.29148,-0.84236 -4.02637,0.19761 -1.7349,1.03997 -2.77944,3.88141 -1.01084,2.74977 -0.38248,4.68451 0.63982,1.93895 2.82819,2.74341 1.58112,0.58124 2.8842,0.14986 1.30729,-0.44283 2.16114,-1.8457 l 3.40285,1.25091 z" inkscape:connector-curvature="0"/>
        <path id="path5863" style="letter-spacing:1px" d="m 279.07279,816.01677 5.18303,-17.21775 12.49544,3.76148 -0.90078,2.99236 -9.00046,-2.70939 -1.10487,3.67031 8.22899,2.47716 -0.88671,2.94561 -8.22899,-2.47716 -1.33358,4.43009 9.42126,2.83607 -0.95709,3.17938 z" inkscape:connector-curvature="0"/>
        <path id="path5865" style="letter-spacing:1px" d="m 308.31772,814.70028 q -0.60212,2.90456 0.35428,4.78581 0.95888,1.86929 3.27774,2.35 2.34277,0.48566 3.97767,-0.84594 1.63738,-1.34356 2.2395,-4.24811 0.60212,-2.90456 -0.36872,-4.77633 -0.96835,-1.88373 -3.31112,-2.36939 -2.31886,-0.48071 -3.94181,0.85337 -1.62295,1.33408 -2.22754,4.25059 z m -3.69345,-0.76566 q 0.8846,-4.26718 3.72133,-6.28463 2.85117,-2.02693 6.79562,-1.20924 3.94446,0.81769 5.75493,3.81099 1.82242,2.99577 0.9403,7.251 -0.88212,4.25523 -3.74524,6.27968 -2.85116,2.02693 -6.79562,1.20923 -3.94446,-0.81769 -5.75492,-3.81098 -1.79852,-2.99081 -0.9164,-7.24605 z" inkscape:connector-curvature="0"/>
        <path id="path5867" style="letter-spacing:1px" d="m 323.90513,826.87902 2.59944,-17.79207 12.41701,1.81414 -0.45177,3.09217 -8.80545,-1.28649 -0.58942,4.03432 7.71836,1.12766 -0.45177,3.09218 -7.71836,-1.12767 -1.10648,7.57341 z" inkscape:connector-curvature="0"/>
        <path id="path5869" style="letter-spacing:1px" d="m 351.50232,830.11364 0.99593,-14.7369 -5.32234,-0.35968 0.21647,-3.20315 14.29844,0.9663 -0.21647,3.20314 -5.28579,-0.35721 -0.99593,14.73689 z" inkscape:connector-curvature="0"/>
        <path id="path5871" style="letter-spacing:1px" d="m 363.60333,830.85007 0.18542,-17.98 3.72295,0.0384 -0.0691,6.70131 7.42148,0.0765 0.0691,-6.7013 3.72295,0.0384 -0.18543,17.98001 -3.72295,-0.0384 0.0822,-7.97077 -7.42148,-0.0765 -0.0822,7.97077 -3.72294,-0.0384 z" inkscape:connector-curvature="0"/>
        <path id="path5873" style="letter-spacing:1px" d="m 383.20787,830.87793 -0.88368,-17.95923 13.03355,-0.64131 0.15358,3.12122 -9.38806,0.46194 0.18838,3.82837 8.58336,-0.42234 0.15118,3.07246 -8.58336,0.42234 0.22737,4.62087 9.82697,-0.48353 0.16318,3.3163 z" inkscape:connector-curvature="0"/>
        <path id="path5875" style="letter-spacing:1px" d="m 411.00444,819.04548 3.54567,-0.46985 q 1.44005,-0.19083 2.01333,-0.88249 0.57169,-0.70375 0.39209,-2.05909 -0.16838,-1.27063 -0.89634,-1.83911 -0.72796,-0.56848 -1.99859,-0.4001 l -3.73928,0.49551 z m 0.40396,3.23424 0.84028,6.34105 -3.66668,0.48589 -2.36208,-17.82514 7.92631,-1.05035 q 2.80749,-0.37203 4.44157,0.90139 1.64458,1.25972 2.01822,4.07931 0.36562,2.75909 -0.85138,4.44726 -1.21861,1.67607 -3.84458,2.02405 z" inkscape:connector-curvature="0"/>
        <path id="path5877" style="letter-spacing:1px" d="m 427.82726,816.0236 4.26693,-0.82366 q 1.39035,-0.26838 1.92884,-0.95665 0.55048,-0.69058 0.3168,-1.90114 -0.22211,-1.15064 -0.97073,-1.61532 -0.75092,-0.47666 -2.00943,-0.23373 l -4.43473,0.85605 z m -1.71368,10.63724 -3.408,-17.65504 8.55784,-1.65194 q 2.88857,-0.55759 4.51723,0.40856 1.62865,0.96615 2.11914,3.50713 0.31235,1.61808 -0.16261,2.82868 -0.46298,1.20828 -1.65712,1.84906 1.2293,0.1854 1.87068,0.93186 0.65338,0.74415 1.06771,2.50416 l 0.47449,2.07164 q 0.005,0.024 0.0139,0.0719 0.34136,1.57519 1.05337,1.78585 l 0.10412,0.53936 -3.97928,0.76813 q -0.26349,-0.33454 -0.47548,-0.85308 -0.20231,-0.53283 -0.37204,-1.28331 l -0.40656,-1.84854 q -0.3769,-1.63048 -1.05129,-2.09706 -0.6624,-0.46889 -2.11268,-0.18893 l -3.84743,0.74268 1.32572,6.86784 -3.63169,0.70104 z" inkscape:connector-curvature="0"/>
        <path id="path5879" style="letter-spacing:1px" d="m 444.6127,822.9268 -4.43214,-17.42616 12.64668,-3.21654 0.77028,3.02858 -9.10939,2.31687 0.9448,3.71474 8.32859,-2.11828 0.75825,2.98126 -8.32859,2.11828 1.14038,4.48372 9.53529,-2.4252 0.81843,3.21787 z" inkscape:connector-curvature="0"/>
        <path id="path5881" style="letter-spacing:1px" d="m 458.89407,813.48938 3.48077,-1.09818 q 0.64232,1.34616 1.81361,1.73183 1.16762,0.37403 2.97204,-0.19526 1.53666,-0.48482 2.14401,-1.27805 0.60735,-0.79322 0.26944,-1.86423 -0.49216,-1.55994 -5.2973,-1.17034 l -0.11212,0.01 q -0.12376,0.0135 -0.38659,0.0324 -2.56341,0.23275 -3.79353,-0.096 -1.09167,-0.29558 -1.87748,-1.12287 -0.78949,-0.83893 -1.21187,-2.17769 -0.78966,-2.5029 0.49127,-4.36625 1.27727,-1.875 4.49029,-2.88871 3.00347,-0.94759 5.13956,-0.0599 2.14773,0.88401 3.05624,3.43902 l -3.38765,1.0688 q -0.48612,-1.21625 -1.55326,-1.59637 -1.06715,-0.38013 -2.66202,0.12305 -1.38532,0.43707 -1.96939,1.22295 -0.57609,0.77057 -0.26023,1.77173 0.42973,1.36204 3.56474,1.11535 0.85038,-0.0635 1.32581,-0.0983 2.02485,-0.11403 2.88929,-0.0924 0.87609,0.018 1.561,0.16032 1.23137,0.25151 2.06008,1.05247 0.82503,0.78931 1.24741,2.12807 0.84476,2.67752 -0.4932,4.72526 -1.34164,2.03611 -4.62451,3.07186 -3.2363,1.02105 -5.54944,0.0996 -2.31313,-0.92143 -3.32697,-3.648 z" inkscape:connector-curvature="0"/>
        <path id="path5883" style="letter-spacing:1px" d="m 478.28939,812.98254 -6.13628,-16.9015 3.47669,-1.26225 6.13628,16.9015 z" inkscape:connector-curvature="0"/>
        <path id="path5885" style="letter-spacing:1px" d="m 488.43115,805.68865 2.73979,-1.1369 q 2.37899,-0.98719 2.92418,-2.66721 0.55179,-1.69598 -0.60851,-4.49214 -1.15561,-2.78489 -2.69052,-3.68105 -1.5349,-0.89617 -3.6433,-0.0213 l -3.15696,1.31001 4.43532,10.68856 z m -2.10412,4.38865 -6.89159,-16.60785 6.50559,-2.69956 q 3.82218,-1.58604 6.54999,-0.29939 2.73908,1.28197 4.47952,5.47621 0.94508,2.27752 0.96655,4.30392 0.0327,2.02172 -0.84663,3.62896 -0.66469,1.20095 -1.78244,2.07448 -1.12242,0.86225 -3.39994,1.80733 z" inkscape:connector-curvature="0"/>
        <path id="path5887" style="letter-spacing:1px" d="m 503.9642,802.57823 -7.86095,-16.17159 11.7362,-5.70493 1.36619,2.81054 -8.45358,4.10926 1.67573,3.4473 7.72898,-3.75703 1.34485,2.76662 -7.72899,3.75704 2.02261,4.16092 8.84881,-4.30138 1.45158,2.9862 z" inkscape:connector-curvature="0"/>
        <path id="path5889" style="letter-spacing:1px" d="m 519.48614,794.91367 -8.81332,-15.67292 3.37292,-1.89669 12.41784,7.18984 -6.05504,-10.76782 3.1814,-1.78898 8.81332,15.67291 -3.33037,1.87276 -12.4604,-7.16591 6.05505,10.76782 z" inkscape:connector-curvature="0"/>
        <path id="path5891" style="letter-spacing:1px" d="m 539.57305,783.15682 -7.96633,-12.43807 -4.49209,2.8771 -1.73153,-2.70349 12.06801,-7.72931 1.73153,2.70348 -4.46126,2.85735 7.96633,12.43806 z" inkscape:connector-curvature="0"/>
      </g>
      <circle cy="626.47894" cx="271.81271" id="path5723" style="color:#000000;clip-rule:nonzero;display:inline;overflow:visible;visibility:visible;isolation:auto;mix-blend-mode:normal;color-interpolation:sRGB;color-interpolation-filters:linearRGB;solid-color:#000000;solid-opacity:1;fill:#0038a8;fill-opacity:1;fill-rule:nonzero;stroke:none;stroke-width:1.52081;stroke-linecap:round;stroke-linejoin:round;stroke-miterlimit:4;stroke-dasharray:none;stroke-dashoffset:0;stroke-opacity:1;color-rendering:auto;image-rendering:auto;shape-rendering:auto;text-rendering:auto;enable-background:accumulate" r="187.5"/>
      <circle cy="626.47894" cx="271.81271" id="path5723-7" style="color:#000000;clip-rule:nonzero;display:inline;overflow:visible;visibility:visible;isolation:auto;mix-blend-mode:normal;color-interpolation:sRGB;color-interpolation-filters:linearRGB;solid-color:#000000;solid-opacity:1;fill:none;fill-opacity:1;fill-rule:nonzero;stroke:#0038a8;stroke-width:3.24133;stroke-linecap:round;stroke-linejoin:round;stroke-miterlimit:4;stroke-dasharray:none;stroke-dashoffset:0;stroke-opacity:1;color-rendering:auto;image-rendering:auto;shape-rendering:auto;text-rendering:auto;enable-background:accumulate" r="191.50433"/>
      <path id="path5723-7-0" style="color:#000000;clip-rule:nonzero;display:inline;overflow:visible;visibility:visible;isolation:auto;mix-blend-mode:normal;color-interpolation:sRGB;color-interpolation-filters:linearRGB;solid-color:#000000;solid-opacity:1;fill:none;fill-opacity:1;fill-rule:nonzero;stroke:none;stroke-width:0.995774;stroke-linecap:round;stroke-linejoin:round;stroke-miterlimit:4;stroke-dasharray:none;stroke-dashoffset:0;stroke-opacity:1;color-rendering:auto;image-rendering:auto;shape-rendering:auto;text-rendering:auto;enable-background:accumulate" transform="scale(-1)" sodipodi:type="arc" sodipodi:cx="-271.81992" sodipodi:cy="-628.07324" sodipodi:rx="203.40836" sodipodi:ry="203.40836" sodipodi:start="5.3549391" sodipodi:end="4.5357007" sodipodi:open="true" sodipodi:arc-type="arc" d="m -149.92971,-790.91592 a 203.40836,203.40836 0 0 1 62.339133,249.06628 203.40836,203.40836 0 0 1 -231.182143,111.69151 203.40836,203.40836 0 0 1 -156.37513,-203.63447 203.40836,203.40836 0 0 1 167.57477,-194.52217"/>
      <circle cy="626.47894" cx="271.81271" id="path5723-7-0-8" style="color:#000000;clip-rule:nonzero;display:inline;overflow:visible;visibility:visible;isolation:auto;mix-blend-mode:normal;color-interpolation:sRGB;color-interpolation-filters:linearRGB;solid-color:#000000;solid-opacity:1;fill:none;fill-opacity:1;fill-rule:nonzero;stroke:none;stroke-width:1.14457;stroke-linecap:round;stroke-linejoin:round;stroke-miterlimit:4;stroke-dasharray:none;stroke-dashoffset:0;stroke-opacity:1;color-rendering:auto;image-rendering:auto;shape-rendering:auto;text-rendering:auto;enable-background:accumulate" r="233.80272"/>
      <path sodipodi:nodetypes="cccccccccccccccccccccccccccccccccccccccccccccccccc" inkscape:connector-curvature="0" id="path5648" d="m 212.90711,452.43325 23.68433,15.51483 27.83518,112.24007 8.05756,-113.937 9.76673,114.30064 32.47439,-113.08855 21.48681,-10.1816 9.03422,21.09047 -49.32199,104.96749 74.7155,-84.11944 -62.01875,94.30105 85.21474,-77.0893 h 24.17266 l 0.24417,28.84789 -103.03903,61.33204 99.62067,-28.36304 -91.56311,39.99916 112.68367,-14.30273 18.55679,16.96934 -20.51013,18.66628 -111.82909,-7.03016 94.12688,33.33264 -92.53979,-16.72693 102.30652,43.63546 0.36626,23.39344 -18.31263,9.81798 -107.67822,-73.93784 -11.59799,11.03007 -35.03816,-0.84847 -13.42925,-11.87853 -109.87574,70.66518 -23.19599,-7.27257 5.00545,-23.99951 114.39285,-46.05963 -103.28319,21.21167 93.63855,-35.27198 -109.63158,6.54531 -18.312621,-19.39353 16.603451,-13.69668 115.97994,12.727 -94.98147,-42.18093 99.98692,25.93885 -95.83605,-60.11995 -0.8546,-23.02983 25.14934,0.36363 78.37802,70.54398 -55.79245,-88.24057 69.46588,81.45284 -43.82821,-100.96759 z" style="fill:#fcd116;fill-opacity:1;fill-rule:evenodd;stroke:none;stroke-width:0.3;stroke-linecap:butt;stroke-linejoin:miter;stroke-miterlimit:4;stroke-dasharray:none;stroke-opacity:1"/>
      <path id="path5718" d="m 270.85459,641.88665 -114.4692,122.39079 h 86.98657 a 28.100613,27.899309 0 0 1 -3.49351,-13.41045 28.100613,27.899309 0 0 1 28.10091,-27.89825 28.100613,27.899309 0 0 1 28.09954,27.89825 28.100613,27.899309 0 0 1 -3.46046,13.41045 h 91.49632 z" style="fill:#ce1126;fill-opacity:1;fill-rule:evenodd;stroke:none;stroke-width:1px;stroke-linecap:butt;stroke-linejoin:miter;stroke-opacity:1" inkscape:connector-curvature="0"/>
      <g transform="matrix(0.70503598,0,0,0.69998533,7.9037082,261.45146)" id="text5740" style="font-style:normal;font-variant:normal;font-weight:bold;font-stretch:normal;font-size:46.0499px;line-height:125%;font-family:'Swis721 BT';-inkscape-font-specification:'Swis721 BT Bold';text-align:start;letter-spacing:3px;word-spacing:0px;writing-mode:lr-tb;text-anchor:start;fill:#ffffff;fill-opacity:1;stroke:none;stroke-width:1px;stroke-linecap:butt;stroke-linejoin:miter;stroke-opacity:1">
        <path id="path5949" style="font-style:normal;font-variant:normal;font-weight:bold;font-stretch:normal;font-family:'Swis721 BT';-inkscape-font-specification:'Swis721 BT Bold';letter-spacing:3px;fill:#ffffff" d="m 323.32719,765.35291 v -22.01312 h -7.68997 v -4.51954 h 0.49467 q 4.20476,0 6.11601,-1.30415 1.93373,-1.30415 2.27101,-4.36215 h 5.14914 v 32.19896 z" inkscape:connector-curvature="0"/>
        <path id="path5951" style="font-style:normal;font-variant:normal;font-weight:bold;font-stretch:normal;font-family:'Swis721 BT';-inkscape-font-specification:'Swis721 BT Bold';letter-spacing:3px;fill:#ffffff" d="m 358.751,744.35163 q 0,-2.76569 -1.39409,-4.36215 -1.3716,-1.61894 -3.75504,-1.61894 -2.24853,0 -3.50771,1.55149 -1.23669,1.55148 -1.23669,4.33966 0,2.60829 1.30414,4.06984 1.30415,1.46154 3.66511,1.46154 2.31598,0 3.62013,-1.43906 1.30415,-1.43905 1.30415,-4.00238 z m 0.11243,8.38702 q -1.12427,1.12426 -2.65327,1.6864 -1.529,0.56213 -3.44025,0.56213 -4.7444,0 -7.60003,-2.85563 -2.85564,-2.85564 -2.85564,-7.64501 0,-5.08168 3.10297,-8.20713 3.10298,-3.12546 8.18466,-3.12546 5.89115,0 8.94915,4.06984 3.08048,4.04735 3.08048,11.82727 0,8.36453 -3.28285,12.81662 -3.28286,4.45209 -9.44383,4.45209 -4.24972,0 -6.85802,-2.20356 -2.60829,-2.22604 -2.85563,-6.04854 l 6.49825,0.0225 q 0.22486,1.55149 1.21421,2.31599 0.98935,0.7645 2.78818,0.7645 2.42841,0 3.71007,-2.11362 1.28166,-2.11362 1.46155,-6.31837 z" inkscape:connector-curvature="0"/>
        <path id="path5953" style="font-style:normal;font-variant:normal;font-weight:bold;font-stretch:normal;font-family:'Swis721 BT';-inkscape-font-specification:'Swis721 BT Bold';letter-spacing:3px;fill:#ffffff" d="m 387.83395,744.35163 q 0,-2.76569 -1.39409,-4.36215 -1.3716,-1.61894 -3.75504,-1.61894 -2.24853,0 -3.50771,1.55149 -1.23669,1.55148 -1.23669,4.33966 0,2.60829 1.30415,4.06984 1.30414,1.46154 3.6651,1.46154 2.31599,0 3.62014,-1.43906 1.30414,-1.43905 1.30414,-4.00238 z m 0.11243,8.38702 q -1.12427,1.12426 -2.65327,1.6864 -1.529,0.56213 -3.44025,0.56213 -4.7444,0 -7.60003,-2.85563 -2.85563,-2.85564 -2.85563,-7.64501 0,-5.08168 3.10297,-8.20713 3.10297,-3.12546 8.18465,-3.12546 5.89115,0 8.94915,4.06984 3.08049,4.04735 3.08049,11.82727 0,8.36453 -3.28286,12.81662 -3.28285,4.45209 -9.44383,4.45209 -4.24972,0 -6.85801,-2.20356 -2.6083,-2.22604 -2.85564,-6.04854 l 6.49826,0.0225 q 0.22485,1.55149 1.2142,2.31599 0.98935,0.7645 2.78818,0.7645 2.42841,0 3.71007,-2.11362 1.28167,-2.11362 1.46155,-6.31837 z" inkscape:connector-curvature="0"/>
        <path id="path5955" style="font-style:normal;font-variant:normal;font-weight:bold;font-stretch:normal;font-family:'Swis721 BT';-inkscape-font-specification:'Swis721 BT Bold';letter-spacing:3px;fill:#ffffff" d="M 414.0163,753.43569 V 739.6522 l -8.74678,13.78349 z m -0.13491,11.91722 v -6.94796 h -13.58113 v -5.6663 l 11.87224,-18.6628 h 7.98229 v 19.20245 h 3.73256 v 5.12665 h -3.73256 v 6.94796 z" inkscape:connector-curvature="0"/>
      </g>
      <path d="M 143.47321,779.87701 A 200.85513,199.41629 0 0 1 83.102833,558.18677 200.85513,199.41629 0 0 1 273.00097,427.06614 200.85513,199.41629 0 0 1 461.32324,560.40833 200.85513,199.41629 0 0 1 398.31516,781.37388 L 271.81271,626.47894 Z" sodipodi:end="0.88947574" sodipodi:start="2.263949" sodipodi:ry="199.41629" sodipodi:rx="200.85513" sodipodi:cy="626.47894" sodipodi:cx="271.81271" sodipodi:type="arc" id="path5723-7-7-2" style="color:#000000;clip-rule:nonzero;display:inline;overflow:visible;visibility:visible;isolation:auto;mix-blend-mode:normal;color-interpolation:sRGB;color-interpolation-filters:linearRGB;solid-color:#000000;solid-opacity:1;fill:none;fill-opacity:1;fill-rule:nonzero;stroke:none;stroke-width:1;stroke-linecap:round;stroke-linejoin:round;stroke-miterlimit:4;stroke-dasharray:none;stroke-dashoffset:0;stroke-opacity:1;color-rendering:auto;image-rendering:auto;shape-rendering:auto;text-rendering:auto;enable-background:accumulate" sodipodi:arc-type="slice"/>
      <path d="M -152.22514,807.66004 A 218.18156,216.61859 0 0 1 -419.10785,786.28347 L -271.81271,626.47894 Z" sodipodi:end="2.3119013" sodipodi:start="0.99069301" sodipodi:ry="216.61859" sodipodi:rx="218.18156" sodipodi:cy="626.47894" sodipodi:cx="-271.81271" sodipodi:type="arc" transform="scale(-1,1)" id="path5788" style="color:#000000;clip-rule:nonzero;display:inline;overflow:visible;visibility:visible;isolation:auto;mix-blend-mode:normal;color-interpolation:sRGB;color-interpolation-filters:linearRGB;solid-color:#000000;solid-opacity:1;fill:none;fill-opacity:1;fill-rule:nonzero;stroke:none;stroke-width:1.0768;stroke-linecap:round;stroke-linejoin:round;stroke-miterlimit:4;stroke-dasharray:none;stroke-dashoffset:0;stroke-opacity:1;color-rendering:auto;image-rendering:auto;shape-rendering:auto;text-rendering:auto;enable-background:accumulate" sodipodi:arc-type="slice"/>
      <path d="m -175.96659,840.35221 a 235.77686,234.08781 0 0 1 -239.27102,-28.07748 l 143.4249,-185.79579 z" sodipodi:end="2.2247231" sodipodi:start="1.1521632" sodipodi:ry="234.08781" sodipodi:rx="235.77686" sodipodi:cy="626.47894" sodipodi:cx="-271.81271" sodipodi:type="arc" transform="scale(-1,1)" id="path5788-1" style="color:#000000;clip-rule:nonzero;display:inline;overflow:visible;visibility:visible;isolation:auto;mix-blend-mode:normal;color-interpolation:sRGB;color-interpolation-filters:linearRGB;solid-color:#000000;solid-opacity:1;fill:none;fill-opacity:1;fill-rule:nonzero;stroke:none;stroke-width:1.16364;stroke-linecap:round;stroke-linejoin:round;stroke-miterlimit:4;stroke-dasharray:none;stroke-dashoffset:0;stroke-opacity:1;color-rendering:auto;image-rendering:auto;shape-rendering:auto;text-rendering:auto;enable-background:accumulate" sodipodi:arc-type="slice"/>
      <g aria-label="COMMISSION ON HIGHER EDUCATION" id="text1238" style="font-weight:600;font-size:48.75px;font-family:'Bembo Std';-inkscape-font-specification:'Bembo Std Semi-Bold';letter-spacing:2.34375px;word-spacing:-6.5625px;stroke-width:0.9375">
        <path d="m 118.20701,774.4905 7.89674,-3.85524 q 0.39812,0.80416 1.01862,1.36011 0.63823,0.57184 3.43238,2.34024 2.81004,1.75068 4.52972,3.29147 3.1025,2.77977 4.82389,5.88817 1.70366,3.09252 1.95275,6.09627 0.23136,2.98787 -0.75842,5.84045 -1.02339,2.85442 -3.21544,5.30096 -1.68374,1.87923 -3.76858,3.20732 -2.08484,1.3281 -4.56227,1.95288 -2.47743,0.62478 -5.06818,0.41292 -2.60665,-0.19413 -5.44221,-1.48827 -2.85329,-1.31002 -5.53031,-3.70856 -1.71967,-1.54079 -3.1693,-3.38296 -1.44964,-1.84218 -2.31423,-3.16016 -0.88233,-1.33388 -1.2369,-1.65156 -0.40776,-0.36534 -0.87834,-0.33953 l -0.90415,-0.8101 5.17391,-6.16699 1.09917,0.98484 q -1.49921,3.70652 -0.68834,7.11773 0.81087,3.41122 3.82473,6.11157 4.07757,3.65341 9.08703,3.092 5.00947,-0.56142 9.12353,-5.15312 2.79565,-3.12023 3.82428,-6.80093 0.99501,-3.67887 0.0479,-7.11632 -0.94716,-3.43745 -3.67736,-5.88364 -2.67702,-2.39855 -6.16938,-3.06665 -3.52596,-0.66626 -7.36975,0.55605 z" id="path4041"/>
        <path d="m 107.66931,772.26357 q -2.9036,2.15875 -6.20137,2.94951 -3.297778,0.79075 -6.447048,0.22531 -3.182575,-0.57035 -6.154935,-2.45379 -2.986562,-1.90254 -5.273135,-4.97807 -3.110308,-4.18347 -3.958286,-8.59551 -0.86708,-4.39784 0.625092,-8.29543 1.477971,-3.91669 5.088369,-6.60093 2.636165,-1.95992 5.810022,-2.71787 3.154755,-0.74375 6.347131,-0.24001 3.17817,0.48463 6.31216,2.42588 3.10068,1.93634 5.48667,5.14559 2.99669,4.03065 3.84956,8.40939 0.83378,4.39293 -0.58688,8.26702 -1.43977,3.88829 -4.89735,6.45891 z m -4.55861,-3.93722 q 2.29231,-1.70428 3.84802,-3.7211 1.5224,-2.02171 2.19257,-4.03272 0.67018,-2.011 0.71196,-4.0294 0.0227,-2.00419 -0.56493,-3.79195 -0.60181,-1.80686 -1.72379,-3.31597 -3.0393,-4.08796 -7.903819,-4.32734 -4.897823,-0.24427 -9.826304,3.41992 -5.310534,3.94825 -6.632365,9.23194 -1.340933,5.2979 1.868791,9.61509 3.152915,4.24079 8.031635,4.49927 4.878721,0.25848 9.998232,-3.54774 z" id="path4038"/>
        <path d="m 94.545622,730.1926 -1.197654,0.52881 q -0.653802,-1.48074 -1.25417,-2.07434 -0.622143,-0.58399 -1.709781,-0.57213 -1.087637,0.0119 -3.105123,0.74654 l -16.889869,6.1825 q -1.233566,0.38855 -2.000802,0.83139 -0.798626,0.43069 -1.251389,0.76071 -0.452764,0.33001 -0.541005,0.83735 -0.110016,0.51695 0.01441,1.03447 0.102646,0.52714 0.468006,1.35461 l -1.197654,0.52881 -3.643984,-8.25293 16.393486,-18.73955 -24.662157,0.0126 -3.643985,-8.25292 1.197654,-0.52881 q 0.826868,1.87269 1.599463,2.2081 0.762981,0.31364 2.251355,-0.49966 l 19.5833,-10.57233 q 1.553701,-0.84214 1.68154,-1.73125 0.09645,-0.90127 -0.83618,-3.0135 l 1.197653,-0.52881 5.595776,12.67336 -1.197654,0.52881 q -0.423049,-0.95813 -0.788978,-1.55116 -0.365929,-0.59303 -0.804824,-0.99772 -0.460669,-0.39507 -0.958391,-0.46154 -0.519497,-0.0568 -1.206129,0.0382 -0.708409,0.10462 -1.5602,0.53276 -0.873567,0.43776 -2.030216,1.0005 l -15.933488,8.4664 0.03846,0.0871 27.825807,0.0217 0.673031,1.52429 -18.065411,20.49258 0.03846,0.0871 16.955195,-6.21135 q 0.737822,-0.27374 1.335376,-0.51156 0.566164,-0.24998 1.016381,-0.52683 0.428442,-0.26724 0.767236,-0.44285 0.307403,-0.18777 0.513567,-0.48697 0.174774,-0.31135 0.310519,-0.47537 0.126131,-0.1858 0.134338,-0.57973 -0.01357,-0.38433 -0.01554,-0.5656 -0.002,-0.18127 -0.138559,-0.6674 -0.146198,-0.50791 -0.22057,-0.73528 -0.08399,-0.24914 -0.309648,-0.87809 l 1.197654,-0.52881 z" id="path4035"/>
        <path d="m 75.726567,686.32743 -1.287457,0.23764 q -0.293799,-1.59177 -0.740686,-2.30808 -0.470296,-0.71198 -1.531216,-0.95187 -1.060919,-0.23988 -3.193591,0.009 l -17.861579,2.11071 q -1.289972,0.0929 -2.138798,0.34635 -0.876554,0.23441 -1.393342,0.45083 -0.516789,0.21641 -0.719918,0.68961 -0.226538,0.47751 -0.225118,1.00978 -0.02199,0.53659 0.142193,1.4261 l -1.287458,0.23763 -1.637499,-8.87175 20.281388,-14.44238 -23.997085,-5.68877 -1.637499,-8.87175 1.287457,-0.23763 q 0.37157,2.01311 1.045705,2.51803 0.669814,0.48152 2.305881,0.0343 l 21.496827,-5.759 q 1.706292,-0.46017 2.0362,-1.29565 0.302179,-0.85456 -0.116917,-3.12517 l 1.287457,-0.23763 2.514577,13.62364 -1.287458,0.23763 q -0.190105,-1.02997 -0.409035,-1.69152 -0.21893,-0.66156 -0.552387,-1.15675 -0.356864,-0.49086 -0.82574,-0.67059 -0.492285,-0.1754 -1.182282,-0.24169 -0.713406,-0.062 -1.641098,0.15767 -0.951099,0.22396 -2.206507,0.50409 l -17.459055,4.55382 0.01728,0.0936 27.067123,6.45344 0.302441,1.63858 -22.313267,15.76144 0.01728,0.0936 17.931803,-2.12367 q 0.781116,-0.0958 1.417461,-0.18901 0.608616,-0.11233 1.110638,-0.27761 0.478612,-0.16096 0.848825,-0.25349 0.342484,-0.11163 0.612227,-0.35506 0.242015,-0.26253 0.411999,-0.39072 0.165663,-0.15161 0.264713,-0.53298 0.07564,-0.37705 0.115622,-0.55387 0.03998,-0.17682 0.01947,-0.68135 -0.02483,-0.52795 -0.04463,-0.76635 -0.02412,-0.26181 -0.09828,-0.92589 l 1.287457,-0.23763 z" id="path4032"/>
        <path d="m 39.549718,639.18403 -1.308967,0.0249 -0.258497,-13.58946 1.308968,-0.0249 q 0.04708,2.47514 0.896358,3.31607 0.849277,0.84094 3.395813,0.7925 l 18.944327,-0.36036 q 2.80833,-0.0534 3.697315,-0.8798 0.888985,-0.82638 0.768695,-3.39536 l 1.308967,-0.0249 0.258496,13.58946 -1.308967,0.0249 q 0.0021,-1.14282 -0.17856,-1.87744 -0.204882,-0.75796 -0.474372,-1.15757 -0.293741,-0.42295 -0.916148,-0.60158 -0.622858,-0.20242 -1.147351,-0.24006 -0.548292,-0.0372 -1.547867,-0.0182 l -19.848704,0.37755 q -2.094348,0.0398 -2.864789,0.84016 -0.79424,0.80077 -0.724717,3.20406 z" id="path4029"/>
        <path d="m 68.885698,617.56172 -8.506572,0.42011 0.142201,-1.46896 q 3.427862,-0.57694 5.463228,-2.58009 2.035365,-2.00315 2.338115,-5.13062 0.256879,-2.65361 -0.978162,-4.47113 -1.235042,-1.81752 -3.438487,-2.03082 -1.374191,-0.13303 -2.759872,0.59377 -1.383388,0.70311 -2.580304,1.9504 -1.220609,1.24499 -2.468741,2.7743 -1.248132,1.52932 -2.567342,3.05174 -1.316917,1.49874 -2.655991,2.73227 -1.362767,1.23123 -3.009071,1.9328 -1.644009,0.67788 -3.349902,0.51274 -3.127471,-0.30275 -4.853162,-2.98087 -1.749385,-2.68042 -1.370947,-6.58976 0.16055,-1.65851 0.76287,-3.6808 0.567159,-1.90613 0.629085,-2.54584 0.08257,-0.85295 -0.437897,-1.40554 l 0.116971,-1.20834 7.616172,-0.36282 -0.142201,1.46896 q -2.972352,0.81236 -4.813587,2.78647 -1.862634,1.94812 -2.112632,4.53065 -0.215595,2.22714 0.823801,3.59525 1.015703,1.36582 2.697903,1.52866 1.04249,0.10092 2.06436,-0.32629 1.02187,-0.42721 1.912292,-1.22586 0.892716,-0.82236 1.808367,-1.88164 0.917946,-1.08297 1.847359,-2.28441 0.929412,-1.20144 1.903918,-2.3746 0.953106,-1.19914 2.034608,-2.24237 1.083796,-1.06692 2.23484,-1.84035 1.153339,-0.79712 2.577989,-1.18534 1.400957,-0.39051 2.893613,-0.24601 3.743487,0.36238 5.809276,3.47998 2.042095,3.11531 1.590263,7.78283 -0.204127,2.10867 -0.849246,4.07899 -0.619133,1.94893 -0.65583,2.32801 -0.08257,0.85295 0.3951,1.35357 z" id="path4026"/>
        <path d="m 72.214102,589.97673 -8.483927,-0.74916 0.342093,-1.43563 q 3.474581,-0.10192 5.765168,-1.80736 2.290588,-1.70544 3.018915,-4.76195 0.617974,-2.59341 -0.356443,-4.56298 -0.974416,-1.96958 -3.127868,-2.48271 -1.343013,-0.32003 -2.815195,0.2101 -1.466664,0.50697 -2.823161,1.57853 -1.379654,1.06605 -2.825518,2.40996 -1.445865,1.34391 -2.961196,2.67127 -1.509813,1.3042 -3.005243,2.34266 -1.518586,1.03294 -3.245476,1.50237 -1.721374,0.44628 -3.388562,0.049 -3.056513,-0.72833 -4.39906,-3.61761 -1.365702,-2.8948 -0.455293,-6.71544 0.386234,-1.62087 1.259909,-3.54159 0.822932,-1.81046 0.971908,-2.43566 0.198635,-0.83359 -0.241225,-1.45228 l 0.281399,-1.18093 7.594072,0.68394 -0.342093,1.43564 q -3.055614,0.39751 -5.149923,2.10078 -2.111946,1.6746 -2.713368,4.19854 -0.518657,2.17661 0.323523,3.67421 0.819025,1.49208 2.463058,1.88383 1.018838,0.24278 2.089597,-0.0404 1.070759,-0.2832 2.062195,-0.95235 0.996953,-0.6923 2.049083,-1.61616 1.057647,-0.94702 2.142882,-2.00981 1.085236,-1.06279 2.211264,-2.09139 1.108391,-1.05728 2.322609,-1.94251 1.219735,-0.9084 2.46588,-1.51685 1.251663,-0.63161 2.716064,-0.82101 1.441245,-0.19491 2.900035,0.1527 3.658553,0.87178 5.277787,4.24299 1.596078,3.36568 0.509105,7.92729 -0.491069,2.06084 -1.40002,3.92421 -0.880278,1.84574 -0.96856,2.21622 -0.198634,0.8336 0.205949,1.39494 z" id="path4023"/>
        <path d="m 51.066632,554.99632 -1.230115,-0.44814 4.652555,-12.77083 1.230114,0.44814 q -0.8474,2.32604 -0.357931,3.41639 0.48947,1.09035 2.882602,1.96219 l 17.803113,6.48587 q 2.639155,0.96148 3.766087,0.51067 1.126932,-0.45081 1.939827,-2.89075 l 1.230115,0.44814 -4.652554,12.77083 -1.230115,-0.44814 q 0.413474,-1.06541 0.509504,-1.81578 0.08181,-0.78089 -0.02569,-1.25074 -0.121723,-0.50036 -0.638047,-0.89113 -0.508176,-0.41315 -0.983926,-0.63713 -0.498115,-0.23214 -1.437475,-0.57436 l -18.653011,-6.7955 q -1.968183,-0.71703 -2.975138,-0.24785 -1.029321,0.46103 -1.829912,2.72812 z" id="path4020"/>
        <path d="m 72.37076,538.93718 q -3.17276,-1.73916 -5.266432,-4.40696 -2.093673,-2.6678 -2.892723,-5.76605 -0.808481,-3.13057 -0.335792,-6.61752 0.484132,-3.50783 2.326276,-6.86845 2.505774,-4.57128 6.162516,-7.18152 3.635869,-2.62169 7.800673,-2.89039 4.176246,-0.28958 8.121323,1.87294 2.880533,1.57898 4.892722,4.14782 1.991316,2.5574 2.864428,5.6691 0.884553,3.09083 0.426706,6.74879 -0.467278,3.62565 -2.389516,7.13238 -2.414239,4.4043 -6.038665,7.00511 -3.645301,2.58937 -7.758926,2.91328 -4.1345,0.31246 -7.91259,-1.75853 z m 1.678109,-5.78504 q 2.504811,1.37303 4.986588,1.94622 2.472346,0.54087 4.579643,0.31158 2.107296,-0.22929 3.95932,-1.03283 1.831152,-0.81498 3.211129,-2.09444 1.391419,-1.30033 2.295329,-2.94933 2.448564,-4.46692 0.638009,-8.98828 -1.819987,-4.55368 -7.20533,-7.50569 -5.802812,-3.18084 -11.156482,-2.17941 -5.374543,0.98999 -7.96041,5.70738 -2.5401,4.6339 -0.740987,9.17614 1.799114,4.54224 7.393191,7.60866 z" id="path4017"/>
        <path d="m 125.75508,486.3896 -34.561318,1.65204 14.166158,12.22184 q 1.18952,1.02626 1.93165,1.4779 0.72411,0.4361 1.53727,0.47744 0.81069,0.008 1.57685,-0.58875 0.74814,-0.61208 1.7645,-1.93589 l 0.99128,0.85522 -7.61922,8.83132 -0.99127,-0.85522 q 0.89126,-0.96017 1.26021,-1.67933 0.36647,-0.75273 0.2654,-1.43726 -0.11909,-0.70007 -0.58451,-1.29024 -0.48344,-0.60572 -1.43867,-1.42984 L 87.436113,488.35226 q -1.152068,0.16928 -1.995269,0.63646 -0.861225,0.45164 -1.868756,1.43726 l -0.991271,-0.85522 5.768835,-6.68657 31.588918,-1.44991 -13.21094,-11.39772 q -0.73895,-0.63753 -1.25419,-0.98774 -0.4997,-0.36824 -1.00258,-0.55059 -0.52091,-0.19791 -0.9213,-0.13465 -0.4004,0.0633 -0.91777,0.37142 -0.51737,0.30816 -1.0199,0.81775 -0.50253,0.50959 -1.21533,1.37223 l -0.991271,-0.85522 7.696961,-8.92143 0.99127,0.85521 q -0.85522,0.99127 -1.24466,1.66131 -0.37389,0.65201 -0.37107,1.37753 0.0184,0.7075 0.50924,1.41394 0.50642,0.68841 1.56978,1.60583 l 18.92426,16.32689 z" id="path4014"/>
        <path d="m 135.94355,456.99085 q -2.01113,-3.00773 -2.6363,-6.34086 -0.62518,-3.33314 0.0967,-6.45026 0.72848,-3.15014 2.75793,-6.02479 2.04924,-2.88788 5.23506,-5.01809 4.33351,-2.89763 8.78237,-3.52434 4.43563,-0.64649 8.25389,1.03836 3.83804,1.67162 6.33873,5.41149 1.8259,2.7307 2.4245,5.93844 0.58536,3.18794 -0.0771,6.3512 -0.64266,3.15002 -2.73791,6.18321 -2.0887,3.00016 -5.41303,5.223 -4.1752,2.79177 -8.59105,3.42504 -4.42907,0.61347 -8.22742,-0.99878 -3.81159,-1.63205 -6.20643,-5.21362 z m 4.15985,-4.35642 q 1.58774,2.37452 3.52439,4.02895 1.94321,1.62141 3.91826,2.39113 1.97505,0.76971 3.98884,0.91218 2.00057,0.12268 3.81543,-0.37496 1.83464,-0.51088 3.39787,-1.55614 4.23457,-2.83147 4.71644,-7.67797 0.48843,-4.87953 -2.92521,-9.98476 -3.67826,-5.50098 -8.88939,-7.08488 -5.22436,-1.60369 -9.69638,1.38655 -4.39287,2.93732 -4.89454,7.79706 -0.50166,4.85974 3.04429,10.16284 z" id="path4011"/>
        <path d="m 207.55453,435.0168 -31.43091,-14.46761 6.9363,17.37646 q 0.58244,1.45909 1.03278,2.20201 0.44151,0.72081 1.14404,1.13239 0.71581,0.38065 1.67071,0.20451 0.94607,-0.19824 2.45829,-0.9044 l 0.48536,1.21591 -10.83264,4.32416 -0.48537,-1.21591 q 1.23356,-0.44115 1.89251,-0.90923 0.67223,-0.49901 0.89812,-1.15305 0.21707,-0.67614 0.0761,-1.41442 -0.14975,-0.76039 -0.61747,-1.93208 l -8.13648,-20.38307 q -1.10037,-0.38092 -2.064,-0.35508 -0.97246,0.004 -2.32092,0.41386 l -0.48536,-1.21591 8.20186,-3.27401 28.70005,13.27663 -6.46859,-16.20476 q -0.36182,-0.90641 -0.65759,-1.45473 -0.27366,-0.55714 -0.63584,-0.9508 -0.37101,-0.41576 -0.75548,-0.54422 -0.38447,-0.12846 -0.98564,-0.0935 -0.60118,0.0349 -1.28205,0.25546 -0.68088,0.22053 -1.7111,0.6574 l -0.48537,-1.2159 10.94319,-4.36829 0.48537,1.21591 q -1.21591,0.48536 -1.8704,0.9004 -0.63239,0.40622 -0.96436,1.05134 -0.30987,0.63629 -0.19997,1.48948 0.13201,0.84436 0.65268,2.14869 l 9.26606,23.21282 z" id="path4008"/>
        <path d="m 238.3197,412.67788 1.00505,8.7738 q 0.13546,1.18245 0.33226,1.85473 0.21775,0.64592 0.71116,1.18838 0.51435,0.5161 1.39551,0.67872 0.90211,0.13625 2.34741,-0.005 l 0.149,1.3007 -14.00024,1.60375 -0.149,-1.3007 q 1.47905,-0.26526 2.27968,-0.59657 0.82157,-0.35767 1.20317,-1.00036 0.38161,-0.6427 0.41858,-1.36572 0.0343,-0.74666 -0.12015,-2.09466 l -2.0697,-18.06788 q -0.17067,-1.48989 -0.40738,-2.30135 -0.23671,-0.81146 -0.75648,-1.37487 -0.52247,-0.58705 -1.40093,-0.72602 -0.85481,-0.14167 -2.30011,-7e-5 l -0.14899,-1.3007 14.00024,-1.60374 0.14899,1.30069 q -2.7088,0.40614 -3.40451,1.44421 -0.67206,1.03536 -0.30905,4.20433 l 0.82626,7.21296 17.47665,-2.00197 -0.83438,-7.28391 q -0.14629,-1.27705 -0.32757,-2.02299 -0.15764,-0.74864 -0.49092,-1.35736 -0.30964,-0.61144 -0.86514,-0.85928 -0.53184,-0.25054 -1.33122,-0.32669 -0.77845,-0.1025 -2.01362,-0.009 l -0.14899,-1.3007 14.23673,-1.63084 0.14899,1.3007 q -1.48176,0.24162 -2.28509,0.54927 -0.80334,0.30766 -1.23495,0.93213 -0.43162,0.62447 -0.47869,1.46844 -0.0498,0.82032 0.12088,2.31021 l 2.09137,18.25707 q 0.15713,1.37164 0.38571,2.11216 0.22858,0.74052 0.76658,1.25391 0.55894,0.48704 1.41104,0.60507 0.87575,0.11531 2.37647,0.0392 l 0.149,1.3007 -14.23673,1.63084 -0.149,-1.3007 q 2.75611,-0.41155 3.47817,-1.42868 0.743,-1.04349 0.43959,-3.69219 l -0.959,-8.37176 z" id="path4005"/>
        <path d="m 273.35592,395.53215 0.0473,-1.30835 13.58303,0.49137 -0.0473,1.30835 q -2.47396,-0.0895 -3.36046,0.71211 -0.88649,0.80161 -0.97857,3.34694 l -0.68498,18.93537 q -0.10155,2.807 0.67455,3.74021 0.7761,0.9332 3.3478,0.95478 l -0.0473,1.30835 -13.58303,-0.49137 0.0473,-1.30835 q 1.14097,0.0651 1.88442,-0.0747 0.76811,-0.16276 1.18197,-0.4098 0.43852,-0.26997 0.65119,-0.88158 0.23647,-0.61075 0.30298,-1.13237 0.0674,-0.5454 0.10351,-1.5445 l 0.71769,-19.83932 q 0.0757,-2.09336 -0.68089,-2.90677 -0.75575,-0.83719 -3.15921,-0.90032 z" id="path4002"/>
        <path d="m 322.82473,422.04753 -1.09097,6.09206 q -4.34308,0.89082 -7.36601,1.02658 -2.9995,0.13996 -5.99866,-0.39714 -7.31046,-1.30916 -11.04727,-6.23445 -3.71339,-4.92109 -2.50074,-11.69264 0.25596,-1.42929 0.75462,-2.86348 0.50286,-1.45762 1.35473,-2.97365 0.87949,-1.53527 2.00659,-2.83273 1.1313,-1.3209 2.72946,-2.4131 1.60237,-1.11562 3.46144,-1.77418 1.88669,-0.67779 4.33049,-0.82053 2.448,-0.16617 5.18942,0.32476 2.03849,0.36506 3.92452,1.04136 1.88603,0.6763 3.13941,1.23931 1.27683,0.56721 1.8626,0.67211 0.86695,0.15525 1.36178,-0.31233 l 1.38243,0.24757 -1.5819,8.83347 -1.42929,-0.25595 q -0.12355,-4.0364 -2.23378,-6.56654 -2.08681,-2.52594 -5.83576,-3.1973 -5.41255,-0.96928 -9.39363,2.35624 -3.95764,3.32973 -5.11574,9.79667 -0.49932,2.78829 -0.25866,5.22544 0.26409,2.44135 1.10344,4.23607 0.86699,1.77548 2.19279,3.14947 1.35342,1.35477 2.92471,2.16816 1.59891,0.79417 3.37967,1.11307 3.09288,0.55387 6.42424,-0.49395 l 1.01963,-5.69372 q 0.43639,-2.43682 -0.50052,-3.28171 -0.91347,-0.8407 -4.54527,-1.49108 l 0.23078,-1.2887 14.36318,2.57216 -0.23078,1.2887 q -0.93724,-0.16784 -1.63527,-0.051 -0.69802,0.11682 -1.0848,0.38611 -0.38258,0.24586 -0.67493,0.79807 -0.26892,0.5564 -0.39131,0.96977 -0.0948,0.39413 -0.22064,1.09705 z" id="path3999"/>
        <path d="m 343.16511,422.10701 -3.22138,8.22267 q -0.43415,1.10818 -0.57514,1.79434 -0.11014,0.67267 0.0717,1.38305 0.21271,0.69691 0.91509,1.25329 0.73322,0.54291 2.07651,1.09473 l -0.47756,1.219 -13.12082,-5.14032 0.47757,-1.219 q 1.43103,0.45837 2.29358,0.54064 0.8934,0.0688 1.53159,-0.32032 0.63818,-0.38911 1.00948,-1.0106 0.37999,-0.64366 0.87492,-1.90698 l 6.6338,-16.93295 q 0.54702,-1.3963 0.71795,-2.22412 0.17092,-0.82782 -0.0244,-1.56905 -0.18667,-0.76339 -0.89773,-1.29762 -0.68889,-0.52554 -2.03218,-1.07736 l 0.47756,-1.219 13.12082,5.14032 -0.47757,1.219 q -2.58353,-0.90989 -3.68441,-0.31857 -1.07872,0.60001 -2.24224,3.56992 l -2.64831,6.75988 16.37886,6.41672 2.67436,-6.82637 q 0.46888,-1.19683 0.65808,-1.9408 0.21136,-0.73528 0.20201,-1.42921 0.0128,-0.68524 -0.36192,-1.1644 -0.35255,-0.47046 -1.02317,-0.91215 -0.63977,-0.45516 -1.77491,-0.951 l 0.47757,-1.219 13.34245,5.22715 -0.47757,1.219 q -1.42235,-0.48054 -2.27622,-0.58497 -0.85387,-0.10443 -1.5277,0.24515 -0.67382,0.34958 -1.11071,1.07321 -0.4282,0.70146 -0.97523,2.09776 l -6.70325,17.11026 q -0.50361,1.28548 -0.64849,2.04681 -0.14487,0.76134 0.09,1.46692 0.26572,0.6921 0.9633,1.19548 0.71974,0.51206 2.08131,1.14774 l -0.47756,1.219 -13.34245,-5.22716 0.47756,-1.21899 q 2.62787,0.92725 3.74223,0.36678 1.1452,-0.57395 2.1177,-3.05627 l 3.07377,-7.8459 z" id="path3996"/>
        <path d="m 389.35429,461.53411 -22.50465,-13.84447 0.68599,-1.1151 q 2.53431,1.55906 3.71479,1.50275 1.18048,-0.0563 2.25312,-1.79992 l 11.00074,-17.88206 q 0.4989,-0.81098 0.64071,-1.45037 0.15429,-0.65966 0.0451,-1.11812 -0.0765,-0.46626 -0.5974,-0.98236 -0.50846,-0.53637 -1.02312,-0.88093 -0.50219,-0.36483 -1.51592,-0.98845 l 0.68599,-1.1151 21.22736,13.0587 -3.46412,6.44877 -1.1151,-0.68599 0.33358,-0.99653 q 0.3133,-1.009 0.48006,-1.68893 0.16676,-0.67994 0.13236,-1.26004 -0.0344,-0.58011 -0.15296,-0.93252 -0.0983,-0.33995 -0.52252,-0.74066 -0.39147,-0.40851 -0.78449,-0.67824 -0.37274,-0.25725 -1.16345,-0.74368 l -7.2988,-4.49009 -5.94938,9.67091 6.427,3.95378 q 0.99345,0.61115 1.52993,0.8294 0.55675,0.23071 1.13372,0.11055 0.59725,-0.10769 1.10087,-0.60834 0.50362,-0.50065 1.29098,-1.55338 l 1.1151,0.68598 -5.1262,8.3328 -1.11509,-0.68598 q 0.59709,-1.19774 0.80126,-1.9385 0.22445,-0.72828 0.0513,-1.30993 -0.14043,-0.58944 -0.58493,-1.00263 -0.42423,-0.40071 -1.35685,-0.97444 l -6.427,-3.95378 -4.63977,7.54209 q -1.19736,1.94635 -1.09588,2.73541 0.10148,0.78906 1.68288,1.76191 l 4.62258,2.84373 q 1.33811,0.82318 2.21145,1.22071 0.89362,0.41 1.69207,0.56583 0.8312,0.14802 1.58592,-0.17021 0.77499,-0.30576 1.56087,-0.85636 0.81862,-0.5584 1.96152,-1.64393 l 1.1151,0.68599 z" id="path3993"/>
        <path d="m 409.088,461.09973 -4.27328,4.80057 q -1.12371,1.26237 -1.60263,2.01519 -0.46309,0.73503 -0.44983,1.54355 0.0133,0.80852 0.61172,1.53245 0.61428,0.70615 1.94386,1.82596 l -0.87048,0.97789 -11.14798,-9.9235 0.87048,-0.9779 q 1.12404,1.06432 1.89268,1.52545 0.78643,0.47697 1.50409,0.35096 0.73545,-0.11017 1.29916,-0.56443 0.58148,-0.43844 1.46779,-1.43411 l 13.00976,-14.61506 q 0.85466,-0.96011 1.20696,-1.57069 0.35231,-0.61058 0.29547,-1.29854 -0.0232,-0.68992 -0.56835,-1.36637 -0.52928,-0.69423 -1.68498,-1.72298 l 0.87049,-0.9779 q 0.35559,0.31654 1.11622,0.92989 0.76063,0.61335 2.01519,1.60263 1.25456,0.98929 2.29967,1.85587 2.00131,1.65402 4.50827,3.88562 2.13359,1.89923 3.50809,3.792 1.39033,1.87498 1.95457,3.46077 0.58201,1.60161 0.55129,3.10395 -0.0129,1.51817 -0.53368,2.71178 -0.48714,1.19166 -1.4051,2.22289 -3.5769,4.01826 -9.87341,1.85513 0.26804,1.13091 0.48871,4.92848 l 0.24392,4.48749 q 0.26754,4.60414 1.24987,7.58189 0.98233,2.97774 3.03462,5.2189 l -0.91796,1.03124 q -2.19885,-1.86173 -3.65464,-3.41257 -1.45579,-1.55083 -2.3563,-2.83046 -0.8669,-1.28157 -1.36002,-2.80405 -0.47534,-1.50666 -0.66815,-2.79368 -0.17698,-1.30481 -0.30001,-3.42204 l -0.21287,-3.66315 q -0.15819,-2.72215 -0.31349,-3.94392 -0.13947,-1.23955 -0.51378,-3.03869 -2.15352,-1.66204 -3.23594,-2.88051 z m 11.06305,-12.42813 -10.14508,11.3969 q 0.65179,0.77141 1.06073,1.13543 3.69841,3.00537 6.39282,2.94996 2.72801,-0.0574 5.27615,-2.91992 2.50066,-2.80922 2.35049,-5.68359 -0.13239,-2.85853 -3.06607,-5.46998 -1.10235,-0.98127 -1.86904,-1.4088 z" id="path3990"/>
        <path d="m 445.98076,522.19794 -15.12636,-21.66383 1.07343,-0.74951 q 1.70342,2.43962 2.80861,2.85825 1.1052,0.41863 2.78366,-0.75332 l 17.21396,-12.01932 q 0.78068,-0.5451 1.16548,-1.07506 0.40431,-0.54359 0.48676,-1.00761 0.1156,-0.45814 -0.1566,-1.13904 -0.25269,-0.69452 -0.58748,-1.21559 -0.31528,-0.5347 -0.99665,-1.51055 l 1.07344,-0.7495 14.26784,20.43426 -5.74642,4.5349 -0.7495,-1.07343 0.70295,-0.78114 q 0.68933,-0.80067 1.11316,-1.35789 0.42383,-0.55721 0.62339,-1.103 0.19955,-0.54578 0.23119,-0.91626 0.0453,-0.35096 -0.1842,-0.88751 -0.19633,-0.53065 -0.44936,-0.93462 -0.2394,-0.38445 -0.77087,-1.14561 l -4.90584,-7.0261 -9.3096,6.50024 4.31987,6.18688 q 0.66775,0.95633 1.07287,1.37023 0.41875,0.43341 0.99583,0.55305 0.59071,0.13916 1.25209,-0.11941 0.66139,-0.25858 1.80296,-0.9105 l 0.7495,1.07344 -8.02147,5.60084 -0.74951,-1.07343 q 1.02482,-0.86072 1.5072,-1.45882 0.496,-0.57859 0.56887,-1.18107 0.10602,-0.5966 -0.13708,-1.15266 -0.22947,-0.53655 -0.85633,-1.43433 l -4.31987,-6.18687 -7.26031,5.06937 q -1.87363,1.30823 -2.0949,2.0724 -0.22127,0.76416 0.84167,2.28649 l 3.10703,4.44986 q 0.89941,1.28812 1.54209,2.00067 0.6563,0.73205 1.32658,1.19307 0.70343,0.4669 1.52245,0.47568 0.83265,0.0283 1.77281,-0.16365 0.97331,-0.18605 2.45406,-0.72642 l 0.74951,1.07344 z" id="path3987"/>
        <path d="m 455.44232,528.03822 17.63321,-8.20244 q 2.41729,-1.12445 2.78114,-2.31757 0.39547,-1.18158 -0.83238,-3.70828 l 1.18706,-0.55218 q 0.64254,1.3813 3.49178,6.82921 1.20074,2.35554 3.02797,6.28363 4.78894,10.29503 2.71116,15.9871 -2.0316,5.56558 -7.64315,8.1759 -2.05037,0.95377 -4.27544,1.30623 -2.22508,0.35246 -4.79,-0.0821 -2.5333,-0.42302 -4.91455,-1.70436 -2.34963,-1.2698 -4.67171,-3.89132 -2.30049,-2.63156 -4.03736,-6.3654 l -6.39529,-13.7483 1.18705,-0.55218 q 0.89354,1.92087 1.59729,2.64363 0.70375,0.72276 1.52491,0.68207 0.84276,-0.0507 2.41831,-0.78363 z m 24.03456,-5.22071 -22.10088,10.28066 q -2.09354,0.97385 -2.39366,1.79604 -0.27854,0.81215 0.72543,2.97043 1.76699,3.79859 3.61822,5.74653 1.88286,1.95948 4.25455,2.82522 5.05962,1.84691 11.10282,-0.96421 6.06479,-2.82115 7.87707,-7.7859 0.90037,-2.46656 0.58303,-5.18053 -0.31735,-2.71396 -2.08433,-6.51255 -0.9839,-2.11512 -1.58225,-3.17569 z" id="path3984"/>
        <path d="m 493.65832,556.18676 1.27372,-0.30271 3.20328,13.47834 -1.27372,0.30271 q -0.62195,-2.61692 -1.61963,-3.21168 -0.97453,-0.60026 -3.47566,-0.006 l -12.73727,3.02716 q -4.56225,1.08427 -6.24631,4.39605 -1.6554,3.32943 -0.55461,7.96116 0.49535,2.08428 1.39448,3.7056 0.90463,1.64447 2.29351,2.85579 1.3944,1.23448 3.44523,1.62788 2.07399,0.38789 4.59829,-0.21204 l 12.64462,-3.00514 q 1.459,-0.34674 2.18471,-0.69048 0.73121,-0.32059 1.03913,-0.98097 0.33108,-0.66588 0.23658,-1.47529 -0.0713,-0.81492 -0.44561,-2.38971 l 1.27373,-0.30271 2.72995,11.48669 -1.27373,0.30272 q -0.63846,-2.68641 -1.64165,-3.30432 -0.98003,-0.62342 -3.48116,-0.029 l -13.17728,3.13173 q -5.51176,1.30994 -9.54518,-1.86635 -4.02792,-3.15313 -5.59104,-9.73019 -1.60164,-6.73917 0.65402,-11.04313 2.28432,-4.2863 8.09714,-5.66779 l 13.33939,-3.17026 q 2.17691,-0.51737 2.70219,-1.49854 0.53079,-0.95802 -0.0471,-3.38968 z" id="path3981"/>
        <path d="m 483.85843,636.75468 -8.26108,-2.996 q 0.30125,-0.84522 0.2695,-1.67775 -0.0327,-0.85631 -0.70406,-4.09418 -0.69519,-3.23696 -0.7832,-5.54424 -0.15879,-4.16262 0.87881,-7.56097 1.0385,-3.37456 3.02444,-5.64185 1.98685,-2.2435 4.7254,-3.51519 2.76324,-1.24882 6.04577,-1.37404 2.52136,-0.0962 4.92541,0.47911 2.40404,0.57528 4.57548,1.92171 2.17143,1.34643 3.82027,3.35596 1.67263,2.00863 2.71372,4.94654 1.042,2.9617 1.17901,6.55345 0.088,2.30728 -0.22834,4.62999 -0.31636,2.32271 -0.66266,3.86046 -0.34539,1.56154 -0.32724,2.03727 0.0209,0.54709 0.36658,0.8674 l 0.0463,1.2131 -8.02983,0.56834 -0.0562,-1.47476 q 3.70653,-1.49919 5.5948,-4.45356 1.88827,-2.95437 1.73401,-6.99806 -0.20869,-5.47088 -4.09488,-8.6814 -3.88619,-3.21052 -10.04687,-2.97551 -4.18641,0.15969 -7.54723,1.97919 -3.33613,1.84237 -5.1485,4.91295 -1.81237,3.07059 -1.67264,6.7337 0.13701,3.59174 2.08471,6.56654 1.97239,2.99767 5.52324,4.91083 z" id="path3978"/>
        <path d="m 475.38081,640.87701 1.29712,0.17747 q -0.15388,1.30034 -0.13275,2.024 0.0447,0.72688 0.4593,1.38424 0.43496,0.68417 1.16161,1.16799 0.72342,0.5074 2.15858,1.25634 l 22.74394,12.00107 1.278,-0.20956 -0.73889,5.40073 -26.45478,5.99084 q -2.13148,0.47721 -3.02468,0.85954 -0.89642,0.40592 -1.35666,1.13579 -0.43988,0.75669 -0.65606,2.33682 l -1.29712,-0.17747 1.96499,-14.36266 1.29712,0.17746 q -0.39042,2.85367 -0.15182,3.9194 0.23861,1.06574 1.2763,1.20771 0.82544,0.11293 2.661,-0.30865 l 6.30978,-1.51527 1.51327,-11.0609 -6.11578,-3.23926 q -1.3237,-0.68563 -1.96047,-0.77275 -1.10845,-0.15165 -1.69529,0.80116 -0.56648,0.97961 -0.85288,3.77543 l -1.29712,-0.17746 z m 12.58798,12.65378 -1.2616,9.22135 12.84893,-2.9511 z" id="path3975"/>
        <path d="m 492.21908,681.28075 7.74687,3.37153 -0.39446,1.24837 q -0.66785,0.13846 -0.8949,0.54103 -0.32983,0.5698 -0.85339,2.22672 l -6.21813,19.67878 q -0.55942,1.77041 -0.58819,2.33549 -0.0288,0.56507 0.42872,0.93431 l -0.39446,1.24836 -8.2776,-1.69191 0.43032,-1.36185 q 1.53989,0.2619 2.52669,0.29911 1.00949,0.0444 1.67016,-0.0714 0.66068,-0.11577 1.10518,-0.57445 0.43732,-0.43597 0.67037,-0.9365 0.23305,-0.50053 0.53428,-1.45383 l 2.10139,-6.65038 -21.90313,-6.92099 q -0.86251,-0.27254 -1.3989,-0.3921 -0.52086,-0.0897 -1.06206,-0.036 -0.52567,0.0835 -0.85305,0.32958 -0.31186,0.27591 -0.69426,0.85407 -0.3597,0.58533 -0.66328,1.38809 -0.30359,0.80277 -0.7124,2.09653 l -1.24836,-0.39446 5.04192,-15.95638 1.24837,0.39446 q -0.76024,2.40594 -0.80942,3.58866 -0.0564,1.20542 0.54803,1.82078 0.61993,0.64523 2.23145,1.15445 l 21.90314,6.92098 2.1014,-6.65038 q 0.29405,-0.9306 0.39092,-1.47416 0.0969,-0.54356 -0.003,-1.17436 -0.10742,-0.60811 -0.58162,-1.08248 -0.4742,-0.47437 -1.31874,-1.04079 -0.82184,-0.55925 -2.23263,-1.22971 z" id="path3972"/>
        <path d="m 484.95192,721.08846 1.18393,0.55886 -5.80201,12.29134 -1.18393,-0.55887 q 1.05676,-2.2387 0.66915,-3.36927 -0.38761,-1.13058 -2.69089,-2.21782 l -17.13468,-8.08827 q -2.54007,-1.19902 -3.70353,-0.85326 -1.16347,0.34576 -2.19629,2.70105 l -1.18393,-0.55886 5.80201,-12.29133 1.18393,0.55886 q -0.50926,1.02308 -0.67358,1.76152 -0.15294,0.77012 -0.0889,1.24783 0.0754,0.5094 0.5538,0.9458 0.46823,0.45793 0.92147,0.72452 0.47478,0.27676 1.37887,0.70353 l 17.95267,8.47439 q 1.89429,0.89418 2.93996,0.51914 1.0672,-0.36488 2.07195,-2.54916 z" id="path3969"/>
        <path d="m 462.25925,735.14041 q 2.99849,2.02489 4.8367,4.87474 1.83821,2.84984 2.34756,6.00867 0.51575,3.19187 -0.27711,6.62023 -0.80618,3.44809 -2.95097,6.62412 -2.91744,4.32018 -6.79973,6.58138 -3.86256,2.27452 -8.03437,2.15724 -4.18514,-0.0976 -7.91352,-2.61534 -2.72231,-1.83839 -4.48853,-4.58217 -1.74649,-2.73046 -2.32835,-5.90953 -0.59517,-3.15934 0.19871,-6.75934 0.80029,-3.56696 3.03833,-6.88108 2.81087,-4.16237 6.66011,-6.41716 3.86896,-2.24147 7.99492,-2.18388 4.14568,0.0709 7.71625,2.48212 z m -2.20547,5.60524 q -2.36723,-1.5986 -4.78543,-2.39865 -2.41179,-0.76701 -4.53125,-0.73342 -2.11947,0.0336 -4.03782,0.66257 -1.89862,0.6423 -3.39092,1.78877 -1.50562,1.1662 -2.55803,2.72463 -2.85083,4.22155 -1.4658,8.89087 1.39144,4.70237 6.48098,8.13935 5.48407,3.70342 10.90737,3.20096 5.44303,-0.48915 8.45372,-4.94742 2.95741,-4.37937 1.5857,-9.06842 -1.37171,-4.68904 -6.65852,-8.25924 z" id="path3966"/>
        <path d="m 404.26034,782.5438 34.56743,1.51877 -12.98785,-13.46734 q -1.09058,-1.13085 -1.78824,-1.64853 -0.68115,-0.50055 -1.48711,-0.61616 -0.80657,-0.082 -1.62412,0.44193 -0.80103,0.54102 -1.93432,1.76623 l -0.90882,-0.94237 8.39568,-8.09675 0.90881,0.94237 q -0.97542,0.87456 -1.40865,1.55692 -0.43384,0.71602 -0.39586,1.40692 0.0545,0.70804 0.46395,1.33834 0.42596,0.64743 1.30173,1.55554 l 15.2351,15.79757 q 1.16273,-0.0631 2.04516,-0.45113 0.89895,-0.3709 1.99248,-1.26015 l 0.90882,0.94238 -6.35673,6.13039 -31.589,-1.44795 12.11207,12.55924 q 0.67749,0.7025 1.15851,1.09841 0.46389,0.41244 0.94797,0.64006 0.5006,0.24476 0.9051,0.21842 0.40451,-0.0263 0.94792,-0.28584 0.54341,-0.2595 1.09048,-0.72095 0.54706,-0.46146 1.33584,-1.25522 l 0.90882,0.94238 -8.48135,8.17936 -0.90881,-0.94237 q 0.94237,-0.90882 1.39151,-1.54039 0.43201,-0.61505 0.49562,-1.33778 0.0465,-0.70621 -0.37767,-1.45461 -0.44126,-0.73189 -1.41618,-1.74279 l -17.35017,-17.99073 z" id="path3963"/>
      </g>
    </g>
  </g>
</svg>