<?xml version="1.0" encoding="UTF-8"?>
<svg id="DOST_Seal" xmlns="http://www.w3.org/2000/svg" width="100" height="100" version="1.1" viewBox="0 0 100 100">
  <!-- Generator: Adobe Illustrator 29.6.1, SVG Export Plug-In . SVG Version: 2.1.1 Build 9)  -->
  <rect x="25" y="25" width="50" height="50"/>
  <g id="Circles">
    <path d="M25,50C11.1928813,50,0,38.8071187,0,25S11.1928813,0,25,0" fill="#00aeef"/>
    <path d="M25,0c13.8071187,0,25,11.1928813,25,25s-11.1928813,25-25,25" fill="#fff"/>
    <path d="M0,25C0,11.1928813,11.1928813,0,25,0s25,11.1928813,25,25"/>
    <path d="M50,25c0-13.8071187,11.1928813-25,25-25s25,11.1928813,25,25" fill="#00aeef"/>
    <path d="M100,25c0,13.8071187-11.1928813,25-25,25s-25-11.1928813-25-25" fill="#fff"/>
    <path d="M75,0c13.8071187,0,25,11.1928813,25,25s-11.1928813,25-25,25"/>
    <path d="M75,50c13.8071187,0,25,11.1928813,25,25s-11.1928813,25-25,25" fill="#00aeef"/>
    <path d="M75,100c-13.8071187,0-25-11.1928813-25-25s11.1928813-25,25-25" fill="#fff"/>
    <path d="M100,75c0,13.8071187-11.1928813,25-25,25s-25-11.1928813-25-25"/>
    <path d="M50,75c0,13.8071187-11.1928813,25-25,25S0,88.8071187,0,75" fill="#00aeef"/>
    <path d="M0,75c0-13.8071187,11.1928813-25,25-25s25,11.1928813,25,25" fill="#fff"/>
    <path d="M25,100c-13.8071187,0-25-11.1928813-25-25s11.1928813-25,25-25"/>
  </g>
</svg>