<?xml version="1.0" encoding="UTF-8" standalone="no"?>
<svg
   width="237pt"
   height="237pt"
   viewBox="0 0 2009 2009"
   version="1.1"
   id="svg23"
   sodipodi:docname="DTI_PH_new_logo.svg"
   inkscape:version="1.3.2 (091e20e, 2023-11-25, custom)"
   xmlns:inkscape="http://www.inkscape.org/namespaces/inkscape"
   xmlns:sodipodi="http://sodipodi.sourceforge.net/DTD/sodipodi-0.dtd"
   xmlns="http://www.w3.org/2000/svg"
   xmlns:svg="http://www.w3.org/2000/svg">
  <defs
     id="defs23" />
  <sodipodi:namedview
     id="namedview23"
     pagecolor="#ffffff"
     bordercolor="#666666"
     borderopacity="1.0"
     inkscape:showpageshadow="2"
     inkscape:pageopacity="0.0"
     inkscape:pagecheckerboard="0"
     inkscape:deskcolor="#d1d1d1"
     inkscape:document-units="pt"
     inkscape:zoom="1.3275316"
     inkscape:cx="158.18832"
     inkscape:cy="157.81168"
     inkscape:window-width="1920"
     inkscape:window-height="1017"
     inkscape:window-x="-8"
     inkscape:window-y="-8"
     inkscape:window-maximized="1"
     inkscape:current-layer="svg23" />
  <g
     id="#ffffffff" />
  <g
     id="#263d81ff"
     style="fill:#172087;fill-opacity:1">
    <path
       fill="#263d81"
       opacity="1.00"
       d=" M 1709.61 2.77 C 1754.10 -1.52 1799.69 6.03 1840.29 24.76 C 1876.04 41.12 1907.90 65.69 1933.22 95.72 C 1957.06 123.91 1975.20 156.85 1986.47 192.00 C 2001.52 238.65 2004.42 289.09 1995.33 337.23 C 1988.06 375.69 1972.96 412.70 1950.89 445.05 C 1929.74 476.27 1902.15 503.15 1870.19 523.20 C 1835.62 544.92 1795.82 558.37 1755.10 561.62 C 1708.16 565.58 1660.17 556.20 1618.23 534.75 C 1556.76 503.80 1508.95 448.08 1485.39 383.64 C 1468.56 338.28 1463.64 288.72 1470.22 240.84 C 1476.00 199.29 1490.83 158.97 1513.78 123.83 C 1534.86 91.35 1562.79 63.27 1595.41 42.38 C 1629.62 20.38 1669.09 6.58 1709.61 2.77 M 1745.11 11.72 C 1742.40 14.74 1739.70 17.85 1736.64 20.48 C 1715.84 20.81 1695.05 19.97 1674.25 20.28 C 1669.52 25.22 1665.50 30.82 1661.06 36.00 C 1660.28 38.58 1660.52 41.34 1660.27 44.00 C 1659.54 59.63 1658.31 75.24 1657.81 90.88 C 1652.77 87.72 1647.85 84.39 1642.83 81.21 C 1639.39 86.85 1636.25 92.68 1632.74 98.27 C 1648.31 123.70 1663.65 149.29 1679.58 174.49 C 1684.20 173.24 1688.81 171.89 1693.55 171.13 C 1695.41 174.70 1697.44 178.18 1699.67 181.53 C 1711.10 178.53 1722.58 175.69 1734.06 172.84 C 1750.74 182.97 1767.16 193.51 1783.91 203.51 C 1784.55 200.60 1785.14 197.66 1785.93 194.78 C 1793.79 200.96 1801.24 207.64 1808.96 214.00 C 1807.36 221.42 1805.86 228.86 1804.30 236.30 C 1806.08 237.90 1807.90 239.46 1809.74 241.02 C 1808.27 245.31 1806.53 249.51 1805.44 253.92 C 1808.62 254.49 1811.77 255.28 1814.91 256.10 C 1817.88 252.01 1820.82 247.91 1823.76 243.80 C 1828.15 248.74 1832.30 253.91 1836.36 259.14 C 1842.93 254.80 1849.24 250.05 1855.78 245.65 C 1851.00 239.67 1846.00 233.88 1841.12 227.99 C 1844.57 220.15 1848.42 212.48 1851.66 204.54 C 1843.79 196.24 1836.18 187.68 1828.45 179.24 C 1831.56 178.84 1834.69 178.35 1837.81 177.88 C 1837.34 175.31 1836.98 172.71 1836.67 170.12 C 1827.95 165.94 1819.24 161.71 1810.56 157.46 C 1807.35 160.17 1804.22 162.99 1801.21 165.91 C 1800.66 166.53 1799.44 166.89 1798.94 166.06 C 1791.97 160.13 1784.93 154.27 1777.92 148.40 C 1769.53 148.99 1761.14 149.63 1752.76 150.33 C 1752.80 152.84 1752.91 155.36 1753.03 157.87 C 1747.88 156.94 1742.69 156.25 1737.53 155.47 C 1730.69 136.06 1723.53 116.75 1716.87 97.28 C 1730.57 88.19 1744.32 79.16 1758.03 70.07 C 1757.49 62.38 1757.38 54.67 1756.89 46.98 C 1753.12 40.80 1748.90 34.90 1744.85 28.90 C 1747.78 25.24 1751.39 22.17 1754.21 18.42 C 1751.12 16.24 1748.21 13.85 1745.11 11.72 M 1672.26 222.68 C 1676.10 225.87 1679.42 229.62 1683.03 233.06 C 1683.74 233.92 1684.92 234.64 1684.94 235.91 C 1685.86 241.79 1686.70 247.69 1687.58 253.58 C 1697.69 259.52 1707.76 265.53 1717.94 271.34 C 1724.16 256.99 1730.21 242.56 1736.29 228.14 C 1733.16 221.39 1730.02 214.64 1727.08 207.81 C 1709.01 207.66 1690.95 206.94 1672.87 207.02 C 1672.44 212.22 1672.28 217.46 1672.26 222.68 M 1869.12 242.41 C 1870.20 249.79 1871.55 257.14 1872.84 264.48 C 1872.91 265.80 1874.32 266.16 1875.27 266.77 C 1877.92 268.22 1880.57 269.66 1883.23 271.13 C 1880.86 274.75 1877.51 277.56 1874.97 281.04 C 1874.51 282.53 1875.33 284.04 1875.54 285.53 C 1877.82 296.30 1880.18 307.06 1882.30 317.86 C 1886.87 318.67 1891.46 319.47 1896.07 320.12 C 1898.59 318.64 1900.20 315.95 1902.33 313.96 C 1903.58 317.59 1905.85 321.05 1906.41 324.83 C 1904.59 326.56 1902.67 328.18 1900.96 330.00 C 1903.50 335.55 1905.90 341.16 1908.39 346.74 C 1913.54 348.23 1918.58 350.16 1923.83 351.36 C 1924.20 347.55 1923.76 343.49 1924.49 339.83 C 1929.23 338.55 1934.04 337.46 1938.85 336.41 C 1936.47 329.50 1934.00 322.60 1931.26 315.83 C 1927.75 311.95 1923.89 308.39 1920.23 304.68 C 1919.29 303.61 1917.60 302.70 1918.08 301.02 C 1918.21 297.71 1918.10 294.39 1918.37 291.08 C 1919.75 291.80 1921.25 292.38 1922.45 293.45 C 1924.81 297.35 1926.52 301.60 1928.77 305.57 C 1933.87 305.38 1938.97 304.97 1944.09 304.98 C 1942.04 295.02 1940.30 284.98 1938.08 275.06 C 1935.53 269.50 1931.39 264.77 1928.81 259.24 C 1929.05 255.83 1929.85 252.50 1930.22 249.11 C 1925.12 244.91 1919.93 240.81 1914.87 236.57 C 1899.60 238.40 1884.39 240.64 1869.12 242.41 M 1640.60 270.30 C 1637.74 279.60 1634.80 288.86 1631.80 298.11 C 1633.32 301.80 1634.88 305.48 1636.45 309.17 C 1610.95 331.11 1585.29 352.87 1559.73 374.73 C 1558.10 376.30 1555.80 377.35 1554.96 379.56 C 1559.91 384.41 1564.28 389.81 1569.19 394.71 C 1583.73 384.07 1598.12 373.20 1612.82 362.77 C 1613.10 359.16 1612.20 355.59 1612.04 352.00 C 1616.99 350.61 1622.11 349.75 1627.01 348.16 C 1639.78 335.90 1652.25 323.30 1664.80 310.82 C 1665.23 310.02 1666.97 309.29 1666.28 308.22 C 1663.98 305.41 1661.13 303.01 1659.17 299.97 C 1656.86 290.10 1654.78 280.16 1652.62 270.26 C 1648.61 270.23 1644.60 270.18 1640.60 270.30 M 1726.57 277.57 C 1725.46 295.03 1725.01 312.53 1724.01 330.00 C 1724.14 331.37 1723.46 333.22 1724.38 334.34 C 1728.62 335.67 1733.02 336.48 1737.30 337.74 C 1741.88 331.81 1746.48 325.90 1751.05 319.96 C 1755.69 320.16 1760.34 320.17 1764.98 320.52 C 1778.53 309.61 1792.32 299.00 1805.88 288.11 C 1803.63 283.97 1801.52 279.77 1799.19 275.68 C 1786.13 277.30 1773.08 278.99 1760.02 280.49 C 1752.12 277.23 1744.45 273.38 1736.72 269.72 C 1733.26 272.24 1729.94 274.94 1726.57 277.57 M 1794.07 327.18 C 1792.45 335.29 1791.49 343.59 1789.50 351.60 C 1785.16 354.58 1780.75 357.44 1776.37 360.35 C 1775.48 361.03 1774.01 361.49 1774.25 362.88 C 1773.94 369.20 1773.81 375.54 1773.90 381.86 C 1790.89 388.18 1807.79 394.75 1824.78 401.10 C 1826.42 396.88 1828.30 392.75 1829.90 388.51 C 1825.93 387.25 1822.02 385.84 1818.05 384.65 C 1818.64 372.75 1819.42 360.85 1820.09 348.95 C 1826.92 339.18 1835.31 330.36 1841.96 320.46 C 1835.11 316.06 1828.67 311.07 1821.95 306.49 C 1812.58 313.29 1803.38 320.31 1794.07 327.18 M 1845.37 377.12 C 1846.55 384.43 1848.72 391.66 1850.62 398.86 C 1854.54 395.56 1858.88 392.67 1862.49 389.04 C 1862.24 382.34 1861.70 375.65 1861.21 368.96 C 1860.82 367.63 1861.76 366.53 1862.30 365.43 C 1866.38 358.54 1870.43 351.62 1874.48 344.70 C 1875.38 343.39 1874.63 341.81 1874.46 340.41 C 1872.66 331.44 1871.00 322.43 1869.14 313.47 C 1865.76 312.89 1862.13 313.53 1858.70 312.95 C 1853.95 334.27 1849.78 355.73 1845.37 377.12 M 1943.54 343.36 C 1939.03 351.90 1934.66 360.53 1930.29 369.14 C 1931.38 375.39 1933.47 381.46 1934.95 387.65 C 1929.35 391.73 1923.75 395.80 1918.17 399.91 C 1915.65 396.07 1911.83 392.87 1910.49 388.42 L 1909.95 388.22 C 1905.40 388.78 1900.84 388.09 1896.30 387.97 C 1896.56 398.23 1896.81 408.51 1896.82 418.79 C 1890.94 419.56 1884.68 418.03 1879.08 420.01 L 1878.82 419.13 C 1878.72 420.89 1877.31 422.07 1876.38 423.42 C 1873.14 427.58 1869.96 431.78 1866.80 436.00 C 1860.16 430.97 1853.52 425.94 1846.99 420.79 C 1833.83 421.22 1820.67 421.76 1807.53 422.35 C 1806.58 429.80 1805.29 437.22 1804.47 444.69 C 1789.21 450.93 1773.63 456.39 1758.26 462.36 C 1755.83 465.66 1753.31 468.87 1750.83 472.12 C 1753.57 474.36 1756.59 476.24 1759.59 478.13 C 1755.63 484.45 1751.71 490.80 1747.79 497.14 C 1756.10 497.17 1764.40 498.08 1772.72 497.91 C 1776.17 492.32 1780.04 487.01 1783.68 481.54 C 1788.03 475.35 1791.85 468.74 1796.62 462.85 C 1798.49 464.73 1800.16 466.90 1802.37 468.42 C 1805.78 469.75 1809.35 470.62 1812.81 471.84 C 1820.69 467.42 1828.50 462.85 1836.47 458.62 C 1844.17 457.88 1851.95 457.64 1859.69 457.12 C 1862.95 460.69 1866.21 464.27 1869.46 467.87 C 1865.49 473.05 1860.38 477.53 1856.97 483.00 C 1858.21 490.16 1859.39 497.33 1860.85 504.45 C 1882.14 485.26 1903.07 465.63 1924.25 446.31 C 1926.37 444.11 1928.99 442.38 1930.80 439.89 C 1941.65 420.59 1952.37 401.21 1963.31 381.95 C 1958.13 375.53 1952.68 369.33 1947.48 362.93 C 1949.99 359.37 1952.85 356.08 1955.24 352.43 C 1952.29 349.87 1949.30 347.37 1946.43 344.74 C 1945.57 344.31 1944.49 342.26 1943.54 343.36 Z"
       id="path1"
       style="fill:#172087;fill-opacity:1" />
    <path
       fill="#263d81"
       opacity="1.00"
       d=" M 513.50 499.97 C 513.61 449.21 513.28 398.44 513.66 347.69 C 617.90 347.80 722.14 347.77 826.39 347.71 C 826.66 444.63 826.42 541.56 826.51 638.49 C 895.75 638.50 965.00 638.51 1034.24 638.49 C 1034.20 602.31 1034.70 566.15 1034.49 529.98 C 1035.17 500.66 1034.32 471.31 1035.01 441.99 C 1034.85 410.60 1035.16 379.22 1035.22 347.83 C 1138.94 347.61 1242.67 347.86 1346.39 347.71 C 1346.65 444.63 1346.42 541.56 1346.51 638.49 C 1525.58 638.50 1704.66 638.50 1883.73 638.49 C 1883.76 921.50 1883.77 1204.50 1883.73 1487.51 C 1824.16 1487.49 1764.59 1487.51 1705.02 1487.50 C 1660.24 1487.39 1615.45 1487.72 1570.69 1487.33 C 1570.85 1276.50 1570.68 1065.66 1570.77 854.82 C 1497.18 854.67 1423.59 854.79 1350.01 854.76 C 1349.99 939.84 1350.00 1024.92 1350.00 1110.00 C 1350.33 1135.04 1348.58 1160.19 1351.45 1185.14 C 1353.16 1199.47 1356.87 1214.28 1366.29 1225.60 C 1374.20 1235.15 1386.01 1240.67 1398.03 1242.89 C 1406.89 1244.78 1415.97 1244.39 1424.97 1244.75 C 1452.65 1244.67 1480.31 1245.84 1507.98 1246.24 C 1508.03 1326.91 1507.99 1407.58 1507.99 1488.25 C 1441.99 1489.13 1375.99 1490.03 1309.99 1490.98 C 1266.90 1489.48 1223.01 1487.05 1181.93 1472.85 C 1150.33 1462.09 1121.82 1443.18 1098.53 1419.40 C 1088.07 1409.11 1078.12 1398.15 1070.28 1385.70 C 1058.47 1367.27 1050.67 1346.52 1045.58 1325.31 C 1034.19 1277.10 1035.35 1227.16 1036.27 1177.98 C 1037.82 1126.01 1037.07 1074.00 1037.25 1022.00 C 1037.24 966.25 1037.26 910.51 1037.24 854.76 C 967.00 854.74 896.75 854.75 826.51 854.76 C 826.48 1065.67 826.52 1276.58 826.49 1487.50 C 727.42 1487.51 628.34 1487.49 529.27 1487.51 C 529.21 1449.92 529.27 1412.33 529.24 1374.73 C 528.48 1374.76 526.95 1374.81 526.19 1374.83 C 508.64 1410.95 484.05 1444.70 450.52 1467.49 C 421.20 1487.75 386.17 1498.38 350.98 1502.18 C 307.81 1506.71 263.46 1504.24 221.86 1491.27 C 189.01 1481.12 158.32 1464.14 132.20 1441.78 C 105.29 1418.92 83.26 1390.70 65.72 1360.15 C 45.39 1324.62 30.81 1286.02 20.50 1246.47 C 9.00 1202.69 2.86 1157.65 0.00 1112.52 L 0.00 1020.39 C 2.21 983.32 6.45 946.31 14.08 909.94 C 22.63 868.87 35.25 828.48 53.65 790.71 C 68.14 761.06 86.34 733.07 108.85 708.87 C 133.37 682.36 163.25 660.75 196.38 646.30 C 234.55 629.49 276.46 622.16 318.03 622.00 C 356.20 621.38 394.42 629.83 428.90 646.17 C 460.70 661.05 489.08 682.59 513.47 707.73 C 513.54 638.47 513.48 569.22 513.50 499.97 M 417.46 828.58 C 404.22 829.66 391.05 833.58 379.96 841.03 C 366.00 850.34 356.01 864.61 349.56 879.92 C 341.99 897.38 338.78 916.26 335.41 934.87 C 325.45 994.64 320.71 1055.43 323.52 1116.00 C 324.66 1141.52 327.19 1167.08 333.11 1191.97 C 338.20 1212.93 345.82 1233.76 359.03 1251.05 C 369.84 1265.39 385.43 1276.28 402.99 1280.44 C 421.13 1284.69 441.01 1284.19 458.03 1276.08 C 472.76 1268.95 484.01 1256.35 492.77 1242.80 C 503.25 1226.62 510.08 1208.08 512.23 1188.90 C 515.06 1164.00 513.12 1138.91 513.50 1113.93 C 513.48 1053.97 513.52 994.01 513.50 934.06 C 512.91 913.35 511.13 891.94 501.91 873.05 C 495.69 861.00 487.05 849.86 475.46 842.54 C 458.48 831.43 437.61 826.72 417.46 828.58 Z"
       id="path2"
       style="fill:#172087;fill-opacity:1" />
    <path
       fill="#263d81"
       opacity="1.00"
       d=" M 15.52 1580.75 C 638.43 1580.76 1261.34 1580.74 1884.24 1580.76 C 1884.25 1584.69 1884.24 1588.63 1884.26 1592.58 C 1262.88 1646.39 641.52 1700.43 20.15 1754.26 C 18.52 1754.21 16.89 1754.19 15.26 1754.21 C 15.81 1730.18 15.34 1706.11 15.50 1682.07 C 15.51 1648.29 15.47 1614.52 15.52 1580.75 Z"
       id="path3"
       style="fill:#172087;fill-opacity:1" />
    <path
       fill="#263d81"
       opacity="1.00"
       d=" M 1819.68 1865.71 C 1825.52 1861.47 1832.83 1859.71 1839.97 1859.72 C 1849.00 1859.54 1858.42 1861.63 1865.65 1867.28 C 1873.72 1873.43 1878.30 1883.06 1880.81 1892.68 C 1873.73 1895.68 1866.72 1898.86 1859.63 1901.82 C 1858.09 1896.34 1855.68 1890.60 1850.64 1887.50 C 1845.31 1884.59 1838.57 1884.49 1833.07 1886.95 C 1825.44 1890.62 1824.85 1902.75 1831.44 1907.72 C 1835.64 1911.00 1841.09 1911.70 1846.09 1913.11 C 1854.75 1915.48 1863.77 1918.18 1870.62 1924.31 C 1879.15 1932.06 1883.32 1943.63 1883.70 1954.98 C 1883.95 1967.49 1880.54 1980.56 1872.21 1990.14 C 1865.45 1997.99 1855.23 2002.14 1845.05 2002.93 C 1833.76 2004.06 1821.68 2001.55 1812.80 1994.21 C 1803.75 1986.87 1798.54 1975.60 1796.95 1964.23 C 1804.68 1962.09 1812.30 1959.53 1820.06 1957.50 C 1821.48 1964.31 1824.70 1971.43 1831.16 1974.80 C 1837.48 1977.80 1845.38 1977.98 1851.63 1974.66 C 1859.26 1970.52 1860.95 1958.43 1854.17 1952.76 C 1848.50 1948.03 1840.83 1947.49 1834.09 1945.20 C 1824.42 1942.31 1814.61 1937.59 1808.87 1928.95 C 1802.87 1919.92 1801.91 1908.60 1802.70 1898.07 C 1803.67 1885.60 1809.41 1873.17 1819.68 1865.71 Z"
       id="path4"
       style="fill:#172087;fill-opacity:1" />
    <path
       fill="#263d81"
       opacity="1.00"
       d=" M 1270.73 1861.64 C 1278.90 1861.39 1287.10 1861.41 1295.28 1861.63 C 1295.21 1908.08 1295.27 1954.54 1295.25 2001.00 C 1287.08 2001.00 1278.91 2001.00 1270.75 2001.00 C 1270.73 1954.54 1270.78 1908.09 1270.73 1861.64 Z"
       id="path5"
       style="fill:#172087;fill-opacity:1" />
    <path
       fill="#263d81"
       opacity="1.00"
       d=" M 1617.16 1861.41 C 1642.39 1861.56 1667.64 1861.54 1692.88 1861.42 C 1693.15 1870.61 1692.92 1879.80 1693.00 1889.00 C 1676.00 1889.00 1659.00 1888.99 1642.00 1889.00 C 1642.00 1898.33 1641.99 1907.66 1642.00 1917.00 C 1655.41 1917.00 1668.83 1916.99 1682.24 1917.00 C 1682.25 1925.74 1682.25 1934.49 1682.25 1943.24 C 1668.86 1943.23 1655.47 1943.31 1642.08 1943.20 C 1641.92 1953.38 1641.99 1963.58 1642.04 1973.78 C 1659.03 1973.71 1676.01 1973.75 1693.00 1973.76 C 1692.99 1982.83 1693.00 1991.91 1693.00 2001.00 C 1667.66 2001.00 1642.33 2001.00 1617.00 2001.00 C 1617.10 1954.47 1616.79 1907.93 1617.16 1861.41 Z"
       id="path6"
       style="fill:#172087;fill-opacity:1" />
    <path
       fill="#263d81"
       opacity="1.00"
       d=" M 15.50 1861.50 C 30.99 1861.61 46.49 1861.25 61.97 1861.70 C 69.98 1861.73 78.35 1863.99 84.16 1869.77 C 92.43 1877.16 96.67 1888.13 97.56 1899.01 C 98.38 1910.19 96.97 1921.83 91.81 1931.90 C 87.59 1940.06 80.15 1947.09 70.87 1948.77 C 60.84 1950.44 50.63 1949.50 40.52 1949.75 C 40.53 1966.78 40.40 1983.82 40.59 2000.85 C 32.23 2001.19 23.87 2000.90 15.51 2001.00 C 15.49 1954.50 15.50 1908.00 15.50 1861.50 M 40.38 1887.48 C 40.66 1899.65 40.41 1911.83 40.51 1924.00 C 45.69 1923.97 50.86 1924.02 56.04 1923.99 C 59.99 1923.89 64.39 1923.30 67.19 1920.22 C 73.47 1913.75 74.11 1903.31 70.53 1895.33 C 68.55 1890.86 64.06 1887.75 59.18 1887.49 C 52.93 1887.12 46.63 1887.07 40.38 1887.48 Z"
       id="path7"
       style="fill:#172087;fill-opacity:1" />
    <path
       fill="#263d81"
       opacity="1.00"
       d=" M 210.18 1861.65 C 218.53 1861.30 226.89 1861.57 235.25 1861.51 C 235.23 1879.66 235.29 1897.81 235.22 1915.96 C 246.00 1915.97 256.79 1916.13 267.57 1915.87 C 267.40 1897.75 267.54 1879.63 267.50 1861.50 C 275.87 1861.44 284.23 1861.60 292.59 1861.41 C 292.99 1907.91 292.60 1954.44 292.79 2000.95 C 284.33 2000.97 275.87 2001.15 267.42 2000.85 C 267.59 1981.82 267.47 1962.78 267.48 1943.75 C 256.73 1943.82 245.97 1943.60 235.22 1943.86 C 235.29 1962.91 235.24 1981.95 235.25 2001.00 C 226.90 2000.97 218.56 2001.05 210.21 2000.95 C 210.24 1954.52 210.32 1908.08 210.18 1861.65 Z"
       id="path8"
       style="fill:#172087;fill-opacity:1" />
    <path
       fill="#263d81"
       opacity="1.00"
       d=" M 412.18 1861.65 C 420.53 1861.31 428.89 1861.57 437.25 1861.52 C 437.25 1908.01 437.26 1954.50 437.25 2001.00 C 428.90 2000.98 420.56 2001.04 412.22 2000.96 C 412.24 1954.52 412.32 1908.09 412.18 1861.65 Z"
       id="path9"
       style="fill:#172087;fill-opacity:1" />
    <path
       fill="#263d81"
       opacity="1.00"
       d=" M 557.00 1861.51 C 565.27 1861.57 573.55 1861.33 581.81 1861.63 C 581.68 1898.83 581.78 1936.04 581.76 1973.24 C 596.04 1973.39 610.34 1972.97 624.61 1973.45 C 624.36 1982.62 624.57 1991.81 624.49 2001.00 C 601.99 2000.99 579.50 2001.00 557.00 2001.00 C 557.00 1954.50 557.00 1908.00 557.00 1861.51 Z"
       id="path10"
       style="fill:#172087;fill-opacity:1" />
    <path
       fill="#263d81"
       opacity="1.00"
       d=" M 734.75 1861.51 C 743.11 1861.58 751.47 1861.30 759.82 1861.65 C 759.69 1908.08 759.74 1954.51 759.80 2000.94 C 751.45 2001.07 743.10 2000.96 734.76 2001.00 C 734.74 1954.50 734.75 1908.01 734.75 1861.51 Z"
       id="path11"
       style="fill:#172087;fill-opacity:1" />
    <path
       fill="#263d81"
       opacity="1.00"
       d=" M 880.00 1861.51 C 893.68 1861.49 907.36 1861.50 921.05 1861.50 C 928.86 1861.64 937.18 1861.87 944.00 1866.20 C 953.61 1872.17 959.42 1882.89 961.35 1893.84 C 963.07 1903.92 962.39 1914.43 959.40 1924.21 C 956.52 1933.21 951.03 1941.98 942.36 1946.35 C 936.74 1949.32 930.26 1949.55 924.04 1949.75 C 917.69 1949.77 911.35 1949.73 905.00 1949.76 C 904.99 1966.83 905.01 1983.92 905.00 2001.00 C 896.66 2001.00 888.33 2001.00 880.00 2001.00 C 880.00 1954.50 880.00 1908.00 880.00 1861.51 M 905.05 1887.22 C 904.94 1899.47 905.03 1911.73 905.00 1924.00 C 911.38 1923.86 917.79 1924.30 924.16 1923.72 C 929.16 1923.31 933.32 1919.59 935.18 1915.08 C 937.94 1908.36 937.61 1900.37 934.07 1894.01 C 932.09 1890.55 928.54 1888.05 924.55 1887.63 C 918.08 1886.83 911.54 1887.45 905.05 1887.22 Z"
       id="path12"
       style="fill:#172087;fill-opacity:1" />
    <path
       fill="#263d81"
       opacity="1.00"
       d=" M 1075.00 1861.51 C 1088.34 1861.48 1101.68 1861.51 1115.02 1861.49 C 1122.92 1861.62 1131.31 1861.63 1138.34 1865.77 C 1148.98 1871.96 1155.17 1883.88 1156.77 1895.82 C 1158.14 1907.40 1157.07 1919.53 1152.15 1930.22 C 1149.39 1936.31 1144.96 1941.72 1139.32 1945.34 C 1133.26 1949.15 1125.92 1949.59 1118.96 1949.75 C 1112.64 1949.76 1106.32 1949.73 1100.00 1949.76 C 1099.99 1966.83 1100.00 1983.91 1100.00 2001.00 C 1091.66 2001.00 1083.33 2001.00 1075.00 2001.00 C 1075.00 1954.50 1075.00 1908.00 1075.00 1861.51 M 1100.04 1887.22 C 1099.95 1899.48 1100.02 1911.74 1100.00 1924.00 C 1106.67 1923.82 1113.38 1924.41 1120.01 1923.59 C 1125.80 1922.81 1129.87 1917.60 1131.21 1912.21 C 1132.88 1905.47 1132.25 1897.66 1127.83 1892.06 C 1125.28 1888.86 1121.12 1887.49 1117.16 1887.35 C 1111.45 1887.10 1105.74 1887.33 1100.04 1887.22 Z"
       id="path13"
       style="fill:#172087;fill-opacity:1" />
    <path
       fill="#263d81"
       opacity="1.00"
       d=" M 1416.00 1861.51 C 1424.92 1861.54 1433.85 1861.37 1442.77 1861.60 C 1453.30 1886.44 1464.25 1911.09 1474.94 1935.86 C 1476.07 1937.87 1476.28 1940.57 1478.21 1942.04 C 1478.42 1915.16 1477.96 1888.26 1478.45 1861.39 C 1484.79 1861.61 1491.14 1861.44 1497.49 1861.50 C 1497.50 1908.00 1497.51 1954.50 1497.49 2001.00 C 1490.37 2000.97 1483.25 2001.04 1476.14 2000.96 C 1465.54 1976.54 1454.87 1952.14 1444.24 1927.73 C 1441.17 1921.10 1438.69 1914.17 1435.26 1907.72 C 1435.23 1938.81 1435.26 1969.90 1435.25 2001.00 C 1428.83 2001.00 1422.41 2000.99 1416.00 2001.00 C 1415.99 1954.50 1416.00 1908.01 1416.00 1861.51 Z"
       id="path14"
       style="fill:#172087;fill-opacity:1" />
  </g>
  <g
     id="#fff200ff"
     style="fill:#ffe500;fill-opacity:1">
    <path
       fill="#fff200"
       opacity="1.00"
       d=" M 1745.11 11.72 C 1748.21 13.85 1751.12 16.24 1754.21 18.42 C 1751.39 22.17 1747.78 25.24 1744.85 28.90 C 1748.90 34.90 1753.12 40.80 1756.89 46.98 C 1757.38 54.67 1757.49 62.38 1758.03 70.07 C 1744.32 79.16 1730.57 88.19 1716.87 97.28 C 1723.53 116.75 1730.69 136.06 1737.53 155.47 C 1742.69 156.25 1747.88 156.94 1753.03 157.87 C 1752.91 155.36 1752.80 152.84 1752.76 150.33 C 1761.14 149.63 1769.53 148.99 1777.92 148.40 C 1784.93 154.27 1791.97 160.13 1798.94 166.06 C 1799.44 166.89 1800.66 166.53 1801.21 165.91 C 1804.22 162.99 1807.35 160.17 1810.56 157.46 C 1819.24 161.71 1827.95 165.94 1836.67 170.12 C 1836.98 172.71 1837.34 175.31 1837.81 177.88 C 1834.69 178.35 1831.56 178.84 1828.45 179.24 C 1836.18 187.68 1843.79 196.24 1851.66 204.54 C 1848.42 212.48 1844.57 220.15 1841.12 227.99 C 1846.00 233.88 1851.00 239.67 1855.78 245.65 C 1849.24 250.05 1842.93 254.80 1836.36 259.14 C 1832.30 253.91 1828.15 248.74 1823.76 243.80 C 1820.82 247.91 1817.88 252.01 1814.91 256.10 C 1811.77 255.28 1808.62 254.49 1805.44 253.92 C 1806.53 249.51 1808.27 245.31 1809.74 241.02 C 1807.90 239.46 1806.08 237.90 1804.30 236.30 C 1805.86 228.86 1807.36 221.42 1808.96 214.00 C 1801.24 207.64 1793.79 200.96 1785.93 194.78 C 1785.14 197.66 1784.55 200.60 1783.91 203.51 C 1767.16 193.51 1750.74 182.97 1734.06 172.84 C 1722.58 175.69 1711.10 178.53 1699.67 181.53 C 1697.44 178.18 1695.41 174.70 1693.55 171.13 C 1688.81 171.89 1684.20 173.24 1679.58 174.49 C 1663.65 149.29 1648.31 123.70 1632.74 98.27 C 1636.25 92.68 1639.39 86.85 1642.83 81.21 C 1647.85 84.39 1652.77 87.72 1657.81 90.88 C 1658.31 75.24 1659.54 59.63 1660.27 44.00 C 1660.52 41.34 1660.28 38.58 1661.06 36.00 C 1665.50 30.82 1669.52 25.22 1674.25 20.28 C 1695.05 19.97 1715.84 20.81 1736.64 20.48 C 1739.70 17.85 1742.40 14.74 1745.11 11.72 Z"
       id="path15"
       style="fill:#ffe500;fill-opacity:1" />
    <path
       fill="#fff200"
       opacity="1.00"
       d=" M 1672.26 222.68 C 1672.28 217.46 1672.44 212.22 1672.87 207.02 C 1690.95 206.94 1709.01 207.66 1727.08 207.81 C 1730.02 214.64 1733.16 221.39 1736.29 228.14 C 1730.21 242.56 1724.16 256.99 1717.94 271.34 C 1707.76 265.53 1697.69 259.52 1687.58 253.58 C 1686.70 247.69 1685.86 241.79 1684.94 235.91 C 1684.92 234.64 1683.74 233.92 1683.03 233.06 C 1679.42 229.62 1676.10 225.87 1672.26 222.68 Z"
       id="path16"
       style="fill:#ffe500;fill-opacity:1" />
    <path
       fill="#fff200"
       opacity="1.00"
       d=" M 1869.12 242.41 C 1884.39 240.64 1899.60 238.40 1914.87 236.57 C 1919.93 240.81 1925.12 244.91 1930.22 249.11 C 1929.85 252.50 1929.05 255.83 1928.81 259.24 C 1931.39 264.77 1935.53 269.50 1938.08 275.06 C 1940.30 284.98 1942.04 295.02 1944.09 304.98 C 1938.97 304.97 1933.87 305.38 1928.77 305.57 C 1926.52 301.60 1924.81 297.35 1922.45 293.45 C 1921.25 292.38 1919.75 291.80 1918.37 291.08 C 1918.10 294.39 1918.21 297.71 1918.08 301.02 C 1917.60 302.70 1919.29 303.61 1920.23 304.68 C 1923.89 308.39 1927.75 311.95 1931.26 315.83 C 1934.00 322.60 1936.47 329.50 1938.85 336.41 C 1934.04 337.46 1929.23 338.55 1924.49 339.83 C 1923.76 343.49 1924.20 347.55 1923.83 351.36 C 1918.58 350.16 1913.54 348.23 1908.39 346.74 C 1905.90 341.16 1903.50 335.55 1900.96 330.00 C 1902.67 328.18 1904.59 326.56 1906.41 324.83 C 1905.85 321.05 1903.58 317.59 1902.33 313.96 C 1900.20 315.95 1898.59 318.64 1896.07 320.12 C 1891.46 319.47 1886.87 318.67 1882.30 317.86 C 1880.18 307.06 1877.82 296.30 1875.54 285.53 C 1875.33 284.04 1874.51 282.53 1874.97 281.04 C 1877.51 277.56 1880.86 274.75 1883.23 271.13 C 1880.57 269.66 1877.92 268.22 1875.27 266.77 C 1874.32 266.16 1872.91 265.80 1872.84 264.48 C 1871.55 257.14 1870.20 249.79 1869.12 242.41 Z"
       id="path17"
       style="fill:#ffe500;fill-opacity:1" />
    <path
       fill="#fff200"
       opacity="1.00"
       d=" M 1640.60 270.30 C 1644.60 270.18 1648.61 270.23 1652.62 270.26 C 1654.78 280.16 1656.86 290.10 1659.17 299.97 C 1661.13 303.01 1663.98 305.41 1666.28 308.22 C 1666.97 309.29 1665.23 310.02 1664.80 310.82 C 1652.25 323.30 1639.78 335.90 1627.01 348.16 C 1622.11 349.75 1616.99 350.61 1612.04 352.00 C 1612.20 355.59 1613.10 359.16 1612.82 362.77 C 1598.12 373.20 1583.73 384.07 1569.19 394.71 C 1564.28 389.81 1559.91 384.41 1554.96 379.56 C 1555.80 377.35 1558.10 376.30 1559.73 374.73 C 1585.29 352.87 1610.95 331.11 1636.45 309.17 C 1634.88 305.48 1633.32 301.80 1631.80 298.11 C 1634.80 288.86 1637.74 279.60 1640.60 270.30 Z"
       id="path18"
       style="fill:#ffe500;fill-opacity:1" />
    <path
       fill="#fff200"
       opacity="1.00"
       d=" M 1726.57 277.57 C 1729.94 274.94 1733.26 272.24 1736.72 269.72 C 1744.45 273.38 1752.12 277.23 1760.02 280.49 C 1773.08 278.99 1786.13 277.30 1799.19 275.68 C 1801.52 279.77 1803.63 283.97 1805.88 288.11 C 1792.32 299.00 1778.53 309.61 1764.98 320.52 C 1760.34 320.17 1755.69 320.16 1751.05 319.96 C 1746.48 325.90 1741.88 331.81 1737.30 337.74 C 1733.02 336.48 1728.62 335.67 1724.38 334.34 C 1723.46 333.22 1724.14 331.37 1724.01 330.00 C 1725.01 312.53 1725.46 295.03 1726.57 277.57 Z"
       id="path19"
       style="fill:#ffe500;fill-opacity:1" />
    <path
       fill="#fff200"
       opacity="1.00"
       d=" M 1794.07 327.18 C 1803.38 320.31 1812.58 313.29 1821.95 306.49 C 1828.67 311.07 1835.11 316.06 1841.96 320.46 C 1835.31 330.36 1826.92 339.18 1820.09 348.95 C 1819.42 360.85 1818.64 372.75 1818.05 384.65 C 1822.02 385.84 1825.93 387.25 1829.90 388.51 C 1828.30 392.75 1826.42 396.88 1824.78 401.10 C 1807.79 394.75 1790.89 388.18 1773.90 381.86 C 1773.81 375.54 1773.94 369.20 1774.25 362.88 C 1774.01 361.49 1775.48 361.03 1776.37 360.35 C 1780.75 357.44 1785.16 354.58 1789.50 351.60 C 1791.49 343.59 1792.45 335.29 1794.07 327.18 Z"
       id="path20"
       style="fill:#ffe500;fill-opacity:1" />
    <path
       fill="#fff200"
       opacity="1.00"
       d=" M 1845.37 377.12 C 1849.78 355.73 1853.95 334.27 1858.70 312.95 C 1862.13 313.53 1865.76 312.89 1869.14 313.47 C 1871.00 322.43 1872.66 331.44 1874.46 340.41 C 1874.63 341.81 1875.38 343.39 1874.48 344.70 C 1870.43 351.62 1866.38 358.54 1862.30 365.43 C 1861.76 366.53 1860.82 367.63 1861.21 368.96 C 1861.70 375.65 1862.24 382.34 1862.49 389.04 C 1858.88 392.67 1854.54 395.56 1850.62 398.86 C 1848.72 391.66 1846.55 384.43 1845.37 377.12 Z"
       id="path21"
       style="fill:#ffe500;fill-opacity:1" />
    <path
       fill="#fff200"
       opacity="1.00"
       d=" M 1943.54 343.36 C 1944.49 342.26 1945.57 344.31 1946.43 344.74 C 1949.30 347.37 1952.29 349.87 1955.24 352.43 C 1952.85 356.08 1949.99 359.37 1947.48 362.93 C 1952.68 369.33 1958.13 375.53 1963.31 381.95 C 1952.37 401.21 1941.65 420.59 1930.80 439.89 C 1928.99 442.38 1926.37 444.11 1924.25 446.31 C 1903.07 465.63 1882.14 485.26 1860.85 504.45 C 1859.39 497.33 1858.21 490.16 1856.97 483.00 C 1860.38 477.53 1865.49 473.05 1869.46 467.87 C 1866.21 464.27 1862.95 460.69 1859.69 457.12 C 1851.95 457.64 1844.17 457.88 1836.47 458.62 C 1828.50 462.85 1820.69 467.42 1812.81 471.84 C 1809.35 470.62 1805.78 469.75 1802.37 468.42 C 1800.16 466.90 1798.49 464.73 1796.62 462.85 C 1791.85 468.74 1788.03 475.35 1783.68 481.54 C 1780.04 487.01 1776.17 492.32 1772.72 497.91 C 1764.40 498.08 1756.10 497.17 1747.79 497.14 C 1751.71 490.80 1755.63 484.45 1759.59 478.13 C 1756.59 476.24 1753.57 474.36 1750.83 472.12 C 1753.31 468.87 1755.83 465.66 1758.26 462.36 C 1773.63 456.39 1789.21 450.93 1804.47 444.69 C 1805.29 437.22 1806.58 429.80 1807.53 422.35 C 1820.67 421.76 1833.83 421.22 1846.99 420.79 C 1853.52 425.94 1860.16 430.97 1866.80 436.00 C 1869.96 431.78 1873.14 427.58 1876.38 423.42 C 1877.31 422.07 1878.72 420.89 1878.82 419.13 L 1879.08 420.01 C 1884.68 418.03 1890.94 419.56 1896.82 418.79 C 1896.81 408.51 1896.56 398.23 1896.30 387.97 C 1900.84 388.09 1905.40 388.78 1909.95 388.22 L 1910.49 388.42 C 1911.83 392.87 1915.65 396.07 1918.17 399.91 C 1923.75 395.80 1929.35 391.73 1934.95 387.65 C 1933.47 381.46 1931.38 375.39 1930.29 369.14 C 1934.66 360.53 1939.03 351.90 1943.54 343.36 Z"
       id="path22"
       style="fill:#ffe500;fill-opacity:1" />
  </g>
  <g
     id="#ed1c24ff"
     style="fill:#fa0f0d;fill-opacity:1">
    <path
       fill="#ed1c24"
       opacity="1.00"
       d=" M 20.15 1754.26 C 641.52 1700.43 1262.88 1646.39 1884.26 1592.58 C 1884.24 1650.72 1884.26 1708.86 1884.25 1767.00 C 1261.36 1767.03 638.47 1766.95 15.59 1767.04 C 14.86 1763.08 16.72 1758.52 14.45 1755.09 C 16.36 1754.88 18.32 1754.89 20.15 1754.26 Z"
       id="path23"
       style="fill:#fa0f0d;fill-opacity:1" />
  </g>
</svg>
