<?xml version="1.0" encoding="UTF-8" standalone="no"?>
<!-- Created with Inkscape (http://www.inkscape.org/) -->

<svg
   width="435.06781mm"
   height="183.58939mm"
   viewBox="0 0 435.06781 183.58939"
   version="1.1"
   id="svg1"
   xml:space="preserve"
   inkscape:version="1.4.3 (1:1.4.3+202512261034+0d15f75042)"
   sodipodi:docname="ibpap-logo.svg"
   xmlns:inkscape="http://www.inkscape.org/namespaces/inkscape"
   xmlns:sodipodi="http://sodipodi.sourceforge.net/DTD/sodipodi-0.dtd"
   xmlns="http://www.w3.org/2000/svg"
   xmlns:svg="http://www.w3.org/2000/svg"><sodipodi:namedview
     id="namedview1"
     pagecolor="#ffffff"
     bordercolor="#000000"
     borderopacity="0.25"
     inkscape:showpageshadow="2"
     inkscape:pageopacity="0.0"
     inkscape:pagecheckerboard="0"
     inkscape:deskcolor="#d1d1d1"
     inkscape:document-units="mm"
     inkscape:zoom="0.20222363"
     inkscape:cx="867.85112"
     inkscape:cy="543.95227"
     inkscape:window-width="1314"
     inkscape:window-height="699"
     inkscape:window-x="0"
     inkscape:window-y="32"
     inkscape:window-maximized="1"
     inkscape:current-layer="layer1"
     showguides="true" /><defs
     id="defs1"><rect
       x="1023.6193"
       y="959.33398"
       width="3634.5901"
       height="598.34747"
       id="rect12" /><rect
       x="1181.8599"
       y="993.94916"
       width="9714.3369"
       height="669.15405"
       id="rect11" /><rect
       x="3098.0386"
       y="265.74597"
       width="972.0708"
       height="1139.9104"
       id="rect9" /><rect
       x="1216.4751"
       y="984.05908"
       width="1666.4719"
       height="806.03833"
       id="rect1" /></defs><g
     inkscape:label="Layer 1"
     inkscape:groupmode="layer"
     id="layer1"
     transform="translate(-323.13913,-390.69389)"><path
       id="path9"
       style="font-size:533.333px;line-height:1;font-family:'Neue Plak';-inkscape-font-specification:'Neue Plak';text-align:center;letter-spacing:0px;text-anchor:middle;white-space:pre;opacity:1;fill:#b40e12;fill-opacity:1;stroke-width:25.3754;stroke-linecap:round;stroke-linejoin:round;paint-order:markers stroke fill"
       d="m 634.21336,390.69404 v 110.56223 h 27.05467 v -39.36194 h 18.79265 c 12.31952,0 22.51474,1.66107 33.49035,-9.68692 5.84656,-6.05535 9.7513,-17.55982 9.7513,-28.62649 0,-10.54468 -5.43585,-18.63623 -11.0736,-24.27398 -5.53333,-5.74214 -19.43093,-8.6129 -32.16805,-8.6129 z m 27.05467,21.16303 h 11.1187 c 5.84656,0 14.30829,1.09622 16.91833,3.28869 2.71449,2.19247 4.0721,5.74202 4.0721,10.64898 0,5.01131 -1.35761,8.66525 -4.0721,10.96211 -2.61004,2.29685 -11.07177,3.44525 -16.91833,3.44525 h -11.1187 z"
       sodipodi:nodetypes="ccccscscsccscscscc" /><path
       id="path7"
       style="font-size:533.333px;line-height:1;font-family:'Neue Plak';-inkscape-font-specification:'Neue Plak';text-align:center;letter-spacing:0px;text-anchor:middle;white-space:pre;opacity:1;fill:#202267;fill-opacity:1;stroke-width:25.3754;stroke-linecap:round;stroke-linejoin:round;paint-order:markers stroke fill"
       d="m 551.02356,390.69404 -35.88358,110.56223 h 28.67989 l 6.26421,-21.45452 h 41.18663 l 6.26421,21.45452 h 31.85492 L 590.33123,390.69404 Z m 19.41897,19.26237 h 0.31316 l 13.13358,49.95664 h -28.01069 z"
       sodipodi:nodetypes="cccccccccccccc" /><path
       id="path5"
       style="font-size:533.333px;line-height:1;font-family:'Neue Plak';-inkscape-font-specification:'Neue Plak';text-align:center;letter-spacing:0px;text-anchor:middle;white-space:pre;opacity:1;fill:#202267;fill-opacity:1;stroke-width:25.3754;stroke-linecap:round;stroke-linejoin:round;paint-order:markers stroke fill"
       d="m 444.00867,390.69404 v 110.56223 h 28.64218 v -38.83278 h 16.14682 c 27.35332,0 31.93358,-7.20894 37.67572,-13.15991 5.84655,-6.05536 6.65336,-14.61599 6.65336,-25.68266 0,-10.54468 -5.46495,-18.63623 -11.1027,-24.27398 -5.53334,-5.74214 -20.48924,-8.6129 -33.22638,-8.6129 z m 28.64217,21.6922 h 14.82338 c 5.84658,0 10.07495,1.09622 12.68503,3.28869 2.71445,2.19247 4.07157,5.74202 4.07157,10.64898 0,5.01131 -1.35712,8.66525 -4.07157,10.9621 -2.61008,2.29686 -6.83845,3.44526 -12.68503,3.44526 h -14.82338 z"
       sodipodi:nodetypes="ccccscscsccscscscc" /><path
       id="path3"
       style="font-size:533.333px;line-height:1;font-family:'Neue Plak';-inkscape-font-specification:'Neue Plak';text-align:center;letter-spacing:0px;text-anchor:middle;white-space:pre;opacity:1;fill:#202267;fill-opacity:1;stroke-width:25.3754;stroke-linecap:round;stroke-linejoin:round;paint-order:markers stroke fill"
       d="m 352.93022,390.69404 v 110.56223 h 46.84623 c 8.14343,0 19.16285,-1.25276 24.59177,-3.75844 7.74124,-3.50546 16.44345,-8.43156 16.44345,-24.75972 0,-18.70896 -9.86273,-23.39779 -26.00099,-28.03239 19.99578,-3.48895 22.40321,-12.71906 22.77174,-26.7627 0,-5.22014 -1.72977,-9.86595 -4.13101,-13.93766 -0.89142,-1.58026 -13.19389,-13.31132 -33.3618,-13.31132 z m 27.58385,20.12587 h 8.61343 c 5.53333,0 14.3677,1.09625 16.97777,3.28869 2.61005,2.08808 3.91501,5.22024 3.91501,9.39634 0,4.17611 -1.30496,7.41262 -3.91501,9.70947 -2.50569,2.29686 -11.23569,3.44529 -16.66461,3.44529 h -8.92659 z m 0,43.94668 h 9.08315 c 12.42396,0 21.81109,1.74418 21.81109,14.28853 0,7.09223 -3.80293,13.87875 -22.28081,13.87875 h -8.61343 z"
       sodipodi:nodetypes="ccscscscsccscscscccssscc" /><path
       style="font-size:533.333px;line-height:1;font-family:'Neue Plak';-inkscape-font-specification:'Neue Plak';text-align:center;letter-spacing:0px;text-anchor:middle;white-space:pre;opacity:1;fill:#b30e12;fill-opacity:1;stroke-width:25.3754;stroke-linecap:round;stroke-linejoin:round;paint-order:markers stroke fill"
       d="m 323.13913,390.69389 h 25.99629 v 110.5625 h -25.99629 z"
       id="text1" /><path
       id="text9"
       style="font-style:normal;font-variant:normal;font-weight:normal;font-stretch:expanded;font-size:533.333px;line-height:1;font-family:'Neue Plak';-inkscape-font-specification:'Neue Plak Expanded';text-align:center;letter-spacing:0px;writing-mode:lr-tb;direction:ltr;text-anchor:middle;white-space:pre;shape-inside:url(#rect9);opacity:1;fill:#202267;fill-opacity:1;stroke-width:3.13043;stroke-linecap:round;stroke-linejoin:round;paint-order:markers stroke fill"
       d="m 744.09205,398.84908 c -7.77775,0 -14.11542,6.33767 -14.11542,14.11542 0,7.77775 6.33767,14.11335 14.11542,14.11335 7.77775,0 14.1149,-6.3356 14.1149,-14.11335 0,-7.77775 -6.33715,-14.11542 -14.1149,-14.11542 z m 0,2.98638 c 6.16328,0 11.12852,4.96575 11.12852,11.12904 0,6.16329 -4.96524,11.12697 -11.12852,11.12697 -6.16329,0 -11.12697,-4.96368 -11.12697,-11.12697 0,-6.16329 4.96368,-11.12904 11.12697,-11.12904 z m -5.80172,3.98271 v 13.63947 h 3.78634 v -5.11958 h 0.56069 l 4.28863,5.11958 h 4.54028 l -4.55941,-5.19658 c 1.55844,-0.23183 2.59522,-0.94677 3.11041,-2.14457 0.25759,-0.55382 0.38602,-1.23028 0.38602,-2.02882 0,-0.73413 -0.12219,-1.3846 -0.3669,-1.9513 -0.34775,-0.7599 -0.9145,-1.33289 -1.70016,-1.71927 -0.78565,-0.39927 -1.76421,-0.59893 -2.93625,-0.59893 z m 3.78634,2.7435 h 2.26033 c 0.54094,0 0.9855,0.0707 1.33325,0.21239 0.34775,0.12879 0.59888,0.35445 0.75344,0.67644 0.0902,0.1932 0.13539,0.45682 0.13539,0.79169 0,0.36062 -0.0515,0.644 -0.15451,0.85007 -0.14167,0.30911 -0.38657,0.53477 -0.73432,0.67645 -0.34775,0.12879 -0.79231,0.19327 -1.33325,0.19327 h -2.26033 z" /><path
       style="font-size:533.333px;line-height:1;font-family:Arial;-inkscape-font-specification:Arial;text-align:center;letter-spacing:0px;text-anchor:middle;white-space:pre;opacity:1;fill:#f9f9f9;fill-opacity:1;stroke-width:0.582752;stroke-linecap:round;stroke-linejoin:round;paint-order:markers stroke fill"
       d="m 323.72122,545.25372 v -20.40619 h 2.49666 v 20.40619 z m 11.69826,0 v -17.9981 h -6.2159 v -2.40809 h 14.9542 v 2.40809 h -6.24164 v 17.9981 z m 27.57601,-2.4081 c -0.76358,0.91869 -1.5958,1.61004 -2.49666,2.07403 -0.90085,0.4547 -1.87463,0.68206 -2.92135,0.68206 -1.9304,0 -3.46185,-0.70526 -4.59436,-2.11579 -0.91801,-1.15069 -1.37702,-2.43593 -1.37702,-3.85574 0,-1.26205 0.37321,-2.39882 1.11963,-3.41031 0.75501,-1.02077 1.87894,-1.91627 3.37178,-2.68649 -0.84938,-1.05789 -1.41563,-1.91627 -1.69876,-2.57513 -0.28312,-0.65887 -0.42469,-1.29453 -0.42469,-1.907 0,-1.22492 0.44185,-2.28745 1.32555,-3.18759 0.89228,-0.90942 2.01191,-1.36413 3.3589,-1.36413 1.28694,0 2.33794,0.42687 3.153,1.28061 0.82364,0.85374 1.23545,1.87915 1.23545,3.07624 0,1.93947 -1.18827,3.59591 -3.56481,4.96931 l 3.38464,4.66308 c 0.38609,-0.81662 0.68638,-1.76315 0.90086,-2.8396 l 2.40657,0.55678 c -0.41181,1.78171 -0.96949,3.24792 -1.67302,4.3986 0.86655,1.24349 1.8489,2.28747 2.94709,3.13193 l -1.55719,1.9905 c -0.93518,-0.64958 -1.90038,-1.61004 -2.89561,-2.88136 z m -4.71019,-10.6346 c 1.00382,-0.6403 1.65157,-1.20173 1.94327,-1.68428 0.30029,-0.48255 0.45043,-1.01613 0.45043,-1.60076 0,-0.69598 -0.2059,-1.26205 -0.61773,-1.69819 -0.40324,-0.44543 -0.90943,-0.66815 -1.51858,-0.66815 -0.62631,0 -1.14966,0.21808 -1.57006,0.65423 -0.41182,0.43614 -0.61773,0.96973 -0.61773,1.60076 0,0.3155 0.0729,0.64957 0.21877,1.00221 0.15444,0.34335 0.38179,0.7099 0.68208,1.09965 z m 3.25595,8.65801 -4.24689,-5.69313 c -1.25262,0.80733 -2.09771,1.55899 -2.53527,2.25498 -0.43755,0.6867 -0.65633,1.36876 -0.65633,2.04619 0,0.82589 0.30457,1.68427 0.91372,2.57513 0.60915,0.89085 1.4714,1.33628 2.58675,1.33628 0.69494,0 1.41134,-0.23199 2.14918,-0.69598 0.74642,-0.47326 1.34271,-1.08109 1.78884,-1.82347 z m 14.70664,4.38469 v -20.40619 h 7.07816 c 1.44136,0 2.59531,0.20879 3.46185,0.62638 0.87512,0.40831 1.5572,1.04397 2.04623,1.90699 0.49762,0.85374 0.74643,1.74923 0.74643,2.68649 0,0.8723 -0.21878,1.69356 -0.65634,2.46378 -0.43756,0.77022 -1.09819,1.39196 -1.98188,1.86523 1.14108,0.36191 2.0162,0.97901 2.62535,1.85131 0.61772,0.8723 0.92659,1.90235 0.92659,3.09016 0,0.95581 -0.18875,1.84667 -0.56625,2.67257 -0.36892,0.81662 -0.82793,1.44765 -1.37702,1.89307 -0.5491,0.44543 -1.23975,0.78414 -2.07197,1.01614 -0.82364,0.22271 -1.83603,0.33407 -3.03717,0.33407 z m 2.49666,-11.8317 h 4.07959 c 1.10676,0 1.90037,-0.0789 2.38083,-0.23663 0.63489,-0.20416 1.11106,-0.54287 1.4285,-1.01614 0.32603,-0.47326 0.48904,-1.06716 0.48904,-1.78171 0,-0.67742 -0.15015,-1.27133 -0.45043,-1.78171 -0.30029,-0.51967 -0.72926,-0.8723 -1.28694,-1.05789 -0.55767,-0.19488 -1.51429,-0.29232 -2.86987,-0.29232 h -3.77072 z m 0,9.4236 h 4.69732 c 0.80648,0 1.37273,-0.0325 1.69876,-0.0974 0.57483,-0.11135 1.05528,-0.29695 1.44136,-0.55679 0.38608,-0.25983 0.70353,-0.63566 0.95234,-1.12749 0.2488,-0.5011 0.37321,-1.07645 0.37321,-1.72603 0,-0.76094 -0.18018,-1.4198 -0.54052,-1.97659 -0.36034,-0.56607 -0.86224,-0.96045 -1.50571,-1.18317 -0.63489,-0.23199 -1.5529,-0.34799 -2.75404,-0.34799 h -4.36272 z m 22.7886,2.4081 v -2.17147 c -1.06387,1.67036 -2.50952,2.50554 -4.33697,2.50554 -0.80648,0 -1.56149,-0.16704 -2.26501,-0.50111 -0.69495,-0.33407 -1.21401,-0.75166 -1.55719,-1.25277 -0.33461,-0.51038 -0.57055,-1.13212 -0.70782,-1.86523 -0.0944,-0.49183 -0.14156,-1.27132 -0.14156,-2.3385 v -9.15912 h 2.31648 v 8.19867 c 0,1.30844 0.0472,2.19002 0.14157,2.64473 0.14585,0.65886 0.45472,1.17853 0.92659,1.559 0.47188,0.37119 1.05529,0.55678 1.75024,0.55678 0.69494,0 1.34699,-0.19023 1.95614,-0.5707 0.60915,-0.38976 1.03812,-0.91406 1.28694,-1.57292 0.25738,-0.66814 0.38608,-1.63324 0.38608,-2.89529 v -7.92027 h 2.31648 v 14.78266 z m 5.83287,-4.41253 2.29075,-0.38975 c 0.12869,0.99293 0.48474,1.75387 1.06816,2.28282 0.59199,0.52895 1.41563,0.79342 2.47092,0.79342 1.06386,0 1.85318,-0.232 2.36796,-0.69598 0.51477,-0.47327 0.77216,-1.02542 0.77216,-1.65644 0,-0.56607 -0.22736,-1.01149 -0.68207,-1.33629 -0.31745,-0.22271 -1.10677,-0.50574 -2.36797,-0.84909 -1.69876,-0.46399 -2.87845,-0.86302 -3.53907,-1.19709 -0.65205,-0.34335 -1.14967,-0.81198 -1.49285,-1.40589 -0.3346,-0.60318 -0.50191,-1.26668 -0.50191,-1.9905 0,-0.65886 0.13727,-1.26669 0.41182,-1.82348 0.28313,-0.56606 0.66492,-1.03469 1.14538,-1.40588 0.36034,-0.28767 0.84938,-0.52895 1.46711,-0.72382 0.62631,-0.20416 1.29551,-0.30623 2.00762,-0.30623 1.07244,0 2.01191,0.16703 2.81839,0.5011 0.81506,0.33408 1.41563,0.78878 1.80171,1.36413 0.38608,0.56606 0.65205,1.327 0.7979,2.28282 l -2.26501,0.33407 c -0.10296,-0.76094 -0.40324,-1.35484 -0.90085,-1.78171 -0.48904,-0.42687 -1.18399,-0.6403 -2.08484,-0.6403 -1.06387,0 -1.82316,0.19023 -2.27788,0.5707 -0.45472,0.38047 -0.68207,0.8259 -0.68207,1.33628 0,0.3248 0.0944,0.61711 0.28312,0.87694 0.18875,0.26912 0.48474,0.49183 0.88799,0.66815 0.23164,0.0928 0.91372,0.30623 2.04623,0.6403 1.6387,0.47327 2.77978,0.86302 3.42325,1.16925 0.65204,0.29695 1.16253,0.7331 1.53145,1.30845 0.36892,0.57534 0.55339,1.28988 0.55339,2.14362 0,0.83518 -0.22736,1.62395 -0.68208,2.36634 -0.44614,0.7331 -1.0939,1.3038 -1.94328,1.71211 -0.84937,0.39903 -1.81029,0.59855 -2.88273,0.59855 -1.77598,0 -3.13155,-0.39903 -4.06672,-1.19709 -0.9266,-0.79806 -1.51859,-1.98123 -1.77598,-3.54951 z m 13.05936,-13.1123 v -2.88136 h 2.31649 v 2.88136 z m 0,17.52483 v -14.78266 h 2.31649 v 14.78266 z m 6.90104,0 v -14.78266 h 2.08483 v 2.10186 c 1.00381,-1.62395 2.45376,-2.43593 4.34985,-2.43593 0.82364,0 1.57864,0.16239 2.26501,0.48719 0.69494,0.31551 1.21401,0.7331 1.55719,1.25276 0.34319,0.51967 0.58341,1.13677 0.72069,1.85132 0.0858,0.46398 0.12869,1.27596 0.12869,2.43593 v 9.08953 h -2.31648 v -8.99209 c 0,-1.02077 -0.0901,-1.78171 -0.27026,-2.28282 -0.18017,-0.51039 -0.50191,-0.91406 -0.9652,-1.21101 -0.45472,-0.30623 -0.99094,-0.45935 -1.60867,-0.45935 -0.98666,0 -1.84032,0.33871 -2.56101,1.01614 -0.71211,0.67742 -1.06816,1.96266 -1.06816,3.85574 v 8.07339 z m 25.60173,-4.76052 2.3937,0.32015 c -0.3775,1.5126 -1.07674,2.68649 -2.09771,3.52167 -1.02097,0.83518 -2.32506,1.25277 -3.91228,1.25277 -1.99905,0 -3.58627,-0.6635 -4.76167,-1.99051 -1.16682,-1.33629 -1.75024,-3.20616 -1.75024,-5.60962 0,-2.48697 0.592,-4.41716 1.77598,-5.79056 1.18398,-1.37341 2.71973,-2.06011 4.60723,-2.06011 1.82745,0 3.3203,0.67278 4.47854,2.01835 1.15824,1.34556 1.73737,3.23863 1.73737,5.67921 0,0.14847 -0.004,0.37119 -0.0129,0.66814 h -10.19254 c 0.0858,1.62396 0.51048,2.86744 1.27406,3.73047 0.76359,0.86301 1.71592,1.29452 2.85701,1.29452 0.84937,0 1.57435,-0.24127 2.17492,-0.72382 0.60057,-0.48255 1.07673,-1.25277 1.4285,-2.31066 z m -7.6058,-4.05062 h 7.63153 c -0.10295,-1.24348 -0.39466,-2.1761 -0.87511,-2.79784 -0.73784,-0.96509 -1.69447,-1.44764 -2.86987,-1.44764 -1.06387,0 -1.96043,0.3851 -2.6897,1.15532 -0.72068,0.77022 -1.11963,1.80028 -1.19685,3.09016 z m 11.98139,4.39861 2.29074,-0.38975 c 0.1287,0.99293 0.48475,1.75387 1.06816,2.28282 0.59199,0.52895 1.41564,0.79342 2.47092,0.79342 1.06387,0 1.85319,-0.232 2.36796,-0.69598 0.51478,-0.47327 0.77216,-1.02542 0.77216,-1.65644 0,-0.56607 -0.22735,-1.01149 -0.68207,-1.33629 -0.31745,-0.22271 -1.10677,-0.50574 -2.36796,-0.84909 -1.69876,-0.46399 -2.87845,-0.86302 -3.53908,-1.19709 -0.65205,-0.34335 -1.14966,-0.81198 -1.49285,-1.40589 -0.3346,-0.60318 -0.5019,-1.26668 -0.5019,-1.9905 0,-0.65886 0.13727,-1.26669 0.41182,-1.82348 0.28312,-0.56606 0.66492,-1.03469 1.14537,-1.40588 0.36035,-0.28767 0.84938,-0.52895 1.46711,-0.72382 0.62631,-0.20416 1.29552,-0.30623 2.00762,-0.30623 1.07245,0 2.01191,0.16703 2.81839,0.5011 0.81506,0.33408 1.41563,0.78878 1.80171,1.36413 0.38608,0.56606 0.65205,1.327 0.7979,2.28282 l -2.26501,0.33407 c -0.10295,-0.76094 -0.40323,-1.35484 -0.90085,-1.78171 -0.48904,-0.42687 -1.18398,-0.6403 -2.08484,-0.6403 -1.06387,0 -1.82316,0.19023 -2.27787,0.5707 -0.45472,0.38047 -0.68208,0.8259 -0.68208,1.33628 0,0.3248 0.0944,0.61711 0.28312,0.87694 0.18876,0.26912 0.48475,0.49183 0.88799,0.66815 0.23165,0.0928 0.91372,0.30623 2.04623,0.6403 1.6387,0.47327 2.77978,0.86302 3.42325,1.16925 0.65205,0.29695 1.16253,0.7331 1.53146,1.30845 0.36892,0.57534 0.55338,1.28988 0.55338,2.14362 0,0.83518 -0.22736,1.62395 -0.68208,2.36634 -0.44614,0.7331 -1.09389,1.3038 -1.94327,1.71211 -0.84938,0.39903 -1.81029,0.59855 -2.88274,0.59855 -1.77597,0 -3.13155,-0.39903 -4.06672,-1.19709 -0.9266,-0.79806 -1.51859,-1.98123 -1.77597,-3.54951 z m 12.11989,0 2.29075,-0.38975 c 0.1287,0.99293 0.48475,1.75387 1.06816,2.28282 0.59199,0.52895 1.41563,0.79342 2.47092,0.79342 1.06387,0 1.85319,-0.232 2.36796,-0.69598 0.51478,-0.47327 0.77216,-1.02542 0.77216,-1.65644 0,-0.56607 -0.22736,-1.01149 -0.68208,-1.33629 -0.31744,-0.22271 -1.10676,-0.50574 -2.36796,-0.84909 -1.69875,-0.46399 -2.87845,-0.86302 -3.53907,-1.19709 -0.65205,-0.34335 -1.14967,-0.81198 -1.49285,-1.40589 -0.3346,-0.60318 -0.50191,-1.26668 -0.50191,-1.9905 0,-0.65886 0.13728,-1.26669 0.41182,-1.82348 0.28313,-0.56606 0.66492,-1.03469 1.14538,-1.40588 0.36034,-0.28767 0.84938,-0.52895 1.46711,-0.72382 0.62631,-0.20416 1.29552,-0.30623 2.00762,-0.30623 1.07245,0 2.01191,0.16703 2.81839,0.5011 0.81506,0.33408 1.41563,0.78878 1.80171,1.36413 0.38608,0.56606 0.65205,1.327 0.7979,2.28282 l -2.26501,0.33407 c -0.10295,-0.76094 -0.40324,-1.35484 -0.90085,-1.78171 -0.48904,-0.42687 -1.18398,-0.6403 -2.08484,-0.6403 -1.06387,0 -1.82316,0.19023 -2.27788,0.5707 -0.45471,0.38047 -0.68207,0.8259 -0.68207,1.33628 0,0.3248 0.0944,0.61711 0.28312,0.87694 0.18875,0.26912 0.48475,0.49183 0.88799,0.66815 0.23165,0.0928 0.91372,0.30623 2.04623,0.6403 1.6387,0.47327 2.77978,0.86302 3.42325,1.16925 0.65205,0.29695 1.16254,0.7331 1.53145,1.30845 0.36893,0.57534 0.55339,1.28988 0.55339,2.14362 0,0.83518 -0.22736,1.62395 -0.68208,2.36634 -0.44614,0.7331 -1.0939,1.3038 -1.94328,1.71211 -0.84937,0.39903 -1.81029,0.59855 -2.88273,0.59855 -1.77597,0 -3.13155,-0.39903 -4.06672,-1.19709 -0.9266,-0.79806 -1.51859,-1.98123 -1.77598,-3.54951 z m 18.5485,4.41253 v -20.40619 h 7.11676 c 1.25261,0 2.20924,0.065 2.86987,0.19487 0.92659,0.16704 1.70304,0.48719 2.32935,0.96046 0.62631,0.46399 1.12821,1.11821 1.50572,1.96267 0.38608,0.84446 0.57912,1.77243 0.57912,2.78393 0,1.73531 -0.51049,3.20615 -1.53146,4.41252 -1.02096,1.19709 -2.86558,1.79563 -5.53382,1.79563 h -4.83888 v 8.29611 z m 2.49666,-10.7042 h 4.87748 c 1.61296,0 2.75834,-0.3248 3.43613,-0.97438 0.67779,-0.64958 1.01668,-1.56364 1.01668,-2.74217 0,-0.85374 -0.20162,-1.5822 -0.60486,-2.18538 -0.39466,-0.61246 -0.91802,-1.01613 -1.57007,-1.21101 -0.42039,-0.12064 -1.19685,-0.18096 -2.32935,-0.18096 h -4.82601 z m 13.17365,10.7042 v -14.78266 h 2.08484 v 2.24106 c 0.53193,-1.04861 1.02097,-1.73995 1.46711,-2.07403 0.45472,-0.33407 0.95233,-0.5011 1.49284,-0.5011 0.78075,0 1.57436,0.26911 2.38084,0.80734 l -0.79791,2.32457 c -0.56625,-0.3619 -1.1325,-0.54286 -1.69875,-0.54286 -0.5062,0 -0.96091,0.16704 -1.36415,0.50111 -0.40325,0.32479 -0.69066,0.7795 -0.86225,1.36412 -0.25739,0.89086 -0.38608,1.86523 -0.38608,2.92313 v 7.73932 z m 8.99874,-7.39133 c 0,-2.73753 0.70353,-4.76516 2.11058,-6.08288 1.1754,-1.09501 2.60819,-1.64252 4.29836,-1.64252 1.87893,0 3.41468,0.66814 4.60724,2.00443 1.19256,1.327 1.78884,3.1644 1.78884,5.51217 0,1.90235 -0.26597,3.40104 -0.7979,4.49605 -0.52335,1.08573 -1.29122,1.93019 -2.30361,2.53337 -1.00382,0.60318 -2.102,0.90478 -3.29457,0.90478 -1.91324,0 -3.46185,-0.6635 -4.64583,-1.99051 -1.17541,-1.32701 -1.76311,-3.23864 -1.76311,-5.73489 z m 2.38084,0 c 0,1.89307 0.38179,3.31287 1.14537,4.2594 0.76358,0.93726 1.7245,1.40589 2.88273,1.40589 1.14967,0 2.10629,-0.47327 2.86987,-1.4198 0.76359,-0.94654 1.14538,-2.38954 1.14538,-4.32901 0,-1.82811 -0.38608,-3.2108 -1.15824,-4.14805 -0.76359,-0.94653 -1.71592,-1.4198 -2.85701,-1.4198 -1.15823,0 -2.11915,0.46863 -2.88273,1.40588 -0.76358,0.93726 -1.14537,2.35241 -1.14537,4.24549 z m 23.11643,1.97658 2.27788,0.32016 c -0.24881,1.69819 -0.88799,3.02984 -1.91754,3.99494 -1.02097,0.95581 -2.27788,1.43372 -3.77072,1.43372 -1.87035,0 -3.37607,-0.65886 -4.51715,-1.97659 -1.13251,-1.32701 -1.69876,-3.22472 -1.69876,-5.69313 0,-1.59612 0.24452,-2.99273 0.73356,-4.18981 0.48903,-1.19709 1.23116,-2.09259 2.2264,-2.68649 1.00381,-0.60319 2.09341,-0.90478 3.26882,-0.90478 1.48426,0 2.69828,0.40831 3.64203,1.22493 0.94375,0.80733 1.54861,1.95803 1.81458,3.45207 l -2.25214,0.37583 c -0.21449,-0.99293 -0.59628,-1.73996 -1.14538,-2.24106 -0.54051,-0.50111 -1.19685,-0.75166 -1.96901,-0.75166 -1.16682,0 -2.11486,0.4547 -2.84413,1.36412 -0.72926,0.90014 -1.09389,2.32922 -1.09389,4.28725 0,1.98586 0.35176,3.42887 1.05528,4.329 0.70353,0.90014 1.62154,1.35021 2.75405,1.35021 0.90943,0 1.66873,-0.30159 2.27788,-0.90478 0.60914,-0.60318 0.99522,-1.53116 1.15824,-2.78393 z m 13.61579,0.65423 2.3937,0.32015 c -0.3775,1.5126 -1.07674,2.68649 -2.09771,3.52167 -1.02096,0.83518 -2.32506,1.25277 -3.91228,1.25277 -1.99905,0 -3.58627,-0.6635 -4.76167,-1.99051 -1.16682,-1.33629 -1.75023,-3.20616 -1.75023,-5.60962 0,-2.48697 0.59199,-4.41716 1.77597,-5.79056 1.18398,-1.37341 2.71973,-2.06011 4.60723,-2.06011 1.82745,0 3.3203,0.67278 4.47854,2.01835 1.15825,1.34556 1.73737,3.23863 1.73737,5.67921 0,0.14847 -0.004,0.37119 -0.0129,0.66814 h -10.19254 c 0.0858,1.62396 0.51049,2.86744 1.27407,3.73047 0.76358,0.86301 1.71591,1.29452 2.857,1.29452 0.84938,0 1.57435,-0.24127 2.17492,-0.72382 0.60057,-0.48255 1.07673,-1.25277 1.4285,-2.31066 z m -7.6058,-4.05062 h 7.63154 c -0.10295,-1.24348 -0.39466,-2.1761 -0.87512,-2.79784 -0.73784,-0.96509 -1.69446,-1.44764 -2.86987,-1.44764 -1.06386,0 -1.96043,0.3851 -2.6897,1.15532 -0.72068,0.77022 -1.11963,1.80028 -1.19685,3.09016 z m 11.98138,4.39861 2.29074,-0.38975 c 0.1287,0.99293 0.48475,1.75387 1.06816,2.28282 0.59199,0.52895 1.41563,0.79342 2.47092,0.79342 1.06387,0 1.85319,-0.232 2.36796,-0.69598 0.51478,-0.47327 0.77217,-1.02542 0.77217,-1.65644 0,-0.56607 -0.22736,-1.01149 -0.68208,-1.33629 -0.31745,-0.22271 -1.10677,-0.50574 -2.36796,-0.84909 -1.69876,-0.46399 -2.87845,-0.86302 -3.53908,-1.19709 -0.65205,-0.34335 -1.14966,-0.81198 -1.49285,-1.40589 -0.3346,-0.60318 -0.5019,-1.26668 -0.5019,-1.9905 0,-0.65886 0.13727,-1.26669 0.41182,-1.82348 0.28312,-0.56606 0.66492,-1.03469 1.14537,-1.40588 0.36035,-0.28767 0.84938,-0.52895 1.46711,-0.72382 0.62631,-0.20416 1.29551,-0.30623 2.00762,-0.30623 1.07245,0 2.01191,0.16703 2.81839,0.5011 0.81506,0.33408 1.41563,0.78878 1.80171,1.36413 0.38609,0.56606 0.65205,1.327 0.7979,2.28282 l -2.265,0.33407 c -0.10296,-0.76094 -0.40324,-1.35484 -0.90086,-1.78171 -0.48904,-0.42687 -1.18398,-0.6403 -2.08484,-0.6403 -1.06387,0 -1.82316,0.19023 -2.27788,0.5707 -0.45471,0.38047 -0.68207,0.8259 -0.68207,1.33628 0,0.3248 0.0944,0.61711 0.28312,0.87694 0.18876,0.26912 0.48475,0.49183 0.88799,0.66815 0.23165,0.0928 0.91372,0.30623 2.04623,0.6403 1.6387,0.47327 2.77978,0.86302 3.42325,1.16925 0.65205,0.29695 1.16253,0.7331 1.53145,1.30845 0.36893,0.57534 0.55339,1.28988 0.55339,2.14362 0,0.83518 -0.22736,1.62395 -0.68208,2.36634 -0.44614,0.7331 -1.09389,1.3038 -1.94327,1.71211 -0.84938,0.39903 -1.8103,0.59855 -2.88274,0.59855 -1.77597,0 -3.13154,-0.39903 -4.06672,-1.19709 -0.92659,-0.79806 -1.51859,-1.98123 -1.77597,-3.54951 z m 12.11989,0 2.29075,-0.38975 c 0.1287,0.99293 0.48475,1.75387 1.06816,2.28282 0.59199,0.52895 1.41563,0.79342 2.47092,0.79342 1.06387,0 1.85319,-0.232 2.36796,-0.69598 0.51478,-0.47327 0.77216,-1.02542 0.77216,-1.65644 0,-0.56607 -0.22736,-1.01149 -0.68207,-1.33629 -0.31745,-0.22271 -1.10677,-0.50574 -2.36797,-0.84909 -1.69875,-0.46399 -2.87845,-0.86302 -3.53908,-1.19709 -0.65204,-0.34335 -1.14966,-0.81198 -1.49284,-1.40589 -0.3346,-0.60318 -0.5019,-1.26668 -0.5019,-1.9905 0,-0.65886 0.13727,-1.26669 0.41181,-1.82348 0.28313,-0.56606 0.66492,-1.03469 1.14538,-1.40588 0.36034,-0.28767 0.84938,-0.52895 1.46711,-0.72382 0.62631,-0.20416 1.29552,-0.30623 2.00762,-0.30623 1.07244,0 2.01191,0.16703 2.81839,0.5011 0.81506,0.33408 1.41563,0.78878 1.80171,1.36413 0.38608,0.56606 0.65205,1.327 0.7979,2.28282 l -2.26501,0.33407 c -0.10295,-0.76094 -0.40324,-1.35484 -0.90085,-1.78171 -0.48904,-0.42687 -1.18398,-0.6403 -2.08484,-0.6403 -1.06387,0 -1.82316,0.19023 -2.27788,0.5707 -0.45471,0.38047 -0.68207,0.8259 -0.68207,1.33628 0,0.3248 0.0944,0.61711 0.28312,0.87694 0.18875,0.26912 0.48475,0.49183 0.88799,0.66815 0.23165,0.0928 0.91373,0.30623 2.04623,0.6403 1.6387,0.47327 2.77978,0.86302 3.42325,1.16925 0.65205,0.29695 1.16253,0.7331 1.53145,1.30845 0.36893,0.57534 0.55339,1.28988 0.55339,2.14362 0,0.83518 -0.22736,1.62395 -0.68208,2.36634 -0.44614,0.7331 -1.0939,1.3038 -1.94327,1.71211 -0.84938,0.39903 -1.81029,0.59855 -2.88274,0.59855 -1.77597,0 -3.13155,-0.39903 -4.06672,-1.19709 -0.9266,-0.79806 -1.51858,-1.98123 -1.77598,-3.54951 z m 17.13896,4.41253 7.24546,-20.40619 h 2.6897 l 7.72162,20.40619 h -2.84414 l -2.20066,-6.18033 h -7.88892 l -2.07197,6.18033 z m 5.44375,-8.37963 h 6.39607 l -1.96901,-5.65137 c -0.60057,-1.71675 -1.04671,-3.12728 -1.33841,-4.23157 -0.24024,1.30844 -0.57913,2.60761 -1.01668,3.8975 z m 12.98519,3.9671 2.29075,-0.38975 c 0.12869,0.99293 0.48474,1.75387 1.06815,2.28282 0.592,0.52895 1.41563,0.79342 2.47092,0.79342 1.06387,0 1.85319,-0.232 2.36797,-0.69598 0.51477,-0.47327 0.77216,-1.02542 0.77216,-1.65644 0,-0.56607 -0.22736,-1.01149 -0.68208,-1.33629 -0.31744,-0.22271 -1.10676,-0.50574 -2.36796,-0.84909 -1.69876,-0.46399 -2.87845,-0.86302 -3.53908,-1.19709 -0.65205,-0.34335 -1.14966,-0.81198 -1.49285,-1.40589 -0.3346,-0.60318 -0.5019,-1.26668 -0.5019,-1.9905 0,-0.65886 0.13727,-1.26669 0.41182,-1.82348 0.28313,-0.56606 0.66492,-1.03469 1.14537,-1.40588 0.36034,-0.28767 0.84938,-0.52895 1.46711,-0.72382 0.62631,-0.20416 1.29552,-0.30623 2.00763,-0.30623 1.07244,0 2.0119,0.16703 2.81839,0.5011 0.81505,0.33408 1.41562,0.78878 1.80171,1.36413 0.38607,0.56606 0.65204,1.327 0.7979,2.28282 l -2.26501,0.33407 c -0.10296,-0.76094 -0.40325,-1.35484 -0.90086,-1.78171 -0.48903,-0.42687 -1.18398,-0.6403 -2.08483,-0.6403 -1.06387,0 -1.82317,0.19023 -2.27789,0.5707 -0.45471,0.38047 -0.68207,0.8259 -0.68207,1.33628 0,0.3248 0.0944,0.61711 0.28313,0.87694 0.18874,0.26912 0.48474,0.49183 0.88798,0.66815 0.23165,0.0928 0.91373,0.30623 2.04623,0.6403 1.6387,0.47327 2.77979,0.86302 3.42325,1.16925 0.65205,0.29695 1.16253,0.7331 1.53146,1.30845 0.36892,0.57534 0.55338,1.28988 0.55338,2.14362 0,0.83518 -0.22736,1.62395 -0.68207,2.36634 -0.44614,0.7331 -1.09391,1.3038 -1.94328,1.71211 -0.84938,0.39903 -1.81029,0.59855 -2.88274,0.59855 -1.77597,0 -3.13154,-0.39903 -4.06672,-1.19709 -0.92659,-0.79806 -1.51858,-1.98123 -1.77597,-3.54951 z m 12.1199,0 2.29074,-0.38975 c 0.1287,0.99293 0.48475,1.75387 1.06816,2.28282 0.59199,0.52895 1.41563,0.79342 2.47092,0.79342 1.06387,0 1.85319,-0.232 2.36796,-0.69598 0.51477,-0.47327 0.77217,-1.02542 0.77217,-1.65644 0,-0.56607 -0.22736,-1.01149 -0.68208,-1.33629 -0.31745,-0.22271 -1.10677,-0.50574 -2.36796,-0.84909 -1.69876,-0.46399 -2.87845,-0.86302 -3.53908,-1.19709 -0.65205,-0.34335 -1.14967,-0.81198 -1.49285,-1.40589 -0.3346,-0.60318 -0.5019,-1.26668 -0.5019,-1.9905 0,-0.65886 0.13727,-1.26669 0.41182,-1.82348 0.28312,-0.56606 0.66492,-1.03469 1.14537,-1.40588 0.36034,-0.28767 0.84938,-0.52895 1.46711,-0.72382 0.62631,-0.20416 1.29551,-0.30623 2.00762,-0.30623 1.07245,0 2.01191,0.16703 2.81839,0.5011 0.81506,0.33408 1.41563,0.78878 1.80171,1.36413 0.38608,0.56606 0.65205,1.327 0.7979,2.28282 l -2.265,0.33407 c -0.10296,-0.76094 -0.40325,-1.35484 -0.90086,-1.78171 -0.48904,-0.42687 -1.18398,-0.6403 -2.08484,-0.6403 -1.06387,0 -1.82316,0.19023 -2.27788,0.5707 -0.45472,0.38047 -0.68207,0.8259 -0.68207,1.33628 0,0.3248 0.0944,0.61711 0.28312,0.87694 0.18875,0.26912 0.48475,0.49183 0.88799,0.66815 0.23165,0.0928 0.91372,0.30623 2.04623,0.6403 1.6387,0.47327 2.77978,0.86302 3.42325,1.16925 0.65205,0.29695 1.16253,0.7331 1.53146,1.30845 0.36892,0.57534 0.55338,1.28988 0.55338,2.14362 0,0.83518 -0.22736,1.62395 -0.68208,2.36634 -0.44614,0.7331 -1.0939,1.3038 -1.94327,1.71211 -0.84938,0.39903 -1.81029,0.59855 -2.88274,0.59855 -1.77597,0 -3.13155,-0.39903 -4.06672,-1.19709 -0.92659,-0.79806 -1.51859,-1.98123 -1.77597,-3.54951 z m 12.18424,-2.9788 c 0,-2.73753 0.70353,-4.76516 2.11058,-6.08288 1.1754,-1.09501 2.60819,-1.64252 4.29837,-1.64252 1.87892,0 3.41467,0.66814 4.60723,2.00443 1.19256,1.327 1.78884,3.1644 1.78884,5.51217 0,1.90235 -0.26596,3.40104 -0.7979,4.49605 -0.52335,1.08573 -1.29123,1.93019 -2.30362,2.53337 -1.00381,0.60318 -2.10199,0.90478 -3.29455,0.90478 -1.91325,0 -3.46186,-0.6635 -4.64584,-1.99051 -1.1754,-1.32701 -1.76311,-3.23864 -1.76311,-5.73489 z m 2.38083,0 c 0,1.89307 0.38179,3.31287 1.14538,4.2594 0.76358,0.93726 1.72449,1.40589 2.88274,1.40589 1.14966,0 2.10628,-0.47327 2.86987,-1.4198 0.76358,-0.94654 1.14537,-2.38954 1.14537,-4.32901 0,-1.82811 -0.38608,-3.2108 -1.15824,-4.14805 -0.76359,-0.94653 -1.71592,-1.4198 -2.857,-1.4198 -1.15825,0 -2.11916,0.46863 -2.88274,1.40588 -0.76359,0.93726 -1.14538,2.35241 -1.14538,4.24549 z m 23.11643,1.97658 2.27787,0.32016 c -0.24881,1.69819 -0.88799,3.02984 -1.91753,3.99494 -1.02097,0.95581 -2.27788,1.43372 -3.77073,1.43372 -1.87034,0 -3.37606,-0.65886 -4.51714,-1.97659 -1.13251,-1.32701 -1.69876,-3.22472 -1.69876,-5.69313 0,-1.59612 0.24452,-2.99273 0.73355,-4.18981 0.48904,-1.19709 1.23117,-2.09259 2.2264,-2.68649 1.00381,-0.60319 2.09342,-0.90478 3.26882,-0.90478 1.48427,0 2.69828,0.40831 3.64203,1.22493 0.94376,0.80733 1.54861,1.95803 1.81458,3.45207 l -2.25214,0.37583 c -0.21449,-0.99293 -0.59628,-1.73996 -1.14537,-2.24106 -0.54051,-0.50111 -1.19685,-0.75166 -1.96901,-0.75166 -1.16683,0 -2.11487,0.4547 -2.84413,1.36412 -0.72927,0.90014 -1.0939,2.32922 -1.0939,4.28725 0,1.98586 0.35176,3.42887 1.05529,4.329 0.70352,0.90014 1.62154,1.35021 2.75405,1.35021 0.90943,0 1.66872,-0.30159 2.27787,-0.90478 0.60915,-0.60318 0.99524,-1.53116 1.15825,-2.78393 z m 4.8018,-12.11008 v -2.88136 h 2.31648 v 2.88136 z m 0,17.52483 v -14.78266 h 2.31648 v 14.78266 z m 14.76117,-1.82348 c -0.85796,0.78878 -1.68589,1.34557 -2.48379,1.67036 -0.78932,0.32479 -1.6387,0.48719 -2.54813,0.48719 -1.50143,0 -2.65538,-0.39439 -3.46186,-1.18317 -0.80648,-0.79806 -1.20972,-1.8142 -1.20972,-3.04841 0,-0.72382 0.15014,-1.38268 0.45043,-1.97658 0.30886,-0.60318 0.70781,-1.08573 1.19685,-1.44764 0.49761,-0.36192 1.05529,-0.63567 1.67302,-0.82126 0.45471,-0.12992 1.14108,-0.2552 2.05909,-0.37583 1.87035,-0.24127 3.24737,-0.52895 4.13107,-0.86302 0.009,-0.34335 0.0129,-0.56142 0.0129,-0.65422 0,-1.02078 -0.21878,-1.73996 -0.65634,-2.15755 -0.59199,-0.56606 -1.4714,-0.84909 -2.63822,-0.84909 -1.08961,0 -1.89609,0.20879 -2.41944,0.62638 -0.51478,0.40831 -0.89657,1.13677 -1.14537,2.18538 l -2.26501,-0.33407 c 0.2059,-1.04861 0.5448,-1.89307 1.01668,-2.53337 0.47187,-0.64958 1.15395,-1.14605 2.04622,-1.4894 0.89228,-0.35264 1.92612,-0.52895 3.10152,-0.52895 1.16683,0 2.11487,0.14847 2.84414,0.44543 0.72926,0.29695 1.26548,0.67278 1.60866,1.12749 0.34319,0.44543 0.58342,1.01149 0.72069,1.69819 0.0772,0.42687 0.11582,1.1971 0.11582,2.31067 v 3.34071 c 0,2.32922 0.0472,3.8047 0.14157,4.42644 0.10295,0.61247 0.30028,1.20173 0.59199,1.7678 h -2.41944 c -0.24023,-0.51967 -0.39467,-1.1275 -0.4633,-1.82348 z m -0.19304,-5.59569 c -0.8408,0.37119 -2.102,0.6867 -3.7836,0.94653 -0.95233,0.14848 -1.62583,0.31551 -2.02048,0.50111 -0.39467,0.1856 -0.69924,0.45935 -0.91373,0.82126 -0.21449,0.35263 -0.32173,0.74702 -0.32173,1.18317 0,0.66814 0.23165,1.22493 0.69494,1.67035 0.47188,0.44543 1.15824,0.66815 2.0591,0.66815 0.89227,0 1.68588,-0.2088 2.38084,-0.62639 0.69494,-0.42686 1.20542,-1.00685 1.53145,-1.73995 0.2488,-0.56607 0.37321,-1.40125 0.37321,-2.50554 z m 11.5196,5.1781 0.3346,2.21322 c -0.65205,0.14848 -1.23546,0.22272 -1.75023,0.22272 -0.8408,0 -1.49285,-0.14384 -1.95615,-0.43151 -0.46329,-0.28767 -0.78932,-0.6635 -0.97807,-1.12749 -0.18875,-0.47327 -0.28312,-1.46156 -0.28312,-2.96488 v -8.5049 h -1.69876 v -1.94875 h 1.69876 v -3.66086 l 2.30362,-1.50333 v 5.16419 h 2.32935 v 1.94875 h -2.32935 v 8.64409 c 0,0.71455 0.0386,1.17389 0.11582,1.37805 0.0858,0.20415 0.21878,0.36655 0.39895,0.48719 0.18875,0.12063 0.45472,0.18095 0.7979,0.18095 0.25738,0 0.59628,-0.0325 1.01668,-0.0974 z m 4.39453,-15.28376 v -2.88136 h 2.31649 v 2.88136 z m 0,17.52483 v -14.78266 h 2.31649 v 14.78266 z m 6.03879,-7.39133 c 0,-2.73753 0.70353,-4.76516 2.11058,-6.08288 1.1754,-1.09501 2.60819,-1.64252 4.29837,-1.64252 1.87892,0 3.41466,0.66814 4.60723,2.00443 1.19256,1.327 1.78884,3.1644 1.78884,5.51217 0,1.90235 -0.26597,3.40104 -0.7979,4.49605 -0.52335,1.08573 -1.29123,1.93019 -2.30362,2.53337 -1.00381,0.60318 -2.10199,0.90478 -3.29455,0.90478 -1.91325,0 -3.46187,-0.6635 -4.64585,-1.99051 -1.1754,-1.32701 -1.7631,-3.23864 -1.7631,-5.73489 z m 2.38083,0 c 0,1.89307 0.38179,3.31287 1.14538,4.2594 0.76358,0.93726 1.72449,1.40589 2.88274,1.40589 1.14966,0 2.10628,-0.47327 2.86987,-1.4198 0.76357,-0.94654 1.14537,-2.38954 1.14537,-4.32901 0,-1.82811 -0.38608,-3.2108 -1.15825,-4.14805 -0.76358,-0.94653 -1.71591,-1.4198 -2.85699,-1.4198 -1.15825,0 -2.11916,0.46863 -2.88274,1.40588 -0.76359,0.93726 -1.14538,2.35241 -1.14538,4.24549 z m 15.25628,7.39133 v -14.78266 h 2.08484 v 2.10186 c 1.00381,-1.62395 2.45376,-2.43593 4.34985,-2.43593 0.82365,0 1.57867,0.16239 2.26499,0.48719 0.69497,0.31551 1.21406,0.7331 1.55722,1.25276 0.34316,0.51967 0.58339,1.13677 0.72067,1.85132 0.0858,0.46398 0.12869,1.27596 0.12869,2.43593 v 9.08953 h -2.31649 v -8.99209 c 0,-1.02077 -0.0901,-1.78171 -0.27027,-2.28282 -0.18013,-0.51039 -0.50185,-0.91406 -0.96519,-1.21101 -0.4547,-0.30623 -0.99093,-0.45935 -1.60866,-0.45935 -0.98664,0 -1.84031,0.33871 -2.561,1.01614 -0.7121,0.67742 -1.06816,1.96266 -1.06816,3.85574 v 8.07339 z"
       id="text11"
       aria-label="IT &amp; Business Process Association"
       sodipodi:nodetypes="ccccccccccccccccscsccsscscsccccccccccscscsccccccsssccccsccssccscscsccsccsccscccscscsccsccccscccsccsccsccscccccccscsccccscccscccccsssccccssccsccccccccccccccccscscsccsccscsccccsscsssssccsssccccscccccscsccccscccscccccsssccccssccscccccscsccccscccscccccsssccccssccsccccscccscsccccsssccscccccccsccsccsccscscsccscsscssscssscccscsscsccccscsssscccsscsssssccsssccccscccccscsccccscccscccccsssccccssccscccccscsccccscccscccccsssccccssccsccccccccccccccccccccscsccccscccscccccsssccccssccscccccscsccccscccscccccsssccccssccsccscscsccscsscssscssscccscsscsccccscsssscccccccccccccscscccccscscccccssccssccccccscscsccscccsscsccccccccccsccscccccccccccscscsccscsscssscsssccccscscsccsccscscc" /><path
       style="font-weight:bold;font-size:533.333px;line-height:1;font-family:Arial;-inkscape-font-specification:Arial;text-align:center;letter-spacing:0px;text-anchor:middle;white-space:pre;opacity:1;fill:#b30e12;fill-opacity:1;stroke-width:0.772118;stroke-linecap:round;stroke-linejoin:round;paint-order:markers stroke fill"
       d="M 323.76121,573.92264 V 553.5881 h 8.65241 c 4.08092,0 5.68272,0.10171 6.92212,0.30515 1.90443,0.30516 3.499,0.97095 4.78374,1.99739 1.28472,1.01719 1.92709,2.33492 1.92709,3.95317 0,1.24837 -0.37031,2.29793 -1.11092,3.14867 -0.74062,0.85073 -1.68526,1.52116 -2.83396,2.01126 -1.13359,0.48085 -2.28985,0.79988 -3.46877,0.95708 -1.60214,0.19419 -2.86389,0.29129 -5.9019,0.29129 h -2.25897 v 7.67053 z m 6.71084,-16.8946 v 5.77025 h 1.55615 c 2.64504,0 3.3551,-0.10635 4.24685,-0.31903 0.89175,-0.21269 1.58702,-0.54559 2.08581,-0.9987 0.51388,-0.45311 0.77083,-0.9802 0.77083,-1.58127 0,-0.73977 -0.35519,-1.35008 -1.06557,-1.83093 -0.71038,-0.48086 -1.60969,-0.78139 -2.69793,-0.90161 -0.80107,-0.0925 -1.35243,-0.13871 -3.77075,-0.13871 z m 33.27725,16.8946 V 553.5881 h 6.71083 v 8.00343 h 13.1496 v -8.00343 h 6.71083 v 20.33454 h -6.71083 v -8.89116 h -13.1496 v 8.89116 z m 47.0631,0 V 553.5881 h 6.71083 v 20.33454 z m 27.57313,0 v -20.1681 h 6.71083 v 16.74202 h 16.68639 v 3.42608 z m 39.08942,0 V 553.5881 h 6.71083 v 20.33454 z m 27.39176,0 V 553.5881 h 8.65241 c 4.0809,0 5.15355,0.10171 6.39294,0.30515 1.90443,0.30516 3.49901,0.97095 4.78374,1.99739 1.28473,1.01719 1.92709,2.33492 1.92709,3.95317 0,1.24837 -0.3703,2.29793 -1.11091,3.14867 -0.74061,0.85073 -1.68526,1.52116 -2.83397,2.01126 -1.13358,0.48085 -2.28984,0.79988 -3.46877,0.95708 -1.60214,0.19419 -2.33471,0.29129 -5.37272,0.29129 h -2.25898 v 7.67053 z m 6.71083,-16.8946 v 5.77025 h 1.55616 c 2.64503,0 2.82593,-0.10635 3.71768,-0.31903 0.89175,-0.21269 1.58702,-0.54559 2.0858,-0.9987 0.51389,-0.45311 0.77083,-0.9802 0.77083,-1.58127 0,-0.73977 -0.35518,-1.35008 -1.06556,-1.83093 -0.71038,-0.48086 -1.6097,-0.78139 -2.69794,-0.90161 -0.80107,-0.0925 -0.82326,-0.13871 -3.24158,-0.13871 z m 34.84208,16.8946 V 553.5881 h 8.65241 c 4.0809,0 5.15355,0.10171 6.39294,0.30515 1.90443,0.30516 3.49901,0.97095 4.78374,1.99739 1.28473,1.01719 1.92709,2.33492 1.92709,3.95317 0,1.24837 -0.3703,2.29793 -1.11092,3.14867 -0.7406,0.85073 -1.68526,1.52116 -2.83396,2.01126 -1.13359,0.48085 -2.28985,0.79988 -3.46877,0.95708 -1.60214,0.19419 -2.33471,0.29129 -5.37272,0.29129 h -2.25898 v 7.67053 z m 6.71083,-16.8946 v 5.77025 h 1.55616 c 2.64503,0 2.82592,-0.10635 3.71767,-0.31903 0.89176,-0.21269 1.58703,-0.54559 2.08581,-0.9987 0.51388,-0.45311 0.77083,-0.9802 0.77083,-1.58127 0,-0.73977 -0.35519,-1.35008 -1.06557,-1.83093 -0.71038,-0.48086 -1.60969,-0.78139 -2.69793,-0.90161 -0.80107,-0.0925 -0.82326,-0.13871 -3.24157,-0.13871 z m 35.16721,16.8946 V 553.5881 h 6.71082 v 20.33454 z m 27.45977,0 V 553.5881 h 6.52945 l 13.60304,13.57948 V 553.5881 h 6.23473 v 20.33454 h -6.73351 l -13.39899,-13.26046 v 13.26046 z m 47.2218,0 V 553.5881 h 18.82334 v 3.43994 h -12.11251 v 4.50801 h 10.86556 v 3.42608 h -10.86556 v 5.53443 h 12.74731 v 3.42608 z m 36.14837,-6.61636 6.52945,-0.38838 c 0.39299,1.34084 1.1865,2.32567 2.38054,2.95448 1.20916,0.6288 2.83397,0.94321 4.87442,0.94321 2.16137,0 3.78618,-0.27742 4.87442,-0.83225 1.10336,-0.56408 1.65504,-1.22062 1.65504,-1.96965 0,-0.48085 -0.23427,-0.88773 -0.70282,-1.22063 -0.45344,-0.34214 -1.25451,-0.63805 -2.40321,-0.88772 -0.78596,-0.16645 -2.57702,-0.46236 -5.3732,-0.88773 -3.59725,-0.54558 -6.12136,-1.216 -7.57236,-2.01126 -2.04044,-1.11891 -3.06068,-2.48287 -3.06068,-4.09188 0,-1.03569 0.47611,-2.00201 1.42832,-2.89899 0.96732,-0.90623 2.3503,-1.59514 4.14892,-2.06674 1.81375,-0.47161 3.99779,-0.70741 6.55213,-0.70741 4.1716,0 7.30786,0.55945 9.40877,1.67836 2.11603,1.11891 3.22694,2.61233 3.33275,4.48026 l -6.71083,0.18032 c -0.28718,-1.04493 -0.90687,-1.79396 -1.85909,-2.24707 -0.93709,-0.46235 -2.3503,-0.69353 -4.23961,-0.69353 -1.94977,0 -3.47633,0.24505 -4.57969,0.73514 -0.71038,0.31441 -1.06557,0.73516 -1.06557,1.26224 0,0.48086 0.33252,0.89236 0.99755,1.2345 0.84642,0.43462 2.90199,0.88773 6.16671,1.35934 3.26473,0.47161 5.6755,0.96171 7.23228,1.4703 1.57192,0.49935 2.79619,1.18826 3.67283,2.06674 0.89176,0.86924 1.33763,1.94654 1.33763,3.23189 0,1.16515 -0.52901,2.25632 -1.58702,3.27351 -1.05802,1.01718 -2.55436,1.77545 -4.48901,2.2748 -1.93465,0.4901 -4.34541,0.73515 -7.23227,0.73515 -4.20183,0 -7.42877,-0.59182 -9.68084,-1.77546 -2.25205,-1.19288 -3.59723,-2.92673 -4.03556,-5.20154 z"
       id="text12"
       aria-label="PHILIPPINES"
       sodipodi:nodetypes="ccsccssccscccccsscsscscccccccccccccccccccccccccccccccccsccssccscccccsscsscscccsccssccscccccsscsscscccccccccccccccccccccccccccccccccscsccccsccsccccscscsccsscscc" /><rect
       style="opacity:1;fill:#b40e12;fill-opacity:1;stroke:none;stroke-width:3;stroke-linecap:round;stroke-linejoin:round;stroke-dasharray:none;stroke-opacity:1;paint-order:markers stroke fill"
       id="rect13"
       width="401.30026"
       height="6.0812659"
       x="323.34247"
       y="512.22614" /></g></svg>
