<?xml version="1.0" encoding="UTF-8" standalone="no"?>
<!-- Created with Inkscape (http://www.inkscape.org/) -->

<svg
   width="392"
   height="396.19104"
   viewBox="0 0 392 396.19103"
   id="svg4737"
   version="1.1"
   inkscape:version="1.4 (86a8ad7, 2024-10-11)"
   sodipodi:docname="tesda-logo.svg"
   xmlns:inkscape="http://www.inkscape.org/namespaces/inkscape"
   xmlns:sodipodi="http://sodipodi.sourceforge.net/DTD/sodipodi-0.dtd"
   xmlns="http://www.w3.org/2000/svg"
   xmlns:svg="http://www.w3.org/2000/svg"
   xmlns:rdf="http://www.w3.org/1999/02/22-rdf-syntax-ns#"
   xmlns:cc="http://creativecommons.org/ns#"
   xmlns:dc="http://purl.org/dc/elements/1.1/">
  <title
     id="title5635">Technical Education and Skills Development Authority (TESDA) Philippines</title>
  <defs
     id="defs4739" />
  <sodipodi:namedview
     id="base"
     pagecolor="#ffffff"
     bordercolor="#666666"
     borderopacity="1.0"
     inkscape:pageopacity="0.0"
     inkscape:pageshadow="2"
     inkscape:zoom="1.0367347"
     inkscape:cx="195.3248"
     inkscape:cy="244.51772"
     inkscape:document-units="px"
     inkscape:current-layer="g5621"
     showgrid="false"
     inkscape:snap-global="false"
     fit-margin-top="0"
     fit-margin-left="0"
     fit-margin-right="0"
     fit-margin-bottom="0"
     units="px"
     inkscape:window-width="1920"
     inkscape:window-height="1009"
     inkscape:window-x="-8"
     inkscape:window-y="-8"
     inkscape:window-maximized="1"
     inkscape:showpageshadow="2"
     inkscape:pagecheckerboard="0"
     inkscape:deskcolor="#d1d1d1" />
  <metadata
     id="metadata4742">
    <rdf:RDF>
      <cc:Work
         rdf:about="">
        <dc:format>image/svg+xml</dc:format>
        <dc:type
           rdf:resource="http://purl.org/dc/dcmitype/StillImage" />
        <dc:title>Technical Education and Skills Development Authority (TESDA) Philippines</dc:title>
      </cc:Work>
    </rdf:RDF>
  </metadata>
  <g
     inkscape:label="Layer 1"
     inkscape:groupmode="layer"
     id="layer1"
     transform="translate(-25.409848,-455.84701)">
    <g
       id="g5621"
       transform="matrix(0.56148782,0,0,0.56691513,11.142528,409.632)">
      <path
         inkscape:transform-center-y="-262.85712"
         inkscape:transform-center-x="-5.7142857"
         sodipodi:nodetypes="csccsccaccscczccsccsccsccsccscc"
         inkscape:connector-curvature="0"
         id="path4756"
         d="m 176.07143,288.43361 c 0,0 68.79775,-99.15357 198.00508,-100.27048 134.61291,-1.16364 200.2092,100.98477 200.2092,100.98477 l 82.85715,-61.78572 c 0,0 -12.68347,-19.00727 -24.53383,-32.68133 -14.9972,-17.30518 -24.45602,-23.19883 -24.45602,-23.19883 l -38.23967,34.53825 c 0,0 -11.59807,-11.65217 -18.14431,-16.57786 -6.73516,-5.06784 -21.55982,-13.21294 -21.55982,-13.21294 l 20.3392,-44.49492 c 0,0 -14.78802,-11.81999 -33.69409,-19.76471 -20.55353,-8.63702 -36.14003,-11.9164 -36.14003,-11.9164 L 460.25254,145.176 c 0,0 -6.58205,-4.89556 -23.39078,-7.77674 -16.80873,-2.88118 -24.28779,-0.87391 -24.28779,-0.87391 l 0.16063,-50.887607 c 0,0 -17.75022,-3.937945 -38.64739,-4.111977 -22.16772,-0.184614 -37.70196,4.241964 -37.70196,4.241964 l -0.16588,50.25254 c 0,0 -19.22591,2.00676 -26.31662,3.62785 -8.53899,1.9522 -20.57371,6.83389 -20.57371,6.83389 l -21.4719,-46.26269 c 0,0 -23.45104,8.76265 -34.92403,13.90159 -11.38416,5.09916 -32.88979,18.07539 -32.88979,18.07539 l 19.66082,44.4516 c 0,0 -14.58837,7.34538 -20.73088,11.77063 -6.73194,4.84989 -17.54469,16.08651 -17.54469,16.08651 l -40.71428,-32.14286 c 0,0 -11.74742,8.34074 -25.9754,25.48908 -14.20516,17.12085 -23.310318,31.65378 -23.310318,31.65378 z"
         style="fill:#0038a8;fill-opacity:1;fill-rule:evenodd;stroke:none;stroke-width:1px;stroke-linecap:butt;stroke-linejoin:miter;stroke-opacity:1" />
      <path
         inkscape:transform-center-y="114.82749"
         inkscape:transform-center-x="-196.44619"
         sodipodi:nodetypes="csccsccaccscczccsccsccsccsccscc"
         inkscape:connector-curvature="0"
         id="path4756-9"
         d="m 600.14506,331.05544 c 0,0 51.47063,109.15738 -12.16576,221.61267 -66.29871,117.16001 -187.55998,122.89386 -187.55998,122.89386 l 12.07943,102.64926 c 0,0 22.80251,-1.48057 40.56978,-4.90625 22.48531,-4.33538 32.31878,-9.58013 32.31878,-9.58013 L 474.59615,713.3392 c 0,0 15.89011,-4.21813 23.429,-7.4245 7.75646,-3.2989 22.22264,-12.06489 22.22264,-12.06489 l 28.36413,39.86173 c 0,0 17.63043,-6.89681 33.96379,-19.29758 17.75664,-13.48137 28.38992,-25.33999 28.38992,-25.33999 L 582.11922,648.7923 c 0,0 7.53071,-3.25245 18.43025,-16.36864 10.89954,-13.1162 12.90072,-20.59689 12.90072,-20.59689 l 43.98965,25.58291 c 0,0 12.28547,-13.40317 22.88477,-31.41363 11.24374,-19.1055 15.17733,-34.77184 15.17733,-34.77184 L 652.0649,545.95429 c 0,0 7.87505,-17.65351 10.0165,-24.60479 2.57884,-8.37108 4.36853,-21.2343 4.36853,-21.2343 l 50.80062,4.53613 c 0,0 4.13684,-24.69052 5.42288,-37.19589 1.27608,-12.40855 0.79115,-37.52109 0.79115,-37.52109 l -48.32662,-5.19903 c 0,0 0.93291,-16.30658 0.17178,-23.83878 -0.83416,-8.25497 -5.15898,-23.2374 -5.15898,-23.2374 l 48.19366,-19.18818 c 0,0 -1.34958,-14.34393 -9.08648,-35.23989 -7.72451,-20.86245 -15.75782,-36.01421 -15.75782,-36.01421 z"
         style="fill:#0038a8;fill-opacity:1;fill-rule:evenodd;stroke:none;stroke-width:1px;stroke-linecap:butt;stroke-linejoin:miter;stroke-opacity:1" />
      <path
         inkscape:transform-center-y="104.93005"
         inkscape:transform-center-x="204.24959"
         sodipodi:nodetypes="csccsccaccscczccsccsccsccsccscc"
         inkscape:connector-curvature="0"
         id="path4756-8"
         d="m 349.70085,677.60721 c 0,0 -120.26838,-10.00382 -185.83932,-121.34219 C 95.547334,440.26864 151.21231,332.38638 151.21231,332.38638 L 56.275729,291.52284 c 0,0 -10.119044,20.48784 -16.035947,37.58759 -7.488117,21.64054 -7.862758,32.77894 -7.862758,32.77894 l 49.030829,15.84741 c 0,0 -4.292041,15.87031 -5.284693,24.00236 -1.021299,8.36674 -0.662823,25.27782 -0.662823,25.27782 l -48.703332,4.63319 c 0,0 -2.842401,18.7168 -0.269695,39.0623 2.796886,22.11839 7.750109,37.25638 7.750109,37.25638 l 49.308159,-4.84088 c 0,0 -0.948655,8.148 4.960535,24.14538 5.90919,15.99737 11.387067,21.47079 11.387067,21.47079 l -44.150278,25.3047 c 0,0 5.46475,17.34111 15.762619,35.52561 10.923979,19.29011 22.524628,30.52987 22.524628,30.52987 l 43.602921,-24.98261 c 0,0 11.35086,15.64674 16.30012,20.97693 5.96015,6.41889 16.20518,14.40041 16.20518,14.40041 l -29.32872,41.72656 c 0,0 19.3142,15.92787 29.50115,23.2943 10.10808,7.30939 32.09864,19.4457 32.09864,19.4457 l 28.6658,-39.25257 c 0,0 13.65547,8.96122 20.5591,12.06816 7.5661,3.40509 22.70367,7.15089 22.70367,7.15089 l -7.47938,51.33103 c 0,0 13.097,6.00319 35.06188,9.75082 21.92967,3.7416 39.06813,4.36044 39.06813,4.36044 z"
         style="fill:#0038a8;fill-opacity:1;fill-rule:evenodd;stroke:none;stroke-width:1px;stroke-linecap:butt;stroke-linejoin:miter;stroke-opacity:1" />
      <path
         sodipodi:nodetypes="cscccsccc"
         inkscape:connector-curvature="0"
         id="path4998"
         d="m 178.29192,345.76048 c 0,0 -9.96727,17.42791 -14.39466,30.5571 -4.42152,13.11176 -3.53554,28.03175 -3.53554,28.03175 l 79.04443,56.06346 v 139.40105 c 0,0 17.34725,13.55556 26.76905,19.1929 8.85183,5.29631 27.77919,13.63706 27.77919,13.63706 l -0.50508,-206.5762 z"
         style="fill:#0038a8;fill-opacity:1;fill-rule:evenodd;stroke:none;stroke-width:1px;stroke-linecap:butt;stroke-linejoin:miter;stroke-opacity:1" />
      <path
         sodipodi:nodetypes="cscccsccc"
         inkscape:connector-curvature="0"
         id="path4998-6"
         d="m 571.0412,346.41349 c 0,0 7.96445,15.86704 12.5223,30.49582 2.97245,9.54032 3.68347,29.10318 3.68347,29.10318 l -79.10571,55.41044 v 139.40105 c 0,0 -11.27582,11.4127 -20.69762,17.05004 -8.85183,5.29631 -32.42205,14.70849 -32.42205,14.70849 l 0.50508,-206.57619 z"
         style="fill:#0038a8;fill-opacity:1;fill-rule:evenodd;stroke:none;stroke-width:1px;stroke-linecap:butt;stroke-linejoin:miter;stroke-opacity:1" />
      <path
         sodipodi:nodetypes="cscccacccsccc"
         inkscape:connector-curvature="0"
         id="path5015"
         d="m 340.71429,645.93361 c 0,0 21.62934,2.98766 33.57142,2.85714 11.72655,-0.12817 35,-2.85713 35,-2.85713 l 1.42858,-243.57144 138.21428,-96.42857 c 0,0 -15.171,-21.90455 -24.64285,-31.15809 -7.46423,-7.29219 -25.00001,-18.84191 -25.00001,-18.84191 l -125,87.85715 L 250,257.36218 c 0,0 -16.23915,8.43713 -27.02031,20.20921 -12.52179,13.67269 -22.62254,28.71936 -22.62254,28.71936 l 140.35714,96.78572 z"
         style="fill:#0038a8;fill-opacity:1;fill-rule:evenodd;stroke:none;stroke-width:1px;stroke-linecap:butt;stroke-linejoin:miter;stroke-opacity:1" />
      <circle
         r="47.513268"
         cy="265.43054"
         cx="374.80975"
         id="path5017"
         style="color:#000000;clip-rule:nonzero;display:inline;overflow:visible;visibility:visible;opacity:1;isolation:auto;mix-blend-mode:normal;color-interpolation:sRGB;color-interpolation-filters:linearRGB;solid-color:#000000;solid-opacity:1;fill:#0038a8;fill-opacity:1;fill-rule:nonzero;stroke:none;stroke-width:0.973465;stroke-linecap:round;stroke-linejoin:round;stroke-miterlimit:4;stroke-dasharray:none;stroke-dashoffset:0;stroke-opacity:1;color-rendering:auto;image-rendering:auto;shape-rendering:auto;text-rendering:auto;enable-background:accumulate" />
    </g>
  </g>
</svg>
