<?xml version="1.0" encoding="UTF-8" standalone="no"?>
<!-- Created with Inkscape (http://www.inkscape.org/) -->

<svg
   width="350.31018"
   height="87.441414"
   viewBox="0 0 92.686232 23.135539"
   version="1.1"
   id="svg1"
   xml:space="preserve"
   inkscape:version="1.4.3 (1:1.4.3+202512261034+0d15f75042)"
   sodipodi:docname="ched-only.svg"
   xmlns:inkscape="http://www.inkscape.org/namespaces/inkscape"
   xmlns:sodipodi="http://sodipodi.sourceforge.net/DTD/sodipodi-0.dtd"
   xmlns:xlink="http://www.w3.org/1999/xlink"
   xmlns="http://www.w3.org/2000/svg"
   xmlns:svg="http://www.w3.org/2000/svg"><sodipodi:namedview
     id="namedview1"
     pagecolor="#ffffff"
     bordercolor="#000000"
     borderopacity="0.25"
     inkscape:showpageshadow="2"
     inkscape:pageopacity="0.0"
     inkscape:pagecheckerboard="0"
     inkscape:deskcolor="#d1d1d1"
     inkscape:document-units="mm"
     inkscape:zoom="1.617789"
     inkscape:cx="196.87363"
     inkscape:cy="46.359569"
     inkscape:window-width="1314"
     inkscape:window-height="699"
     inkscape:window-x="0"
     inkscape:window-y="32"
     inkscape:window-maximized="1"
     inkscape:current-layer="layer1" /><defs
     id="defs1"><linearGradient
       inkscape:collect="always"
       xlink:href="#linearGradient218"
       id="linearGradient219"
       x1="1595.6058"
       y1="974.93384"
       x2="1689.5221"
       y2="903.49469"
       gradientUnits="userSpaceOnUse"
       gradientTransform="matrix(1.3593212,0,0,1.3593212,-2080.1969,-944.04517)" /><linearGradient
       id="linearGradient218"
       inkscape:collect="always"><stop
         style="stop-color:#629aff;stop-opacity:1;"
         offset="0"
         id="stop218" /><stop
         style="stop-color:#2cd1be;stop-opacity:1;"
         offset="1"
         id="stop219" /></linearGradient></defs><g
     inkscape:label="Layer 1"
     inkscape:groupmode="layer"
     id="layer1"
     transform="translate(21.777469,-235.52718)"><path
       id="path174"
       style="fill:url(#linearGradient219);stroke-width:1.35932;paint-order:markers stroke fill"
       d="m 20.184798,235.52718 -0.05994,4.75423 -0.05943,4.75475 -5.303552,0.06 -5.3035524,0.0599 v 1.66657 1.66656 l 5.3035524,0.0599 5.303552,0.0599 0.05839,4.96817 0.06098,4.96869 h 1.784387 1.784387 l -0.05839,-11.44426 -0.05891,-11.44426 -1.725993,-0.0646 z m -20.55068396,0.0186 -5.97379554,0.004 c -8.1469535,0.005 -9.5104055,0.32235 -12.1284585,2.81947 -2.76717,2.63951 -3.91733,6.99541 -2.99775,11.35589 0.925154,4.38709 4.269097,7.94992 8.057389,8.58449 0.602452,0.101 3.7834795,0.19534 7.0688195,0.20981 l 5.97379554,0.0263 v -2.00039 -1.99988 l -6.53190104,-0.0656 c -7.397015,-0.0741 -7.484134,-0.0919 -9.253699,-1.90893 -2.277678,-2.33886 -2.684712,-6.91815 -0.882116,-9.92084 0.800096,-1.33282 2.225546,-2.51397 3.442683,-2.85202 0.48052,-0.13348 3.448355,-0.23181 7.0279953,-0.23254 l 6.19703774,-5.2e-4 v -2.0097 z m 3.12590736,0 v 4.57801 4.57802 h -4.5661295 -4.5666464 l 0.3240113,0.77411 c 0.41527,0.99369 0.4113642,2.0877 -0.013436,3.09904 -0.18419,0.44091 -0.3348633,0.85499 -0.3348633,0.92035 0,0.0654 2.0597584,0.11834 4.5774984,0.11834 h 4.5774984 v 4.4664 4.46639 H 4.5444086 6.3308629 V 247.04638 235.54579 H 4.5444086 Z m 46.7382326,0.1111 v 0.001 h -1.074353 v 11.50008 11.50007 h 1.074353 0.05684 l 5.065324,-10e-4 c 2.73332,-7.2e-4 5.42837,-0.065 6.77478,-0.15193 0.5425,-0.0262 0.971053,-0.0536 1.144633,-0.0827 3.78816,-0.63457 7.132746,-4.1974 8.057906,-8.58449 0.73933,-3.5062 0.138011,-7.00771 -1.563729,-9.61802 l 0.02997,-0.0274 -0.166398,-0.17467 c -0.38265,-0.55743 -0.814192,-1.07421 -1.298112,-1.53582 -2.61805,-2.49713 -3.981499,-2.81419 -12.128459,-2.81947 h -0.463021 l -0.05271,-0.001 -2.017448,-0.001 z m -22.735047,0.001 v 11.50266 11.50214 l 9.322946,-0.0579 9.322945,-0.0584 0.06511,-1.9544 0.06408,-1.95337 h -7.60057 -7.601086 v -7.48068 -7.48068 h 7.48068 7.48068 v -2.0097 -2.0097 h -9.267651 z m 25.234119,4.0194 h 1.860868 l 3.331063,0.0434 c 5.02664,0.0651 5.225537,0.0856 6.280237,0.62425 0.59919,0.306 1.453305,0.98101 1.898075,1.49965 l 0.809253,0.94257 v -0.001 c 1.78656,3.00303 1.377321,7.56368 -0.894519,9.89655 -0.15224,0.15629 -0.281505,0.28257 -0.414445,0.41342 -0.10195,0.0603 -0.150588,0.0895 -0.255798,0.15141 -0.74844,0.44012 -1.567258,0.87541 -2.001428,1.07022 -1.17677,0.21426 -3.035287,0.23891 -6.582027,0.2744 l -4.032829,0.0403 v -7.48637 z m -61.7864094,4.39456 v 5.2e-4 c -0.4515696,-0.008 -0.9256406,0.0779 -1.3973306,0.27492 -1.296384,0.54169 -2.075294,2.25334 -1.685169,3.7021 0.254737,0.94579 1.232709,1.95642 2.145089,2.21691 1.9802603,0.56534 3.8845175,-0.96799 3.8845175,-3.12745 0,-1.71497 -1.2302273,-2.93469 -2.7553873,-3.05718 -0.0639,-0.005 -0.1278296,-0.008 -0.1917196,-0.01 z m 43.2516234,1.18701 v 1.67535 1.67483 h 5.294251 6.541202 v -1.67483 -1.67535 h -6.541202 z" /></g></svg>
