<?xml version="1.0" encoding="UTF-8" standalone="no"?>
<!-- Created with Inkscape (http://www.inkscape.org/) -->

<svg
   width="102.46661mm"
   height="33.269291mm"
   viewBox="0 0 102.46661 33.269291"
   version="1.1"
   id="svg1"
   inkscape:version="1.4.3 (1:1.4.3+202512261034+0d15f75042)"
   sodipodi:docname="ched-box.svg"
   xml:space="preserve"
   xmlns:inkscape="http://www.inkscape.org/namespaces/inkscape"
   xmlns:sodipodi="http://sodipodi.sourceforge.net/DTD/sodipodi-0.dtd"
   xmlns:xlink="http://www.w3.org/1999/xlink"
   xmlns="http://www.w3.org/2000/svg"
   xmlns:svg="http://www.w3.org/2000/svg"><sodipodi:namedview
     id="namedview1"
     pagecolor="#ffffff"
     bordercolor="#000000"
     borderopacity="0.25"
     inkscape:showpageshadow="2"
     inkscape:pageopacity="0.0"
     inkscape:pagecheckerboard="0"
     inkscape:deskcolor="#d1d1d1"
     inkscape:document-units="mm"
     inkscape:zoom="1.0444209"
     inkscape:cx="450.48887"
     inkscape:cy="81.384811"
     inkscape:window-width="1314"
     inkscape:window-height="699"
     inkscape:window-x="0"
     inkscape:window-y="32"
     inkscape:window-maximized="1"
     inkscape:current-layer="layer1" /><defs
     id="defs1"><linearGradient
       inkscape:collect="always"
       xlink:href="#linearGradient218"
       id="linearGradient219"
       x1="1595.6058"
       y1="974.93384"
       x2="1689.5221"
       y2="903.49469"
       gradientUnits="userSpaceOnUse"
       gradientTransform="matrix(1.3593212,0,0,1.3593212,-2053.5277,-1174.7959)" /><linearGradient
       id="linearGradient218"
       inkscape:collect="always"><stop
         style="stop-color:#629aff;stop-opacity:1;"
         offset="0"
         id="stop218" /><stop
         style="stop-color:#2cd1be;stop-opacity:1;"
         offset="1"
         id="stop219" /></linearGradient></defs><g
     inkscape:label="Layer 1"
     inkscape:groupmode="layer"
     id="layer1"
     transform="translate(-85.109763,-91.117379)"><path
       id="path174"
       style="fill:url(#linearGradient219);stroke-width:1.35932;paint-order:markers stroke fill"
       d="m 90.071217,91.117379 c -2.733459,0 -4.961454,2.22805 -4.961454,4.961454 v 23.346377 c 0,2.73339 2.227995,4.96146 4.961454,4.96146 h 92.544223 c 2.73346,0 4.96094,-2.22807 4.96094,-4.96146 v -3.67729 -2.68304 -10.62623 -2.454112 -3.905705 c 0,-2.733404 -2.22748,-4.961454 -4.96094,-4.961454 z m 0,1.767334 h 92.544223 c 1.78492,0 3.19464,1.409128 3.19464,3.19412 v 3.905705 h -0.0284 v 15.763382 h 0.0284 v 3.67729 c 0,1.78498 -1.40972,3.19464 -3.19464,3.19464 H 90.071217 c -1.784925,0 -3.19412,-1.40966 -3.19412,-3.19464 V 96.078833 c 0,-1.784992 1.409195,-3.19412 3.19412,-3.19412 z" /></g></svg>
