<?xml version="1.0" encoding="UTF-8" standalone="no"?>
<!-- Created with Inkscape (http://www.inkscape.org/) -->

<svg
   width="41.844753mm"
   height="41.844753mm"
   viewBox="0 0 41.844753 41.844753"
   version="1.1"
   id="svg1"
   inkscape:version="1.4 (86a8ad7, 2024-10-11)"
   sodipodi:docname="favicon.svg"
   xmlns:inkscape="http://www.inkscape.org/namespaces/inkscape"
   xmlns:sodipodi="http://sodipodi.sourceforge.net/DTD/sodipodi-0.dtd"
   xmlns="http://www.w3.org/2000/svg"
   xmlns:svg="http://www.w3.org/2000/svg">
  <sodipodi:namedview
     id="namedview1"
     pagecolor="#ffffff"
     bordercolor="#000000"
     borderopacity="0.25"
     inkscape:showpageshadow="2"
     inkscape:pageopacity="0.0"
     inkscape:pagecheckerboard="0"
     inkscape:deskcolor="#d1d1d1"
     inkscape:document-units="mm"
     inkscape:zoom="2.0888418"
     inkscape:cx="81.624181"
     inkscape:cy="79.709244"
     inkscape:window-width="1920"
     inkscape:window-height="1009"
     inkscape:window-x="-8"
     inkscape:window-y="-8"
     inkscape:window-maximized="1"
     inkscape:current-layer="layer1" />
  <defs
     id="defs1" />
  <g
     inkscape:label="Layer 1"
     inkscape:groupmode="layer"
     id="layer1"
     transform="translate(-84.077621,-127.57763)">
    <rect
       style="fill:#1a1a1a;stroke-width:0.963289;stroke-linecap:square;stroke-linejoin:round;paint-order:fill markers stroke"
       id="rect1"
       width="41.844753"
       height="41.844753"
       x="84.077621"
       y="127.57763"
       inkscape:export-filename="C:\Users\PC\Desktop\rect1.png"
       inkscape:export-xdpi="621.57001"
       inkscape:export-ydpi="621.57001" />
    <path
       id="path2"
       style="font-weight:bold;font-size:31.75px;line-height:1.05;font-family:'Open Sans';-inkscape-font-specification:'Open Sans Bold';letter-spacing:0px;word-spacing:0px;fill:#f9f9f9;fill-opacity:1;stroke-width:6.00936;stroke-linecap:round;stroke-linejoin:round;paint-order:fill markers stroke"
       d="m 95.476207,133.77993 a 2.2132982,2.2132982 0 0 0 -2.2133,2.21332 v 25.01414 a 2.2132982,2.2132982 0 0 0 2.2133,2.21332 h 6.351703 a 2.2132982,2.2132982 0 0 0 2.2133,-2.21332 v -9.7617 c 0,-0.49315 -0.0707,-1.09923 -0.2039,-1.70677 a 8.7539042,8.7539042 0 0 0 -7.876943,-5.12621 8.7539042,8.7539042 0 0 0 8.843103,-8.6637 8.7539042,8.7539042 0 0 0 8.66443,8.84308 8.7539042,8.7539042 0 0 0 -8.05202,5.13125 c -0.10772,0.54502 -0.16356,1.08036 -0.16356,1.52381 v 9.76024 a 2.2132982,2.2132982 0 0 0 2.2133,2.21332 h 7.57146 a 1.2324618,1.2324618 0 0 0 1.04757,-1.88116 l -4.00367,-6.46338 c -0.64374,-1.03913 -0.26371,-2.32897 0.6441,-3.1398 0.45009,-0.40201 1.60883,-1.34953 2.32785,-2.33436 0.51324,-0.70294 1.29451,-2.23972 1.52597,-3.43598 0.20915,-1.0809 0.20883,-2.98453 0.0114,-4.18951 -0.0865,-0.52844 -0.20664,-1.02963 -0.35953,-1.50434 -0.37356,-1.16018 -1.46988,-2.86209 -2.39702,-3.6521 -0.32162,-0.27403 -0.67055,-0.52823 -1.04685,-0.76228 -1.03616,-0.64452 -2.92169,-1.31423 -4.11607,-1.56918 -1.00224,-0.21437 -2.10234,-0.36035 -3.30122,-0.43952 -1.21948,-0.0804 -3.20278,-0.0693 -4.42515,-0.0693 z" />
  </g>
</svg>
