<?xml version="1.0" encoding="UTF-8" standalone="no"?>
<!-- Created with Inkscape (http://www.inkscape.org/) -->

<svg
   width="98.595535mm"
   height="38.210655mm"
   viewBox="0 0 98.595535 38.210656"
   version="1.1"
   id="svg1"
   inkscape:version="1.4.2 (f4327f4, 2025-05-13)"
   sodipodi:docname="logo-light.svg"
   xmlns:inkscape="http://www.inkscape.org/namespaces/inkscape"
   xmlns:sodipodi="http://sodipodi.sourceforge.net/DTD/sodipodi-0.dtd"
   xmlns="http://www.w3.org/2000/svg"
   xmlns:svg="http://www.w3.org/2000/svg">
  <sodipodi:namedview
     id="namedview1"
     pagecolor="#ffffff"
     bordercolor="#000000"
     borderopacity="0.25"
     inkscape:showpageshadow="2"
     inkscape:pageopacity="0.0"
     inkscape:pagecheckerboard="0"
     inkscape:deskcolor="#d1d1d1"
     inkscape:document-units="mm"
     inkscape:zoom="2.0888419"
     inkscape:cx="156.06734"
     inkscape:cy="61.996077"
     inkscape:window-width="1920"
     inkscape:window-height="1009"
     inkscape:window-x="-8"
     inkscape:window-y="-8"
     inkscape:window-maximized="1"
     inkscape:current-layer="layer1" />
  <defs
     id="defs1">
    <rect
       x="102.23189"
       y="-75.150597"
       width="196.33939"
       height="75.150597"
       id="rect2" />
  </defs>
  <g
     inkscape:label="Layer 1"
     inkscape:groupmode="layer"
     id="layer1"
     transform="translate(-57.679167,-87.539139)">
    <g
       id="g5"
       transform="matrix(3.5727453,0,0,3.5727453,-122.57737,-922.12154)"
       style="fill:#f9f9f9">
      <path
         id="path2"
         style="font-weight:bold;font-size:31.75px;line-height:1.05;font-family:'Open Sans';-inkscape-font-specification:'Open Sans Bold';letter-spacing:0px;word-spacing:0px;fill:#f9f9f9;fill-opacity:1;stroke-width:1.682;stroke-linecap:round;stroke-linejoin:round;paint-order:fill markers stroke"
         d="m 51.072723,285.05545 a 0.61949511,0.61949511 0 0 0 -0.619494,0.6195 v 7.00138 a 0.61949511,0.61949511 0 0 0 0.619494,0.6195 h 1.777823 a 0.61949511,0.61949511 0 0 0 0.619494,-0.6195 v -2.73227 c 0,-0.13803 -0.0198,-0.30767 -0.05707,-0.47772 a 2.4501899,2.4501899 0 0 0 -2.204732,-1.43481 2.4501899,2.4501899 0 0 0 2.475157,-2.42494 2.4501899,2.4501899 0 0 0 2.425146,2.47515 2.4501899,2.4501899 0 0 0 -2.253736,1.43622 c -0.03015,0.15255 -0.04578,0.30239 -0.04578,0.42651 v 2.73186 a 0.61949511,0.61949511 0 0 0 0.619496,0.6195 h 2.119229 a 0.34496212,0.34496212 0 0 0 0.293212,-0.52653 l -1.120617,-1.80908 c -0.18018,-0.29085 -0.07381,-0.65187 0.180282,-0.87882 0.125979,-0.11252 0.450306,-0.37773 0.651559,-0.65338 0.143654,-0.19675 0.362329,-0.62689 0.427114,-0.96172 0.05854,-0.30254 0.05845,-0.83536 0.0032,-1.17263 -0.02421,-0.14791 -0.05784,-0.28819 -0.100632,-0.42106 -0.104558,-0.32473 -0.411415,-0.80109 -0.670919,-1.02221 -0.09002,-0.0767 -0.187683,-0.14785 -0.293009,-0.21336 -0.290019,-0.1804 -0.817772,-0.36785 -1.152076,-0.43921 -0.280524,-0.06 -0.588439,-0.10086 -0.923999,-0.12302 -0.34133,-0.0225 -0.896449,-0.0194 -1.238587,-0.0194 z" />
      <path
         style="font-size:120px;line-height:1.05;font-family:Rubik;-inkscape-font-specification:'Rubik Bold';letter-spacing:0px;word-spacing:0px;white-space:pre;fill:#f9f9f9;stroke-width:0.285213;stroke-linecap:square;stroke-linejoin:round;paint-order:fill markers stroke"
         d="m 59.950072,293.29583 q -0.56597,0 -1.030065,-0.22639 -0.464096,-0.22639 -0.747079,-0.61125 -0.282986,-0.38487 -0.282986,-0.87159 0,-0.78104 0.633887,-1.24514 0.633885,-0.4641 1.652631,-0.61124 l 1.686592,-0.23772 v -0.32825 q 0,-0.54334 -0.316945,-0.84895 -0.305624,-0.30563 -1.007426,-0.30563 -0.498053,0 -0.814997,0.20374 -0.316943,0.20376 -0.441456,0.5207 -0.06792,0.16979 -0.237708,0.16979 h -0.509373 q -0.124511,0 -0.192429,-0.0679 -0.0566,-0.0793 -0.0566,-0.18112 0,-0.16978 0.124509,-0.41881 0.135835,-0.24903 0.407499,-0.48674 0.271665,-0.23771 0.690484,-0.39618 0.430137,-0.16979 1.041385,-0.16979 0.679164,0 1.143258,0.18111 0.464096,0.1698 0.724443,0.4641 0.271665,0.2943 0.384858,0.66784 0.124511,0.37355 0.124511,0.7584 v 3.66749 q 0,0.11319 -0.07922,0.19243 -0.06792,0.0679 -0.181111,0.0679 h -0.520693 q -0.124511,0 -0.192429,-0.0679 -0.06792,-0.0792 -0.06792,-0.19243 v -0.48675 q -0.147153,0.20376 -0.396179,0.40751 -0.249027,0.19243 -0.622567,0.32827 -0.373544,0.12448 -0.916875,0.12448 z m 0.237707,-0.84896 q 0.464096,0 0.848955,-0.19243 0.38486,-0.20374 0.599928,-0.62256 0.22639,-0.41883 0.22639,-1.05271 v -0.31695 l -1.313051,0.19245 q -0.803678,0.11319 -1.211177,0.38485 -0.407498,0.26035 -0.407498,0.66783 0,0.31696 0.18111,0.53202 0.19243,0.20376 0.475416,0.30563 0.294303,0.1019 0.599927,0.1019 z m 4.629636,0.73576 q -0.113193,0 -0.192429,-0.0679 -0.06792,-0.0793 -0.06792,-0.19245 v -5.36538 q 0,-0.1132 0.06792,-0.18111 0.07923,-0.0792 0.192429,-0.0792 h 0.543331 q 0.113204,0 0.181111,0.0792 0.07922,0.0679 0.07922,0.18111 v 5.36538 q 0,0.11331 -0.07922,0.19245 -0.06792,0.0679 -0.181111,0.0679 z m -0.09055,-6.98407 q -0.113204,0 -0.192431,-0.0679 -0.06792,-0.0792 -0.06792,-0.19243 V 285.327 q 0,-0.1132 0.06792,-0.19243 0.07925,-0.0793 0.192431,-0.0793 h 0.713123 q 0.113182,0 0.192429,0.0793 0.07925,0.0792 0.07925,0.19243 v 0.61124 q 0,0.11319 -0.07925,0.19243 -0.07925,0.0679 -0.192429,0.0679 z m 4.606999,7.09727 q -0.633886,0 -1.086662,-0.15847 -0.452776,-0.15847 -0.735762,-0.38486 -0.282983,-0.2264 -0.430135,-0.45279 -0.135835,-0.22639 -0.147154,-0.36222 -0.01141,-0.12449 0.07925,-0.19242 0.09056,-0.0679 0.181111,-0.0679 h 0.509374 q 0.0566,0 0.09055,0.0226 0.04528,0.0115 0.113204,0.0906 0.147152,0.15847 0.328263,0.31694 0.181111,0.15847 0.441456,0.26034 0.271666,0.1019 0.667845,0.1019 0.577289,0 0.950829,-0.21507 0.37354,-0.22639 0.37354,-0.65652 0,-0.28299 -0.158471,-0.45278 -0.147152,-0.16979 -0.543331,-0.30562 -0.384859,-0.13587 -1.064025,-0.283 -0.679163,-0.15847 -1.075342,-0.38485 -0.396178,-0.23772 -0.56597,-0.55466 -0.169791,-0.32826 -0.169791,-0.73576 0,-0.41882 0.249026,-0.80367 0.249027,-0.39618 0.724444,-0.6452 0.486732,-0.24904 1.211174,-0.24904 0.588609,0 1.007427,0.14716 0.418817,0.14714 0.690483,0.37353 0.271666,0.21508 0.407498,0.43014 0.135835,0.21508 0.147152,0.36222 0.01141,0.11319 -0.06792,0.19243 -0.07925,0.0679 -0.181111,0.0679 h -0.475414 q -0.07925,0 -0.135835,-0.034 -0.04528,-0.034 -0.09055,-0.0792 -0.113205,-0.14715 -0.271666,-0.2943 -0.147151,-0.14715 -0.396178,-0.23771 -0.237707,-0.10189 -0.633887,-0.10189 -0.56597,0 -0.848955,0.2377 -0.282986,0.23772 -0.282986,0.59993 0,0.21507 0.124511,0.38486 0.124511,0.16979 0.475416,0.30562 0.350901,0.13585 1.041384,0.29431 0.747081,0.14714 1.177218,0.39617 0.430138,0.24903 0.611247,0.57729 0.18111,0.32827 0.18111,0.75841 0,0.47541 -0.271665,0.87158 -0.271665,0.39619 -0.814998,0.63389 -0.543335,0.22641 -1.335693,0.22641 z m 6.08984,0 q -1.177219,0 -1.867701,-0.71313 -0.690484,-0.72443 -0.7584,-1.96956 -0.01141,-0.14717 -0.01141,-0.37355 0,-0.23772 0.01141,-0.38486 0.04528,-0.80369 0.37354,-1.4036 0.328262,-0.61125 0.894232,-0.93952 0.577291,-0.32826 1.347009,-0.32826 0.860274,0 1.437564,0.36222 0.588608,0.36222 0.894232,1.03007 0.305624,0.66783 0.305624,1.56208 v 0.19242 q 0,0.12448 -0.07925,0.19243 -0.06792,0.0679 -0.18111,0.0679 h -3.916512 q 0,0.0115 0,0.0452 0,0.034 0,0.0566 0.02264,0.4641 0.203748,0.87159 0.181111,0.39619 0.520693,0.64521 0.350902,0.24904 0.814996,0.24904 0.407499,0 0.679164,-0.12449 0.271667,-0.12448 0.441458,-0.27165 0.16979,-0.15848 0.226388,-0.24904 0.101874,-0.13586 0.158471,-0.15847 0.0566,-0.034 0.18111,-0.034 h 0.55465 q 0.101874,0 0.169792,0.0679 0.07925,0.0566 0.06792,0.16979 -0.01141,0.16979 -0.181111,0.41881 -0.169791,0.23771 -0.486735,0.47542 -0.305622,0.2377 -0.769718,0.39617 -0.452772,0.14729 -1.030061,0.14729 z m -1.550759,-3.48639 h 3.101516 v -0.034 q 0,-0.50937 -0.19243,-0.90555 -0.18111,-0.39618 -0.532011,-0.62256 -0.350901,-0.23772 -0.837636,-0.23772 -0.486735,0 -0.837636,0.23772 -0.339581,0.22638 -0.520692,0.62256 -0.181111,0.39618 -0.181111,0.90555 z"
         id="text4"
         aria-label="aise" />
    </g>
    <path
       style="font-weight:bold;white-space:pre;fill:#f9f9f9;stroke-width:3.77953"
       d="m 107.00842,-71.395888 q -1.032,0 -1.632,0.78 -0.588,0.768 -0.588,2.124 0,1.356 0.564,2.112 0.576,0.744 1.728,0.744 0.564,0 1.08,-0.132 0.528,-0.132 1.056,-0.336 v 1.56 q -1.02,0.432 -2.34,0.432 -1.368,0 -2.256,-0.54 -0.876,-0.552 -1.308,-1.536 -0.42,-0.996 -0.42,-2.316 0,-1.296 0.48,-2.292 0.48,-0.996 1.404,-1.56 0.924,-0.564 2.256,-0.564 0.636,0 1.284,0.144 0.66,0.132 1.248,0.42 l -0.6,1.464 q -0.432,-0.204 -0.924,-0.348 -0.48,-0.156 -1.032,-0.156 z m 11.028,7.164 h -1.812 v -3.696 h -3.396 v 3.696 h -1.812 v -8.568 h 1.812 v 3.36 h 3.396 v -3.36 h 1.812 z m 7.092,0 h -4.932 v -8.568 h 4.932 v 1.488 h -3.12 v 1.884 h 2.904 v 1.488 h -2.904 v 2.208 h 3.12 z m 8.84399,-4.428 q 0,1.476 -0.552,2.46 -0.552,0.984 -1.56,1.476 -1.008,0.492 -2.388,0.492 h -2.616 v -8.568 h 2.832 q 2.016,0 3.144,1.068 1.14,1.056 1.14,3.072 z m -1.92,0.072 q 0,-1.38 -0.612,-2.04 -0.612,-0.672 -1.8,-0.672 h -0.948 v 5.556 h 0.768 q 2.592,0 2.592,-2.844 z"
       id="text1"
       transform="matrix(0.75528214,0,0,0.75528214,-20.033627,142.61422)"
       aria-label="CHED" />
  </g>
</svg>
