<?xml version="1.0" encoding="UTF-8" standalone="no"?>
<!-- Created with Inkscape (http://www.inkscape.org/) -->

<svg
   width="275.60599mm"
   height="42.283611mm"
   viewBox="0 0 275.60599 42.283612"
   version="1.1"
   id="svg1"
   inkscape:version="1.4 (86a8ad7, 2024-10-11)"
   sodipodi:docname="logo-light.svg"
   xmlns:inkscape="http://www.inkscape.org/namespaces/inkscape"
   xmlns:sodipodi="http://sodipodi.sourceforge.net/DTD/sodipodi-0.dtd"
   xmlns="http://www.w3.org/2000/svg"
   xmlns:svg="http://www.w3.org/2000/svg">
  <sodipodi:namedview
     id="namedview1"
     pagecolor="#ffffff"
     bordercolor="#000000"
     borderopacity="0.25"
     inkscape:showpageshadow="2"
     inkscape:pageopacity="0.0"
     inkscape:pagecheckerboard="0"
     inkscape:deskcolor="#d1d1d1"
     inkscape:document-units="mm"
     inkscape:zoom="0.52221048"
     inkscape:cx="353.30582"
     inkscape:cy="58.405569"
     inkscape:window-width="1920"
     inkscape:window-height="1009"
     inkscape:window-x="-8"
     inkscape:window-y="-8"
     inkscape:window-maximized="1"
     inkscape:current-layer="layer1" />
  <defs
     id="defs1">
    <rect
       x="102.23189"
       y="-75.150597"
       width="196.33939"
       height="75.150597"
       id="rect2" />
  </defs>
  <g
     inkscape:label="Layer 1"
     inkscape:groupmode="layer"
     id="layer1"
     transform="translate(-60.332876,-88.934516)">
    <g
       id="g148"
       transform="matrix(1.7276253,0,0,1.7276253,-2646.7416,-644.62182)"
       style="fill:#f9f9f9">
      <path
         id="path51"
         style="fill:#f9f9f9;fill-opacity:1;paint-order:markers stroke fill"
         d="m 1622.967,428.2128 v 5.2e-4 h -0.7902 v 8.46047 8.45994 h 0.7902 0.042 l 3.7264,-0.001 c 2.0108,-5.3e-4 3.9931,-0.0477 4.9836,-0.11162 0.3991,-0.0193 0.7147,-0.0396 0.8424,-0.061 2.7868,-0.46683 5.2472,-3.08797 5.9278,-6.31538 0.5439,-2.57938 0.1016,-5.15523 -1.1503,-7.07553 l 0.022,-0.0202 -0.1225,-0.12867 c -0.2815,-0.41008 -0.599,-0.79006 -0.955,-1.12965 -1.926,-1.83704 -2.9291,-2.0704 -8.9225,-2.07429 h -0.3405 l -0.039,-5.2e-4 -1.4841,-10e-4 z m 1.8386,2.95796 h 1.3689 l 2.4505,0.032 c 3.6979,0.0479 3.8445,0.0626 4.6204,0.45889 0.4408,0.22511 1.0691,0.72175 1.3963,1.10329 l 0.5953,0.6935 v -10e-4 c 1.3143,2.20921 1.013,5.5645 -0.6583,7.2807 -0.112,0.11498 -0.2071,0.20759 -0.3049,0.30385 -0.075,0.0444 -0.1107,0.0661 -0.1881,0.11162 -0.5506,0.32378 -1.1529,0.64372 -1.4723,0.78704 -0.8657,0.15762 -2.2329,0.17594 -4.8421,0.20205 l -2.9667,0.0295 v -5.50716 z" />
      <path
         id="path52"
         style="fill:#f9f9f9;fill-opacity:1;paint-order:markers stroke fill"
         d="m 1570.5837,424.60384 c -2.0109,0 -3.6499,1.63904 -3.6499,3.6499 v 17.17518 c 0,2.01085 1.639,3.64991 3.6499,3.64991 h 68.0811 c 2.0109,0 3.6499,-1.63906 3.6499,-3.64991 v -4.6793 c -0.2543,-0.5008 -0.5138,-0.92776 -0.6862,-1.10019 -0.1126,-0.1126 -0.3345,-0.26284 -0.6134,-0.42426 v 6.20375 c 0,1.31314 -1.0372,2.35025 -2.3503,2.35025 h -68.0811 c -1.3131,0 -2.3497,-1.03711 -2.3497,-2.35025 v -17.17518 c 0,-1.31315 1.0366,-2.34972 2.3497,-2.34972 h 68.0811 c 1.3131,0 2.3503,1.03657 2.3503,2.34972 v 6.20324 c 0.2789,-0.16142 0.5008,-0.31167 0.6134,-0.42426 0.1724,-0.17243 0.4319,-0.59928 0.6862,-1.10019 v -4.67879 c 0,-2.01086 -1.639,-3.6499 -3.6499,-3.6499 z" />
      <path
         id="path53"
         style="fill:#f9f9f9;fill-opacity:1;paint-order:markers stroke fill"
         d="m 1650.2708,424.60384 c -2.0108,0 -3.6499,1.63904 -3.6499,3.6499 v 4.80333 c 0.2336,0.44582 0.4654,0.81774 0.6233,0.97565 0.1208,0.12077 0.3689,0.28512 0.6769,0.45992 v -6.2389 c 0,-1.31315 1.0366,-2.34972 2.3497,-2.34972 h 72.5419 c 1.3131,0 2.3502,1.03657 2.3502,2.34972 v 17.17518 c 0,1.31314 -1.0371,2.35025 -2.3502,2.35025 h -72.5419 c -1.3131,0 -2.3497,-1.03711 -2.3497,-2.35025 v -6.23941 c -0.3081,0.17481 -0.5561,0.33913 -0.6769,0.45992 -0.1579,0.15791 -0.3897,0.52993 -0.6233,0.97565 v 4.80384 c 0,2.01085 1.6391,3.64991 3.6499,3.64991 h 72.5419 c 2.0108,0 3.6499,-1.63906 3.6499,-3.64991 v -17.17518 c 0,-2.01086 -1.6391,-3.6499 -3.6499,-3.6499 z" />
      <path
         style="fill:#f9f9f9;fill-opacity:1;paint-order:markers stroke fill"
         d="m 1611.1705,435.27718 v 1.23248 1.23197 h 3.8949 4.8121 v -1.23197 -1.23248 h -4.8121 z"
         id="path55" />
      <path
         style="fill:#f9f9f9;fill-opacity:1;paint-order:markers stroke fill"
         d="m 1579.3518,434.40384 v 5.2e-4 c -0.3322,-0.006 -0.6809,0.0571 -1.0279,0.20206 -0.9537,0.3985 -1.5267,1.65754 -1.2397,2.72334 0.1874,0.69578 0.907,1.43928 1.5782,1.63091 1.4568,0.4159 2.8577,-0.712 2.8577,-2.30063 0,-1.26164 -0.9053,-2.15885 -2.0273,-2.24896 -0.047,-0.004 -0.094,-0.006 -0.141,-0.007 z"
         id="path56" />
      <g
         id="g58"
         transform="translate(1420.1229,161.93485)"
         style="fill:#f9f9f9">
        <path
           style="fill:#f9f9f9;fill-opacity:1;paint-order:markers stroke fill"
           d="m 294.03506,273.34233 v 1.23248 1.23197 h 3.89485 4.81211 v -1.23197 -1.23248 h -4.81211 z"
           id="path57" />
        <path
           style="fill:#f9f9f9;fill-opacity:1;paint-order:markers stroke fill"
           d="m 289.10719,266.27867 v 8.46202 8.46202 l 6.8585,-0.0429 6.8585,-0.0429 0.0475,-1.43763 0.0475,-1.43713 h -5.59191 -5.5919 v -5.50302 -5.50354 h 5.50354 5.50302 v -1.47846 -1.47847 h -6.81715 z"
           id="path58" />
      </g>
      <path
         style="fill:#f9f9f9;fill-opacity:1;paint-order:markers stroke fill"
         d="m 1606.2421,428.21352 v 8.46202 8.46202 l 6.8585,-0.0429 6.8585,-0.0429 0.048,-1.43763 0.047,-1.43713 h -5.5914 -5.5919 v -5.50302 -5.50354 h 5.5035 5.5031 v -1.47846 -1.47847 h -6.8177 z"
         id="path59" />
      <path
         style="fill:#f9f9f9;fill-opacity:1;paint-order:markers stroke fill"
         d="m 1588.5838,428.13131 v 3.36775 3.36776 h -3.359 -3.3595 l 0.2382,0.56947 c 0.3055,0.73102 0.3023,1.53596 -0.01,2.27996 -0.1355,0.32436 -0.2459,0.62889 -0.2459,0.67697 0,0.0481 1.515,0.0873 3.3672,0.0873 h 3.3677 v 3.28559 3.28558 h 1.3142 1.3141 v -8.45995 -8.46046 h -1.3141 z"
         id="path60" />
      <path
         style="fill:#f9f9f9;fill-opacity:1;paint-order:markers stroke fill"
         d="m 1586.2842,428.13131 -4.3946,0.003 c -5.9934,0.004 -6.9965,0.23725 -8.9225,2.07429 -2.0357,1.94179 -2.882,5.14617 -2.2055,8.35401 0.6806,3.22741 3.1409,5.84855 5.9278,6.31538 0.4432,0.0743 2.7833,0.14336 5.2002,0.154 l 4.3946,0.0196 v -1.47174 -1.47123 l -4.8054,-0.0481 c -5.4417,-0.0545 -5.5056,-0.0678 -6.8074,-1.40456 -1.6756,-1.72061 -1.9751,-5.08931 -0.649,-7.29827 0.5886,-0.98051 1.6372,-1.84937 2.5326,-2.09806 0.3535,-0.0982 2.5369,-0.17052 5.1703,-0.17105 l 4.5589,-5.2e-4 v -1.47846 z"
         id="path61" />
      <path
         style="fill:#f9f9f9;fill-opacity:1;paint-order:markers stroke fill"
         d="m 1601.4026,428.11789 -0.044,3.49746 -0.044,3.49798 -3.9016,0.0439 -3.9015,0.0439 v 1.22628 1.22577 l 3.9015,0.0444 3.9016,0.0439 0.043,3.65507 0.045,3.65507 h 1.3126 1.3126 l -0.043,-8.41912 -0.043,-8.41913 -1.2697,-0.0475 z"
         id="path62" />
      <path
         style="fill:#f9f9f9;fill-opacity:1;paint-order:markers stroke fill"
         d="m 1657.4597,432.00813 v 5.1e-4 c -0.3322,-0.006 -0.6809,0.0571 -1.0279,0.20206 -0.9537,0.3985 -1.5267,1.65754 -1.2397,2.72334 0.1874,0.69578 0.907,1.43928 1.5782,1.63091 1.4568,0.4159 2.8577,-0.712 2.8577,-2.30063 0,-1.26164 -0.9053,-2.15885 -2.0273,-2.24896 -0.047,-0.004 -0.094,-0.006 -0.141,-0.007 z"
         id="path65" />
      <path
         id="path66"
         style="fill:#f9f9f9;fill-opacity:1;paint-order:markers stroke fill"
         d="m 1657.4465,428.12161 v 2.60294 c 1.334,0.0349 2.4638,0.38456 3.2039,0.94258 0.7802,0.58828 1.2242,1.34519 1.2242,2.63498 0,1.28978 -0.444,2.04619 -1.2242,2.63447 -0.7802,0.58827 -1.9904,0.95136 -3.42,0.95136 h -2.0686 v 2.59933 h 2.0686 c 0.4593,0 0.9129,-0.0267 1.3566,-0.0832 l 2.9739,4.64777 h 3.0867 l -3.4613,-5.4069 c 0.3623,-0.17964 0.7077,-0.38867 1.0304,-0.632 1.3707,-1.03345 2.2577,-2.71847 2.2577,-4.71083 0,-1.99236 -0.887,-3.67789 -2.2577,-4.71134 -1.3172,-0.99314 -2.997,-1.43604 -4.7702,-1.46916 z" />
      <path
         style="fill:#f9f9f9;fill-opacity:1;paint-order:markers stroke fill"
         d="m 1650.2203,428.11789 v 16.93385 h 2.5993 v -16.93385 z"
         id="path67" />
      <rect
         style="fill:#f9f9f9;fill-opacity:1;stroke:none;stroke-width:2.84401;stroke-linecap:butt;stroke-linejoin:bevel;stroke-dasharray:none;stroke-opacity:1;paint-order:markers stroke fill"
         id="rect67"
         width="4.8984098"
         height="2.5998399"
         x="1650.2202"
         y="428.11789" />
      <g
         id="g70"
         transform="matrix(0.96051184,0,0,0.96051184,1430.2094,172.80411)"
         style="fill:#f9f9f9">
        <path
           id="path68"
           style="fill:#f9f9f9;fill-opacity:1;paint-order:markers stroke fill"
           d="m 275.28804,267.30602 c -1.81831,1.08537 -3.02728,2.38264 -3.63865,3.76676 -0.61136,1.38413 -0.58448,2.89245 0.11385,4.06237 0.69835,1.16992 2.01347,1.90989 3.52193,2.02867 1.50846,0.11879 3.22385,-0.3301 5.04215,-1.41546 1.46653,-0.87538 2.67806,-1.12124 3.50724,-1.05595 0.82918,0.0653 1.2637,0.38702 1.49219,0.76974 0.22849,0.38271 0.30533,0.918 -0.0307,1.67874 -0.33601,0.76075 -1.12742,1.70991 -2.59425,2.58547 -1.1727,0.7 -2.39835,1.02394 -3.33897,1.02532 0.0461,0.99479 -0.40805,1.93995 -1.23062,2.48045 0.36636,0.076 0.74356,0.11628 1.12127,0.12211 1.54032,0.0238 3.20696,-0.45603 4.78084,-1.39549 1.81855,-1.0855 3.02858,-2.38335 3.63998,-3.76756 0.61138,-1.38422 0.58284,-2.8914 -0.11562,-4.06131 -0.69848,-1.1699 -2.01164,-1.91094 -3.52016,-2.02972 -1.50852,-0.11877 -3.22519,0.33091 -5.04348,1.41625 -1.46657,0.87541 -2.67819,1.12124 -3.50725,1.05596 -0.82905,-0.0653 -1.26197,-0.38811 -1.49041,-0.7708 -0.22843,-0.38269 -0.30711,-0.91698 0.0289,-1.67769 0.33601,-0.76072 1.12768,-1.71006 2.59426,-2.58547 1.16811,-0.69725 2.38962,-1.02197 3.32895,-1.02596 -0.003,-0.56791 0.15008,-1.12245 0.47193,-1.55756 0.27934,-0.37753 0.61301,-0.66793 0.97269,-0.87491 -0.42967,-0.10651 -0.87692,-0.16255 -1.32525,-0.16945 -1.54039,-0.0237 -3.20696,0.45603 -4.78084,1.39549 z" />
        <path
           style="opacity:1;fill:#f9f9f9;fill-opacity:1;paint-order:markers stroke fill"
           d="m 281.67634,266.5905 2.6e-4,4.4e-4 c -0.28832,0.16511 -0.55535,0.39798 -0.77901,0.70031 -0.6147,0.83101 -0.46137,2.20577 0.33133,2.97383 0.51748,0.50142 1.51649,0.77099 2.19105,0.59151 1.46402,-0.38952 2.08887,-2.07605 1.27463,-3.44015 -0.64664,-1.08332 -1.88389,-1.38969 -2.89342,-0.89204 -0.0422,0.0205 -0.0834,0.0428 -0.12473,0.0663 z"
           id="path69" />
        <path
           style="opacity:1;fill:#f9f9f9;fill-opacity:1;paint-order:markers stroke fill"
           d="m 275.33428,278.79923 2.7e-4,4.4e-4 c -0.28833,0.16511 -0.55535,0.39798 -0.77902,0.70031 -0.61469,0.83101 -0.46136,2.20577 0.33133,2.97384 0.51749,0.50141 1.5165,0.77098 2.19105,0.59151 1.46403,-0.38953 2.08888,-2.07606 1.27464,-3.44016 -0.64664,-1.08332 -1.88389,-1.38969 -2.89342,-0.89204 -0.0422,0.0205 -0.0835,0.0428 -0.12473,0.0663 z"
           id="path70" />
      </g>
      <g
         id="g113"
         style="fill:#f9f9f9">
        <path
           id="path109"
           style="fill:#f9f9f9;fill-opacity:1;paint-order:markers stroke fill"
           d="m 1673.0085,428.11783 -7.4848,16.93385 h 2.8416 l 7.4849,-16.93385 z" />
        <path
           style="fill:#f9f9f9;fill-opacity:1;paint-order:markers stroke fill"
           d="m 1685.3065,428.11789 v 16.93385 h 2.5993 v -16.93385 z"
           id="path101" />
        <path
           id="path105"
           style="font-variation-settings:normal;opacity:1;vector-effect:none;fill:#f9f9f9;fill-opacity:1;stroke-width:1;stroke-linecap:butt;stroke-linejoin:miter;stroke-miterlimit:4;stroke-dasharray:none;stroke-dashoffset:0;stroke-opacity:1;-inkscape-stroke:none;paint-order:markers stroke fill;stop-color:#000000;stop-opacity:1"
           d="m 1677.3111,431.24219 -1.4211,3.21479 2.2267,5.03794 h -4.4535 l -1.1488,2.59932 h 6.7511 l 1.3074,2.95744 h 2.8422 l -1.3074,-2.95744 z"
           sodipodi:nodetypes="cccccccccc" />
      </g>
      <g
         id="g116"
         transform="matrix(0.34300442,0,0,0.34300442,1590.0694,321.076)"
         style="fill:#f9f9f9;fill-opacity:1;stroke:#000000;stroke-width:3.59282;stroke-dasharray:none;stroke-opacity:1;paint-order:normal">
        <path
           style="fill:#f9f9f9;stroke:none"
           d="m 155.75195,327.14258 -0.36718,1.31054 c 0,0 -0.25227,0.89504 -0.66016,1.94727 -0.18941,0.48862 -0.45231,1.05218 -0.69336,1.50195 -0.24105,0.44977 -0.577,0.86216 -0.42188,0.70703 0.15511,-0.15511 -0.25879,0.18241 -0.70898,0.42383 -0.45019,0.24143 -1.01373,0.5041 -1.50195,0.69336 -1.05275,0.40809 -1.94727,0.66016 -1.94727,0.66016 l -1.30859,0.36914 V 340.25 l 1.30859,0.36914 c 0,0 0.89408,0.2519 1.94727,0.66016 0.48823,0.18926 1.05176,0.45193 1.50195,0.69336 0.45019,0.24142 0.8641,0.57894 0.70898,0.42382 -0.15483,-0.15483 0.18086,0.25742 0.42188,0.70704 0.24102,0.44961 0.50398,1.01341 0.69336,1.50195 0.40783,1.05206 0.66016,1.94726 0.66016,1.94726 l 0.36718,1.3125 h 5.50196 l 0.36523,-1.31445 c 0,0 0.25106,-0.895 0.6582,-1.94531 0.18904,-0.48765 0.45193,-1.05045 0.69336,-1.5 0.24144,-0.44955 0.57751,-0.86266 0.42383,-0.70899 -0.1551,0.15511 0.2588,-0.1824 0.70899,-0.42382 0.45018,-0.24143 1.01372,-0.5041 1.50195,-0.69336 1.05321,-0.40826 1.94726,-0.66016 1.94726,-0.66016 l 1.3086,-0.36914 v -5.49414 l -1.3086,-0.36914 c 0,0 -0.8945,-0.25207 -1.94726,-0.66016 -0.48823,-0.18926 -1.05177,-0.45193 -1.50195,-0.69336 -0.45019,-0.24142 -0.86407,-0.57891 -0.70899,-0.42383 0.15397,0.15397 -0.18237,-0.25732 -0.42383,-0.70703 -0.24146,-0.4497 -0.50429,-1.01421 -0.69336,-1.50195 -0.40721,-1.05046 -0.6582,-1.94336 -0.6582,-1.94336 l -0.36523,-1.31445 z m 2.64844,3.59375 h 0.20117 c 0.12728,0.38954 0.12445,0.44252 0.32617,0.96289 0.25302,0.65271 0.56228,1.31628 0.87696,1.90234 0.31467,0.58607 0.51775,1.01777 1.04883,1.54883 0.53221,0.53221 0.96442,0.73438 1.55078,1.04883 0.58635,0.31445 1.25013,0.62412 1.90234,0.87695 0.52061,0.20181 0.57394,0.19855 0.96289,0.32617 v 0.20118 c -0.3888,0.12769 -0.44247,0.12443 -0.96289,0.32617 -0.65221,0.25282 -1.31599,0.5625 -1.90234,0.87695 -0.58636,0.31445 -1.01855,0.51659 -1.55078,1.04883 -0.5308,0.53078 -0.73414,0.96482 -1.04883,1.55078 -0.3147,0.58596 -0.62391,1.24761 -0.87696,1.90039 -0.20195,0.52098 -0.19884,0.57496 -0.32617,0.96484 h -0.20117 c -0.12768,-0.38959 -0.12419,-0.4438 -0.32617,-0.96484 -0.2527,-0.65189 -0.56092,-1.31449 -0.875,-1.90039 -0.31408,-0.5859 -0.51687,-1.01884 -1.04883,-1.55078 -0.53223,-0.53225 -0.96442,-0.73438 -1.55078,-1.04883 -0.58636,-0.31445 -1.25014,-0.62412 -1.90234,-0.87695 -0.52042,-0.20174 -0.57409,-0.19848 -0.9629,-0.32617 v -0.20118 c 0.38881,-0.12759 0.44269,-0.12452 0.9629,-0.32617 0.65221,-0.25283 1.31598,-0.5625 1.90234,-0.87695 0.58636,-0.31445 1.01855,-0.51659 1.55078,-1.04883 0.53224,-0.53222 0.73477,-0.96478 1.04883,-1.55078 0.31405,-0.586 0.62233,-1.24856 0.875,-1.90039 0.20174,-0.52042 0.19855,-0.57365 0.32617,-0.96289 z"
           id="path116" />
      </g>
    </g>
  </g>
</svg>
