<?xml version="1.0" encoding="UTF-8" standalone="no"?>
<!-- Created with Inkscape (http://www.inkscape.org/) -->

<svg
   width="89.055389mm"
   height="29.441439mm"
   viewBox="0 0 89.055389 29.441439"
   version="1.1"
   id="svg1"
   inkscape:version="1.4 (86a8ad7, 2024-10-11)"
   sodipodi:docname="logo-dark.svg"
   xmlns:inkscape="http://www.inkscape.org/namespaces/inkscape"
   xmlns:sodipodi="http://sodipodi.sourceforge.net/DTD/sodipodi-0.dtd"
   xmlns="http://www.w3.org/2000/svg"
   xmlns:svg="http://www.w3.org/2000/svg">
  <sodipodi:namedview
     id="namedview1"
     pagecolor="#ffffff"
     bordercolor="#000000"
     borderopacity="0.25"
     inkscape:showpageshadow="2"
     inkscape:pageopacity="0.0"
     inkscape:pagecheckerboard="0"
     inkscape:deskcolor="#d1d1d1"
     inkscape:document-units="mm"
     inkscape:zoom="0.73851712"
     inkscape:cx="441.42511"
     inkscape:cy="144.2079"
     inkscape:window-width="1920"
     inkscape:window-height="1009"
     inkscape:window-x="-8"
     inkscape:window-y="-8"
     inkscape:window-maximized="1"
     inkscape:current-layer="layer1" />
  <defs
     id="defs1" />
  <g
     inkscape:label="Layer 1"
     inkscape:groupmode="layer"
     id="layer1"
     transform="translate(-57.679167,-96.308319)">
    <g
       id="g5"
       transform="matrix(3.5727453,0,0,3.5727453,-122.57737,-922.12154)">
      <path
         id="path2"
         style="font-weight:bold;font-size:31.75px;line-height:1.05;font-family:'Open Sans';-inkscape-font-specification:'Open Sans Bold';letter-spacing:0px;word-spacing:0px;fill:#000000;fill-opacity:1;stroke-width:1.682;stroke-linecap:round;stroke-linejoin:round;paint-order:fill markers stroke"
         d="m 51.072723,285.05545 a 0.61949511,0.61949511 0 0 0 -0.619494,0.6195 v 7.00138 a 0.61949511,0.61949511 0 0 0 0.619494,0.6195 h 1.777823 a 0.61949511,0.61949511 0 0 0 0.619494,-0.6195 v -2.73227 c 0,-0.13803 -0.0198,-0.30767 -0.05707,-0.47772 a 2.4501899,2.4501899 0 0 0 -2.204732,-1.43481 2.4501899,2.4501899 0 0 0 2.475157,-2.42494 2.4501899,2.4501899 0 0 0 2.425146,2.47515 2.4501899,2.4501899 0 0 0 -2.253736,1.43622 c -0.03015,0.15255 -0.04578,0.30239 -0.04578,0.42651 v 2.73186 a 0.61949511,0.61949511 0 0 0 0.619496,0.6195 h 2.119229 a 0.34496212,0.34496212 0 0 0 0.293212,-0.52653 l -1.120617,-1.80908 c -0.18018,-0.29085 -0.07381,-0.65187 0.180282,-0.87882 0.125979,-0.11252 0.450306,-0.37773 0.651559,-0.65338 0.143654,-0.19675 0.362329,-0.62689 0.427114,-0.96172 0.05854,-0.30254 0.05845,-0.83536 0.0032,-1.17263 -0.02421,-0.14791 -0.05784,-0.28819 -0.100632,-0.42106 -0.104558,-0.32473 -0.411415,-0.80109 -0.670919,-1.02221 -0.09002,-0.0767 -0.187683,-0.14785 -0.293009,-0.21336 -0.290019,-0.1804 -0.817772,-0.36785 -1.152076,-0.43921 -0.280524,-0.06 -0.588439,-0.10086 -0.923999,-0.12302 -0.34133,-0.0225 -0.896449,-0.0194 -1.238587,-0.0194 z" />
      <path
         style="font-size:120px;line-height:1.05;font-family:Rubik;-inkscape-font-specification:'Rubik Bold';letter-spacing:0px;word-spacing:0px;white-space:pre;stroke-width:0.247435;stroke-linecap:square;stroke-linejoin:round;paint-order:fill markers stroke"
         d="m 59.6772,293.29583 q -0.491005,0 -0.893629,-0.1964 -0.402625,-0.19641 -0.648126,-0.53029 -0.245503,-0.33389 -0.245503,-0.75615 0,-0.67758 0.549926,-1.08021 0.549925,-0.40263 1.433734,-0.53028 l 1.463196,-0.20623 v -0.28478 q 0,-0.47137 -0.274964,-0.7365 -0.265143,-0.26515 -0.873989,-0.26515 -0.432084,0 -0.707047,0.17676 -0.274963,0.17677 -0.382984,0.45173 -0.05892,0.1473 -0.206222,0.1473 h -0.441905 q -0.108019,0 -0.166941,-0.0589 -0.0491,-0.0688 -0.0491,-0.15713 0,-0.14729 0.108018,-0.36334 0.117843,-0.21604 0.353524,-0.42227 0.235682,-0.20622 0.599027,-0.3437 0.373163,-0.1473 0.903449,-0.1473 0.589206,0 0.991829,0.15712 0.402625,0.14731 0.628488,0.40263 0.235682,0.25532 0.333882,0.57938 0.108019,0.32407 0.108019,0.65795 v 3.18171 q 0,0.0982 -0.06873,0.16695 -0.05892,0.0589 -0.157122,0.0589 h -0.451725 q -0.108019,0 -0.166941,-0.0589 -0.05892,-0.0687 -0.05892,-0.16695 v -0.42227 q -0.127662,0.17677 -0.343704,0.35353 -0.216042,0.16694 -0.540105,0.28479 -0.324067,0.10799 -0.795432,0.10799 z m 0.206222,-0.73651 q 0.402624,0 0.736507,-0.16694 0.333884,-0.17676 0.520465,-0.5401 0.196404,-0.36336 0.196404,-0.91328 v -0.27497 l -1.139132,0.16696 q -0.697228,0.0982 -1.050752,0.33388 -0.353523,0.22586 -0.353523,0.57937 0,0.27498 0.157121,0.46155 0.166942,0.17677 0.412445,0.26515 0.255322,0.0884 0.520465,0.0884 z m 4.016422,0.6383 q -0.0982,0 -0.166941,-0.0589 -0.05892,-0.0688 -0.05892,-0.16696 v -4.65472 q 0,-0.0982 0.05892,-0.15712 0.06874,-0.0687 0.166941,-0.0687 h 0.471365 q 0.09821,0 0.157122,0.0687 0.06873,0.0589 0.06873,0.15712 v 4.65472 q 0,0.0983 -0.06873,0.16696 -0.05892,0.0589 -0.157122,0.0589 z m -0.07856,-6.059 q -0.09821,0 -0.166943,-0.0589 -0.05892,-0.0687 -0.05892,-0.16694 v -0.53028 q 0,-0.0982 0.05892,-0.16694 0.06875,-0.0688 0.166943,-0.0688 h 0.618667 q 0.09819,0 0.166941,0.0688 0.06875,0.0687 0.06875,0.16694 v 0.53028 q 0,0.0982 -0.06875,0.16694 -0.06875,0.0589 -0.166941,0.0589 z m 3.996784,6.15721 q -0.549926,0 -0.94273,-0.13748 -0.392804,-0.13748 -0.638307,-0.33388 -0.245501,-0.19642 -0.373162,-0.39282 -0.117843,-0.1964 -0.127663,-0.31424 -0.0099,-0.108 0.06875,-0.16694 0.07856,-0.0589 0.157122,-0.0589 h 0.441905 q 0.0491,0 0.07856,0.0196 0.03928,0.01 0.09821,0.0786 0.127661,0.13748 0.284783,0.27496 0.157122,0.13748 0.382983,0.22586 0.235683,0.0884 0.579387,0.0884 0.500825,0 0.824888,-0.18658 0.324063,-0.1964 0.324063,-0.56956 0,-0.24551 -0.137481,-0.39281 -0.127661,-0.1473 -0.471365,-0.26514 -0.333883,-0.11787 -0.92309,-0.24551 -0.589206,-0.13748 -0.932909,-0.33388 -0.343703,-0.20623 -0.491005,-0.48119 -0.147302,-0.28478 -0.147302,-0.63831 0,-0.36334 0.216042,-0.69722 0.216042,-0.3437 0.628488,-0.55974 0.422263,-0.21605 1.05075,-0.21605 0.510645,0 0.873989,0.12767 0.363343,0.12765 0.599026,0.32405 0.235683,0.18659 0.353523,0.37317 0.117843,0.18659 0.127661,0.31424 0.0099,0.0982 -0.05892,0.16694 -0.06875,0.0589 -0.157122,0.0589 h -0.412444 q -0.06875,0 -0.117843,-0.0295 -0.03928,-0.0295 -0.07856,-0.0687 -0.09821,-0.12766 -0.235682,-0.25532 -0.127661,-0.12766 -0.343703,-0.20622 -0.206222,-0.0884 -0.549926,-0.0884 -0.491005,0 -0.736508,0.20622 -0.245503,0.20623 -0.245503,0.52047 0,0.18658 0.108019,0.33388 0.108019,0.1473 0.412445,0.26514 0.304423,0.11786 0.903449,0.25533 0.648127,0.12765 1.021291,0.34369 0.373164,0.21605 0.530285,0.50083 0.157121,0.28479 0.157121,0.65795 0,0.41244 -0.235682,0.75614 -0.235682,0.34371 -0.707048,0.54993 -0.471369,0.19642 -1.158776,0.19642 z m 5.283217,0 q -1.021292,0 -1.620317,-0.61867 -0.599027,-0.62848 -0.657947,-1.70869 -0.0099,-0.12767 -0.0099,-0.32407 0,-0.20623 0.0099,-0.33388 0.03928,-0.69724 0.324063,-1.21769 0.284783,-0.53029 0.775788,-0.81508 0.500826,-0.28478 1.168592,-0.28478 0.746328,0 1.247153,0.31424 0.510645,0.31425 0.775788,0.89364 0.265143,0.57937 0.265143,1.35517 v 0.16694 q 0,0.10799 -0.06875,0.16694 -0.05892,0.0589 -0.157121,0.0589 h -3.397755 q 0,0.01 0,0.0392 0,0.0295 0,0.0491 0.01964,0.40263 0.176761,0.75615 0.157122,0.34371 0.451725,0.55975 0.304424,0.21605 0.707047,0.21605 0.353524,0 0.589206,-0.108 0.235683,-0.10799 0.382985,-0.23567 0.147301,-0.13749 0.196402,-0.21605 0.08838,-0.11787 0.137481,-0.13748 0.0491,-0.0295 0.157121,-0.0295 h 0.481185 q 0.08838,0 0.147302,0.0589 0.06875,0.0491 0.05892,0.1473 -0.0099,0.1473 -0.157122,0.36334 -0.147301,0.20622 -0.422265,0.41245 -0.265141,0.20621 -0.667766,0.34369 -0.3928,0.12778 -0.893625,0.12778 z m -1.345355,-3.0246 h 2.690708 v -0.0295 q 0,-0.4419 -0.166942,-0.78561 -0.157121,-0.3437 -0.461544,-0.5401 -0.304423,-0.20623 -0.726688,-0.20623 -0.422265,0 -0.726688,0.20623 -0.294602,0.1964 -0.451724,0.5401 -0.157122,0.34371 -0.157122,0.78561 z"
         id="text4"
         aria-label="aise" />
    </g>
  </g>
</svg>
