<?xml version="1.0" encoding="UTF-8" standalone="no"?>
<!-- Created with Inkscape (http://www.inkscape.org/) -->

<svg
   width="14.427283mm"
   height="16.933958mm"
   viewBox="0 0 14.427283 16.933958"
   version="1.1"
   id="svg1"
   inkscape:version="1.4 (86a8ad7, 2024-10-11)"
   sodipodi:docname="r-icon.svg"
   xmlns:inkscape="http://www.inkscape.org/namespaces/inkscape"
   xmlns:sodipodi="http://sodipodi.sourceforge.net/DTD/sodipodi-0.dtd"
   xmlns="http://www.w3.org/2000/svg"
   xmlns:svg="http://www.w3.org/2000/svg">
  <sodipodi:namedview
     id="namedview1"
     pagecolor="#ffffff"
     bordercolor="#000000"
     borderopacity="0.25"
     inkscape:showpageshadow="2"
     inkscape:pageopacity="0.0"
     inkscape:pagecheckerboard="0"
     inkscape:deskcolor="#d1d1d1"
     inkscape:document-units="mm"
     inkscape:zoom="2.9540685"
     inkscape:cx="82.767208"
     inkscape:cy="38.083071"
     inkscape:window-width="1920"
     inkscape:window-height="1009"
     inkscape:window-x="-8"
     inkscape:window-y="-8"
     inkscape:window-maximized="1"
     inkscape:current-layer="layer1" />
  <defs
     id="defs1" />
  <g
     inkscape:label="Layer 1"
     inkscape:groupmode="layer"
     id="layer1"
     transform="translate(-176.74161,-140.22916)">
    <g
       id="g23"
       transform="translate(-341.043,-329.80514)"
       style="fill:#f9f9f9">
      <path
         style="fill:#f9f9f9;fill-opacity:1;paint-order:markers stroke fill"
         d="m 525.02399,473.92455 v 5.1e-4 c -0.3322,-0.006 -0.68084,0.0571 -1.02785,0.20206 -0.95374,0.3985 -1.5267,1.65754 -1.23971,2.72334 0.18735,0.69578 0.907,1.43928 1.5782,1.63091 1.45675,0.4159 2.8577,-0.712 2.8577,-2.30063 0,-1.26164 -0.90535,-2.15885 -2.02726,-2.24896 -0.0468,-0.004 -0.0936,-0.006 -0.14108,-0.007 z"
         id="path21" />
      <path
         id="path22"
         style="fill:#f9f9f9;fill-opacity:1;paint-order:markers stroke fill"
         d="m 525.01078,470.03803 v 2.60294 c 1.33407,0.0349 2.46383,0.38456 3.20394,0.94258 0.78023,0.58828 1.22421,1.34519 1.22421,2.63498 0,1.28978 -0.44398,2.04619 -1.22421,2.63447 -0.78023,0.58827 -1.99044,0.95136 -3.41995,0.95136 h -2.06861 v 2.59933 h 2.06861 c 0.45924,0 0.91289,-0.0267 1.35651,-0.0832 l 2.97397,4.64777 h 3.08664 l -3.46129,-5.4069 c 0.36229,-0.17964 0.70769,-0.38867 1.03043,-0.632 1.37066,-1.03345 2.25774,-2.71847 2.25774,-4.71083 0,-1.99236 -0.88708,-3.67789 -2.25774,-4.71134 -1.31722,-0.99314 -2.99702,-1.43604 -4.77025,-1.46916 z" />
      <path
         style="fill:#f9f9f9;fill-opacity:1;paint-order:markers stroke fill"
         d="m 517.78464,470.03431 v 16.93385 h 2.59932 v -16.93385 z"
         id="path23" />
      <rect
         style="opacity:1;fill:#f9f9f9;fill-opacity:1;stroke:none;stroke-width:2.84401;stroke-linecap:butt;stroke-linejoin:bevel;stroke-dasharray:none;stroke-opacity:1;paint-order:markers stroke fill"
         id="rect23"
         width="4.8984098"
         height="2.5998399"
         x="517.78461"
         y="470.0343" />
    </g>
  </g>
</svg>
