<?xml version="1.0" encoding="UTF-8" standalone="no"?>
<!-- Created with Inkscape (http://www.inkscape.org/) -->

<svg
   width="19.611719mm"
   height="23.019268mm"
   viewBox="0 0 19.611719 23.019268"
   version="1.1"
   id="svg1"
   inkscape:version="1.4.3 (1:1.4.3+202512261034+0d15f75042)"
   sodipodi:docname="r-only.svg"
   xml:space="preserve"
   xmlns:inkscape="http://www.inkscape.org/namespaces/inkscape"
   xmlns:sodipodi="http://sodipodi.sourceforge.net/DTD/sodipodi-0.dtd"
   xmlns:xlink="http://www.w3.org/1999/xlink"
   xmlns="http://www.w3.org/2000/svg"
   xmlns:svg="http://www.w3.org/2000/svg"><sodipodi:namedview
     id="namedview1"
     pagecolor="#ffffff"
     bordercolor="#000000"
     borderopacity="0.25"
     inkscape:showpageshadow="2"
     inkscape:pageopacity="0.0"
     inkscape:pagecheckerboard="0"
     inkscape:deskcolor="#d1d1d1"
     inkscape:document-units="mm"
     inkscape:zoom="2.0888419"
     inkscape:cx="122.79532"
     inkscape:cy="29.202785"
     inkscape:window-width="1314"
     inkscape:window-height="699"
     inkscape:window-x="0"
     inkscape:window-y="32"
     inkscape:window-maximized="1"
     inkscape:current-layer="layer1" /><defs
     id="defs1"><linearGradient
       inkscape:collect="always"
       xlink:href="#linearGradient218"
       id="linearGradient219"
       x1="1595.6058"
       y1="974.93384"
       x2="1689.5221"
       y2="903.49469"
       gradientUnits="userSpaceOnUse"
       gradientTransform="matrix(1.3593212,0,0,1.3593212,-2053.5277,-1174.7959)" /><linearGradient
       id="linearGradient218"
       inkscape:collect="always"><stop
         style="stop-color:#629aff;stop-opacity:1;"
         offset="0"
         id="stop218" /><stop
         style="stop-color:#2cd1be;stop-opacity:1;"
         offset="1"
         id="stop219" /></linearGradient></defs><g
     inkscape:label="Layer 1"
     inkscape:groupmode="layer"
     id="layer1"
     transform="translate(-198.32249,-95.893832)"><path
       id="path174"
       style="fill:url(#linearGradient219);stroke-width:1.35932;paint-order:markers stroke fill"
       d="m 198.32249,95.893832 v 3.534151 19.484597 h 3.53364 V 99.427983 h 3.12487 v -3.534151 z m 9.82317,0.0057 v 3.538285 c 1.81333,0.04744 3.34926,0.522535 4.35529,1.281063 1.06055,0.79966 1.66398,1.82845 1.66398,3.58169 0,1.75322 -0.60343,2.78151 -1.66398,3.58118 -1.06054,0.79964 -2.70552,1.29346 -4.64881,1.29346 h -2.81171 v 3.53312 h 2.81171 c 0.62434,0 1.24069,-0.0364 1.84382,-0.11317 l 4.04264,6.31796 h 4.19561 l -4.70462,-7.34994 c 0.49248,-0.24419 0.96177,-0.5281 1.40043,-0.85886 1.86322,-1.40479 3.06907,-3.6955 3.06907,-6.40375 0,-2.70826 -1.20585,-4.99947 -3.06907,-6.404261 -1.7905,-1.349996 -4.07401,-1.951756 -6.48436,-1.996777 z m 0.0176,5.283398 v 5.2e-4 c -0.45157,-0.008 -0.92564,0.0779 -1.39733,0.27492 -1.29638,0.54169 -2.07477,2.25281 -1.68465,3.70158 0.25474,0.94579 1.23272,1.95643 2.14509,2.21692 1.98026,0.56534 3.88452,-0.96748 3.88452,-3.12694 0,-1.71497 -1.23075,-2.93469 -2.75591,-3.05718 -0.0639,-0.005 -0.12783,-0.008 -0.19172,-0.01 z" /></g></svg>
