<?xml version="1.0" encoding="UTF-8" standalone="no"?>
<!-- Created with Inkscape (http://www.inkscape.org/) -->

<svg
   width="108.53033mm"
   height="33.269291mm"
   viewBox="0 0 108.53032 33.269291"
   version="1.1"
   id="svg1"
   inkscape:version="1.4.3 (1:1.4.3+202512261034+0d15f75042)"
   sodipodi:docname="raise-box.svg"
   xml:space="preserve"
   xmlns:inkscape="http://www.inkscape.org/namespaces/inkscape"
   xmlns:sodipodi="http://sodipodi.sourceforge.net/DTD/sodipodi-0.dtd"
   xmlns:xlink="http://www.w3.org/1999/xlink"
   xmlns="http://www.w3.org/2000/svg"
   xmlns:svg="http://www.w3.org/2000/svg"><sodipodi:namedview
     id="namedview1"
     pagecolor="#ffffff"
     bordercolor="#000000"
     borderopacity="0.25"
     inkscape:showpageshadow="2"
     inkscape:pageopacity="0.0"
     inkscape:pagecheckerboard="0"
     inkscape:deskcolor="#d1d1d1"
     inkscape:document-units="mm"
     inkscape:zoom="1.4770342"
     inkscape:cx="366.61303"
     inkscape:cy="81.243885"
     inkscape:window-width="1314"
     inkscape:window-height="699"
     inkscape:window-x="0"
     inkscape:window-y="32"
     inkscape:window-maximized="1"
     inkscape:current-layer="layer1" /><defs
     id="defs1"><linearGradient
       inkscape:collect="always"
       xlink:href="#linearGradient218"
       id="linearGradient219"
       x1="1595.6058"
       y1="974.93384"
       x2="1689.5221"
       y2="903.49469"
       gradientUnits="userSpaceOnUse"
       gradientTransform="matrix(1.3593212,0,0,1.3593212,-2053.5277,-1174.7959)" /><linearGradient
       id="linearGradient218"
       inkscape:collect="always"><stop
         style="stop-color:#629aff;stop-opacity:1;"
         offset="0"
         id="stop218" /><stop
         style="stop-color:#2cd1be;stop-opacity:1;"
         offset="1"
         id="stop219" /></linearGradient></defs><g
     inkscape:label="Layer 1"
     inkscape:groupmode="layer"
     id="layer1"
     transform="translate(-193.43028,-91.117379)"><path
       id="path174"
       style="fill:url(#linearGradient219);stroke-width:1.35932;paint-order:markers stroke fill"
       d="m 198.39174,91.117379 c -2.73332,0 -4.96146,2.22805 -4.96146,4.961454 v 3.2644 3.264917 10.28723 2.28926 4.24057 c 0,2.73339 2.22814,4.96146 4.96146,4.96146 h 98.60742 c 2.73332,0 4.96145,-2.22807 4.96145,-4.96146 V 96.078833 c 0,-2.733404 -2.22813,-4.961454 -4.96145,-4.961454 z m 0,1.767334 h 98.60742 c 1.78493,0 3.19463,1.409128 3.19463,3.19412 v 23.346377 c 0,1.78498 -1.4097,3.19464 -3.19463,3.19464 h -98.60742 c -1.78492,0 -3.19412,-1.40966 -3.19412,-3.19464 v -4.24057 -4.24056 -6.38463 -5.216217 -3.2644 c 0,-1.784992 1.4092,-3.19412 3.19412,-3.19412 z" /></g></svg>
