<?xml version="1.0" encoding="UTF-8" standalone="no"?>
<!-- Created with Inkscape (http://www.inkscape.org/) -->

<svg
   width="22.059502mm"
   height="22.777039mm"
   viewBox="0 0 22.059501 22.777039"
   version="1.1"
   id="svg1"
   inkscape:version="1.4.3 (1:1.4.3+202512261034+0d15f75042)"
   sodipodi:docname="s-only.svg"
   xml:space="preserve"
   xmlns:inkscape="http://www.inkscape.org/namespaces/inkscape"
   xmlns:sodipodi="http://sodipodi.sourceforge.net/DTD/sodipodi-0.dtd"
   xmlns:xlink="http://www.w3.org/1999/xlink"
   xmlns="http://www.w3.org/2000/svg"
   xmlns:svg="http://www.w3.org/2000/svg"><sodipodi:namedview
     id="namedview1"
     pagecolor="#ffffff"
     bordercolor="#000000"
     borderopacity="0.25"
     inkscape:showpageshadow="2"
     inkscape:pageopacity="0.0"
     inkscape:pagecheckerboard="0"
     inkscape:deskcolor="#d1d1d1"
     inkscape:document-units="mm"
     inkscape:zoom="2.0888419"
     inkscape:cx="51.463925"
     inkscape:cy="49.788355"
     inkscape:window-width="1314"
     inkscape:window-height="699"
     inkscape:window-x="0"
     inkscape:window-y="32"
     inkscape:window-maximized="1"
     inkscape:current-layer="layer1" /><defs
     id="defs1"><linearGradient
       inkscape:collect="always"
       xlink:href="#linearGradient218"
       id="linearGradient219"
       x1="1595.6058"
       y1="974.93384"
       x2="1689.5221"
       y2="903.49469"
       gradientUnits="userSpaceOnUse"
       gradientTransform="matrix(1.3593212,0,0,1.3593212,-2053.5277,-1174.7959)" /><linearGradient
       id="linearGradient218"
       inkscape:collect="always"><stop
         style="stop-color:#629aff;stop-opacity:1;"
         offset="0"
         id="stop218" /><stop
         style="stop-color:#2cd1be;stop-opacity:1;"
         offset="1"
         id="stop219" /></linearGradient></defs><g
     inkscape:label="Layer 1"
     inkscape:groupmode="layer"
     id="layer1"
     transform="translate(-253.36617,-96.025027)"><path
       id="path174"
       style="fill:url(#linearGradient219);stroke-width:1.35932;paint-order:markers stroke fill"
       d="m 264.92876,96.026123 c -2.01125,-0.03099 -4.18762,0.595501 -6.24251,1.822111 h -5.2e-4 c -2.37405,1.417106 -3.95242,3.110876 -4.75061,4.918046 -0.79833,1.80719 -0.76339,3.77657 0.14831,5.30407 0.91183,1.5275 2.62916,2.49333 4.59868,2.64842 1.96952,0.1551 4.20901,-0.43137 6.58306,-1.84847 1.91474,-1.14293 3.49687,-1.46345 4.57957,-1.37821 1.08256,0.0852 1.64945,0.50489 1.94768,1.00459 0.29837,0.49968 0.39896,1.19938 -0.0393,2.19263 -0.43865,0.99327 -1.47224,2.23181 -3.38739,3.37499 -1.53114,0.91395 -3.13128,1.33714 -4.35942,1.33894 0.0598,1.29884 -0.53262,2.53338 -1.60662,3.23907 0.47834,0.0992 0.97083,0.15104 1.46399,0.15865 2.01112,0.0311 4.18712,-0.59499 6.242,-1.82159 2.37446,-1.41728 3.95383,-3.1118 4.75216,-4.91908 0.79819,-1.8073 0.76108,-3.77556 -0.15089,-5.30304 -0.91197,-1.52749 -2.62607,-2.4949 -4.59559,-2.64997 -1.96966,-0.15507 -4.21159,0.43243 -6.58564,1.8495 -1.91474,1.14297 -3.49663,1.46396 -4.57905,1.37873 -1.08243,-0.0852 -1.64738,-0.507 -1.94562,-1.00666 -0.29823,-0.49966 -0.40099,-1.19683 0.0382,-2.19004 0.43866,-0.99323 1.472,-2.23304 3.38687,-3.37602 1.52516,-0.91036 3.12065,-1.334252 4.34703,-1.339458 0,-0.741497 0.19582,-1.465367 0.61598,-2.033468 0.36471,-0.492917 0.80004,-0.872319 1.26969,-1.142566 -0.561,-0.139058 -1.1448,-0.212163 -1.73013,-0.221175 z m 3.55121,0.498678 c -0.43729,-8.97e-4 -0.87901,0.09983 -1.29088,0.302824 -0.0557,0.02678 -0.10868,0.05558 -0.16278,0.0863 -0.37639,0.215575 -0.7245,0.51994 -1.01648,0.914673 -0.80268,1.08501 -0.60296,2.880672 0.43202,3.883482 0.67572,0.65468 1.98062,1.00586 2.86132,0.77153 1.91148,-0.50858 2.72711,-2.710174 1.66398,-4.491197 -0.58043,-0.972418 -1.52492,-1.465613 -2.48718,-1.467612 z m -8.28064,15.940109 c -0.43729,-9.1e-4 -0.87849,0.0997 -1.29036,0.30283 -0.0557,0.0268 -0.10905,0.0556 -0.16329,0.0863 l 0.001,5.1e-4 c -0.3764,0.21558 -0.72591,0.51994 -1.01803,0.91468 -0.80254,1.08501 -0.60194,2.87963 0.43305,3.88245 0.67558,0.65467 1.98011,1.00636 2.86081,0.77204 1.91148,-0.50859 2.72711,-2.71068 1.66398,-4.49171 -0.58043,-0.97243 -1.52493,-1.46512 -2.48719,-1.4671 z" /></g></svg>
