<?xml version="1.0" encoding="UTF-8" standalone="no"?>
<!-- Created with Inkscape (http://www.inkscape.org/) -->

<svg
   width="9.6609087mm"
   height="9.6614304mm"
   viewBox="0 0 9.6609087 9.6614304"
   version="1.1"
   id="svg1"
   inkscape:version="1.4.3 (1:1.4.3+202512261034+0d15f75042)"
   sodipodi:docname="spark-only.svg"
   xmlns:inkscape="http://www.inkscape.org/namespaces/inkscape"
   xmlns:sodipodi="http://sodipodi.sourceforge.net/DTD/sodipodi-0.dtd"
   xmlns:xlink="http://www.w3.org/1999/xlink"
   xmlns="http://www.w3.org/2000/svg"
   xmlns:svg="http://www.w3.org/2000/svg">
  <sodipodi:namedview
     id="namedview1"
     pagecolor="#ffffff"
     bordercolor="#000000"
     borderopacity="0.25"
     inkscape:showpageshadow="2"
     inkscape:pageopacity="0.0"
     inkscape:pagecheckerboard="0"
     inkscape:deskcolor="#d1d1d1"
     inkscape:document-units="mm"
     inkscape:zoom="3.235578"
     inkscape:cx="-12.671615"
     inkscape:cy="2.1634465"
     inkscape:window-width="1314"
     inkscape:window-height="699"
     inkscape:window-x="0"
     inkscape:window-y="32"
     inkscape:window-maximized="1"
     inkscape:current-layer="layer1" />
  <defs
     id="defs1">
    <linearGradient
       inkscape:collect="always"
       xlink:href="#linearGradient218"
       id="linearGradient219"
       x1="1595.6058"
       y1="974.93384"
       x2="1689.5221"
       y2="903.49469"
       gradientUnits="userSpaceOnUse"
       gradientTransform="matrix(1.3593212,0,0,1.3593212,-2163.2437,-1173.8383)" />
    <linearGradient
       id="linearGradient218"
       inkscape:collect="always">
      <stop
         style="stop-color:#629aff;stop-opacity:1;"
         offset="0"
         id="stop218" />
      <stop
         style="stop-color:#2cd1be;stop-opacity:1;"
         offset="1"
         id="stop219" />
    </linearGradient>
  </defs>
  <g
     inkscape:label="Layer 1"
     inkscape:groupmode="layer"
     id="layer1"
     transform="translate(-75.914229,-103.87996)">
    <path
       id="path174"
       style="fill:url(#linearGradient219);stroke-width:1.35932;paint-order:markers stroke fill"
       d="m 79.462333,103.87996 -0.171566,0.61082 c 0,0 -0.117984,0.41683 -0.307474,0.90744 -0.0883,0.22782 -0.211075,0.49103 -0.323495,0.70073 -0.0788,0.1464 -0.174031,0.27817 -0.202571,0.32349 -0.0462,0.0292 -0.178668,0.12537 -0.324528,0.20361 -0.20988,0.11255 -0.473053,0.23524 -0.700733,0.32349 -0.49085,0.19026 -0.907438,0.30748 -0.907438,0.30748 l -0.610299,0.17208 v 2.56212 l 0.610299,0.17208 c 0,0 0.416448,0.11711 0.907438,0.30748 0.22768,0.0882 0.490853,0.2104 0.700733,0.32297 0.14599,0.0783 0.278438,0.17486 0.324528,0.20413 0.0285,0.0454 0.124681,0.17716 0.202571,0.32349 0.11283,0.20963 0.235275,0.47244 0.323495,0.70022 0.19017,0.49053 0.307474,0.90795 0.307474,0.90795 l 0.171566,0.61185 h 2.565218 l 0.170016,-0.61288 c 0,0 0.116788,-0.41721 0.306958,-0.90692 0.0884,-0.22737 0.211461,-0.48958 0.324011,-0.69919 0.0788,-0.14618 0.173752,-0.27877 0.202572,-0.32452 0.0462,-0.029 0.178784,-0.12562 0.325044,-0.20413 0.20988,-0.11255 0.472526,-0.23472 0.700216,-0.32297 0.49112,-0.19035 0.907955,-0.30748 0.907955,-0.30748 l 0.610815,-0.17208 v -2.56212 l -0.610815,-0.17208 c 0,0 -0.417105,-0.11726 -0.907955,-0.30748 -0.22769,-0.0882 -0.490336,-0.21092 -0.700216,-0.32349 -0.14667,-0.0787 -0.279514,-0.17536 -0.325044,-0.20412 -0.0285,-0.046 -0.123322,-0.17722 -0.202572,-0.32298 -0.11282,-0.20967 -0.235791,-0.47332 -0.324011,-0.70073 -0.18976,-0.48978 -0.306958,-0.90589 -0.306958,-0.90589 l -0.170016,-0.61237 z m 1.23455,1.67484 h 0.09405 c 0.0598,0.18164 0.05857,0.20644 0.152446,0.44907 0.11827,0.30432 0.26209,0.61403 0.40876,0.88728 0.14667,0.27325 0.241189,0.47431 0.488859,0.72192 0.24808,0.24814 0.45011,0.34224 0.72347,0.48886 0.27336,0.14661 0.582688,0.29139 0.886768,0.40928 0.24277,0.0941 0.267221,0.0925 0.448551,0.15192 v 0.0935 c -0.18133,0.0595 -0.205921,0.0584 -0.448551,0.15244 -0.30408,0.11785 -0.613408,0.26215 -0.886768,0.40877 -0.27336,0.1466 -0.47539,0.24069 -0.72347,0.48885 -0.24753,0.24748 -0.342059,0.44976 -0.488859,0.72296 -0.14667,0.27321 -0.29077,0.58242 -0.40876,0.88677 -0.0938,0.24291 -0.09247,0.2678 -0.152446,0.44958 h -0.09405 c -0.0598,-0.18164 -0.05811,-0.20664 -0.151412,-0.44958 -0.11826,-0.30394 -0.261704,-0.61359 -0.408244,-0.88677 -0.1464,-0.27317 -0.240909,-0.47494 -0.488859,-0.72296 -0.24821,-0.24817 -0.44998,-0.34225 -0.72347,-0.48885 -0.27336,-0.14662 -0.583204,-0.29089 -0.887284,-0.40877 -0.24264,-0.0941 -0.267362,-0.093 -0.448552,-0.15244 v -0.0935 c 0.18119,-0.0595 0.206042,-0.0579 0.448552,-0.15192 0.30408,-0.11785 0.613924,-0.26267 0.887284,-0.40928 0.27349,-0.14662 0.47526,-0.2407 0.72347,-0.48886 0.24808,-0.24816 0.342459,-0.44922 0.488859,-0.72244 0.1464,-0.27322 0.290394,-0.58285 0.408244,-0.88676 0.0938,-0.24266 0.09211,-0.26758 0.151412,-0.44907 z" />
  </g>
</svg>
