<?xml version="1.0" encoding="UTF-8" standalone="no"?>
<!-- Created with Inkscape (http://www.inkscape.org/) -->

<svg
   width="755.90552"
   height="755.90552"
   viewBox="0 0 200 200"
   version="1.1"
   id="svg1"
   xml:space="preserve"
   inkscape:export-filename="thumb-r-only.png"
   inkscape:export-xdpi="96"
   inkscape:export-ydpi="96"
   inkscape:version="1.4.2 (f4327f4, 2025-05-13)"
   sodipodi:docname="thumb-r-only.svg"
   xmlns:inkscape="http://www.inkscape.org/namespaces/inkscape"
   xmlns:sodipodi="http://sodipodi.sourceforge.net/DTD/sodipodi-0.dtd"
   xmlns:xlink="http://www.w3.org/1999/xlink"
   xmlns="http://www.w3.org/2000/svg"
   xmlns:svg="http://www.w3.org/2000/svg"><sodipodi:namedview
     id="namedview1"
     pagecolor="#ffffff"
     bordercolor="#000000"
     borderopacity="0.25"
     inkscape:showpageshadow="2"
     inkscape:pageopacity="0.0"
     inkscape:pagecheckerboard="0"
     inkscape:deskcolor="#d1d1d1"
     inkscape:document-units="mm"
     inkscape:zoom="0.2859874"
     inkscape:cx="148.60795"
     inkscape:cy="-187.07118"
     inkscape:window-width="1920"
     inkscape:window-height="1009"
     inkscape:window-x="-8"
     inkscape:window-y="-8"
     inkscape:window-maximized="1"
     inkscape:current-layer="layer1" /><defs
     id="defs1"><linearGradient
       id="linearGradient7"
       inkscape:collect="always"><stop
         style="stop-color:#629aff;stop-opacity:1;"
         offset="0"
         id="stop2" /><stop
         style="stop-color:#2cd1be;stop-opacity:1"
         offset="0.58795565"
         id="stop3" /><stop
         style="stop-color:#9cede8;stop-opacity:1;"
         offset="1"
         id="stop7" /></linearGradient><linearGradient
       id="linearGradient8"
       inkscape:collect="always"><stop
         style="stop-color:#022a1e;stop-opacity:1;"
         offset="0"
         id="stop8" /><stop
         style="stop-color:#020611;stop-opacity:1;"
         offset="1"
         id="stop9" /></linearGradient><linearGradient
       inkscape:collect="always"
       xlink:href="#linearGradient7"
       id="linearGradient3"
       gradientUnits="userSpaceOnUse"
       gradientTransform="matrix(6.0677973,0,0,6.0677973,-9847.8629,-5616.0759)"
       x1="1634.8562"
       y1="967.60303"
       x2="1678.0748"
       y2="927.90112" /><radialGradient
       inkscape:collect="always"
       xlink:href="#linearGradient8"
       id="radialGradient9"
       cx="153.69138"
       cy="180.76788"
       fx="154.61653"
       fy="124.33334"
       r="100"
       gradientUnits="userSpaceOnUse"
       gradientTransform="matrix(1.6000154,0.03884728,-0.04471798,1.8418117,-85.167928,-206.49356)" /><filter
       inkscape:collect="always"
       style="color-interpolation-filters:sRGB"
       id="filter7"
       x="-0.63847121"
       y="-0.54395638"
       width="2.2769424"
       height="2.0879128"><feGaussianBlur
         inkscape:collect="always"
         stdDeviation="23.289171"
         id="feGaussianBlur7" /></filter></defs><g
     inkscape:label="Layer 1"
     inkscape:groupmode="layer"
     id="layer1"
     transform="translate(-58.75,16.65625)"><rect
       style="fill:url(#radialGradient9);fill-opacity:1;stroke:none;stroke-width:1.30406;stroke-linecap:round;stroke-linejoin:round;paint-order:markers stroke fill"
       id="rect1"
       width="200"
       height="200"
       x="58.75"
       y="-16.65625" /><g
       inkscape:label="Layer 1"
       id="g7"
       transform="translate(-89.066079,-24.11812)"
       style="fill:#229fff;fill-opacity:1;filter:url(#filter7);opacity:0.59228188"><path
         id="path7"
         style="fill:#229fff;stroke-width:6.06779;paint-order:markers stroke fill;fill-opacity:1"
         d="m 204.04442,56.084677 v 15.775787 86.976206 h 15.77371 V 71.860464 h 13.94855 V 56.084677 Z m 43.84888,0.02537 v 15.794421 c 8.09443,0.211586 14.95089,2.33229 19.44164,5.71825 4.73414,3.569557 7.42746,8.161825 7.42746,15.988014 0,7.826108 -2.69332,12.416348 -7.42746,15.985948 -4.73407,3.56947 -12.07722,5.77416 -20.75176,5.77416 h -12.55095 v 15.77113 h 12.55095 c 2.78696,0 5.53804,-0.16254 8.23031,-0.50522 l 18.0461,28.20251 h 18.72834 l -21.00072,-32.80889 c 2.19836,-1.09002 4.29329,-2.35762 6.2514,-3.83408 8.31712,-6.27076 13.69958,-16.49635 13.69958,-28.585558 0,-12.089248 -5.38246,-22.316864 -13.69958,-28.587628 -7.99251,-6.026189 -18.18588,-8.712094 -28.94531,-8.913057 z m 0.0787,23.583189 v 0.001 0.002 c -2.01573,-0.03571 -4.13187,0.347833 -6.23742,1.2273 -5.78684,2.418019 -9.26414,10.05616 -7.5227,16.523243 1.13711,4.221841 5.50501,8.733231 9.57769,9.896031 8.83957,2.52358 17.34007,-4.3189 17.34007,-13.958386 0,-7.655359 -5.49392,-13.100001 -12.30199,-13.646777 -0.28524,-0.02232 -0.57045,-0.03559 -0.85565,-0.04451 z" /></g><g
       inkscape:label="Layer 1"
       id="layer1-5"
       transform="translate(-89.066079,-24.11812)"><path
         id="path9"
         style="fill:url(#linearGradient3);stroke-width:6.06779;paint-order:markers stroke fill"
         d="m 204.04442,56.084677 v 15.775787 86.976206 h 15.77371 V 71.860464 h 13.94855 V 56.084677 Z m 43.84888,0.02537 v 15.794421 c 8.09443,0.211586 14.95089,2.33229 19.44164,5.71825 4.73414,3.569557 7.42746,8.161825 7.42746,15.988014 0,7.826108 -2.69332,12.416348 -7.42746,15.985948 -4.73407,3.56947 -12.07722,5.77416 -20.75176,5.77416 h -12.55095 v 15.77113 h 12.55095 c 2.78696,0 5.53804,-0.16254 8.23031,-0.50522 l 18.0461,28.20251 h 18.72834 l -21.00072,-32.80889 c 2.19836,-1.09002 4.29329,-2.35762 6.2514,-3.83408 8.31712,-6.27076 13.69958,-16.49635 13.69958,-28.585558 0,-12.089248 -5.38246,-22.316864 -13.69958,-28.587628 -7.99251,-6.026189 -18.18588,-8.712094 -28.94531,-8.913057 z m 0.0787,23.583189 v 0.001 0.002 c -2.01573,-0.03571 -4.13187,0.347833 -6.23742,1.2273 -5.78684,2.418019 -9.26414,10.05616 -7.5227,16.523243 1.13711,4.221841 5.50501,8.733231 9.57769,9.896031 8.83957,2.52358 17.34007,-4.3189 17.34007,-13.958386 0,-7.655359 -5.49392,-13.100001 -12.30199,-13.646777 -0.28524,-0.02232 -0.57045,-0.03559 -0.85565,-0.04451 z" /></g></g></svg>
