<?xml version="1.0" encoding="UTF-8" standalone="no"?>
<!-- Created with Inkscape (http://www.inkscape.org/) -->

<svg
   width="755.90552"
   height="755.90552"
   viewBox="0 0 200 200"
   version="1.1"
   id="svg1"
   xml:space="preserve"
   inkscape:export-filename="og-image.png"
   inkscape:export-xdpi="96"
   inkscape:export-ydpi="96"
   inkscape:version="1.4.2 (1:1.4.2+202505120738+ebf0e940d0)"
   sodipodi:docname="thumb-default.svg"
   xmlns:inkscape="http://www.inkscape.org/namespaces/inkscape"
   xmlns:sodipodi="http://sodipodi.sourceforge.net/DTD/sodipodi-0.dtd"
   xmlns:xlink="http://www.w3.org/1999/xlink"
   xmlns="http://www.w3.org/2000/svg"
   xmlns:svg="http://www.w3.org/2000/svg"><sodipodi:namedview
     id="namedview1"
     pagecolor="#ffffff"
     bordercolor="#000000"
     borderopacity="0.25"
     inkscape:showpageshadow="2"
     inkscape:pageopacity="0.0"
     inkscape:pagecheckerboard="0"
     inkscape:deskcolor="#d1d1d1"
     inkscape:document-units="mm"
     inkscape:zoom="0.28598739"
     inkscape:cx="400.3673"
     inkscape:cy="437.0822"
     inkscape:window-width="1314"
     inkscape:window-height="699"
     inkscape:window-x="0"
     inkscape:window-y="32"
     inkscape:window-maximized="1"
     inkscape:current-layer="layer1" /><defs
     id="defs1"><linearGradient
       inkscape:collect="always"
       xlink:href="#linearGradient218"
       id="linearGradient219"
       x1="1595.6058"
       y1="974.93384"
       x2="1689.5221"
       y2="903.49469"
       gradientUnits="userSpaceOnUse"
       gradientTransform="matrix(1.3593212,0,0,1.3593212,-2053.5277,-1174.7959)" /><linearGradient
       id="linearGradient218"
       inkscape:collect="always"><stop
         style="stop-color:#629aff;stop-opacity:1;"
         offset="0"
         id="stop218" /><stop
         style="stop-color:#2cd1be;stop-opacity:1;"
         offset="1"
         id="stop219" /></linearGradient><linearGradient
       inkscape:collect="always"
       xlink:href="#linearGradient218"
       id="linearGradient1"
       gradientUnits="userSpaceOnUse"
       gradientTransform="matrix(1.3593212,0,0,1.3593212,-2053.5277,-1174.7959)"
       x1="1595.6058"
       y1="974.93384"
       x2="1689.5221"
       y2="903.49469" /><linearGradient
       inkscape:collect="always"
       xlink:href="#linearGradient218"
       id="linearGradient2"
       gradientUnits="userSpaceOnUse"
       gradientTransform="matrix(1.3593212,0,0,1.3593212,-2053.5277,-1174.7959)"
       x1="1595.6058"
       y1="974.93384"
       x2="1689.5221"
       y2="903.49469" /><linearGradient
       inkscape:collect="always"
       xlink:href="#linearGradient218"
       id="linearGradient3"
       gradientUnits="userSpaceOnUse"
       gradientTransform="matrix(1.3593212,0,0,1.3593212,-2053.5277,-1174.7959)"
       x1="1595.6058"
       y1="974.93384"
       x2="1689.5221"
       y2="903.49469" /><linearGradient
       inkscape:collect="always"
       xlink:href="#linearGradient218"
       id="linearGradient4"
       gradientUnits="userSpaceOnUse"
       gradientTransform="matrix(1.3593212,0,0,1.3593212,-2053.5277,-1174.7959)"
       x1="1595.6058"
       y1="974.93384"
       x2="1689.5221"
       y2="903.49469" /><linearGradient
       inkscape:collect="always"
       xlink:href="#linearGradient218"
       id="linearGradient5"
       gradientUnits="userSpaceOnUse"
       gradientTransform="matrix(1.3593212,0,0,1.3593212,-2053.5277,-1174.7959)"
       x1="1595.6058"
       y1="974.93384"
       x2="1689.5221"
       y2="903.49469" /><linearGradient
       inkscape:collect="always"
       xlink:href="#linearGradient218"
       id="linearGradient6"
       gradientUnits="userSpaceOnUse"
       gradientTransform="matrix(1.3593212,0,0,1.3593212,-2053.5277,-1174.7959)"
       x1="1595.6058"
       y1="974.93384"
       x2="1689.5221"
       y2="903.49469" /><linearGradient
       inkscape:collect="always"
       xlink:href="#linearGradient218"
       id="linearGradient7"
       gradientUnits="userSpaceOnUse"
       gradientTransform="matrix(1.3593212,0,0,1.3593212,-2053.5277,-1174.7959)"
       x1="1595.6058"
       y1="974.93384"
       x2="1689.5221"
       y2="903.49469" /><linearGradient
       inkscape:collect="always"
       xlink:href="#linearGradient218"
       id="linearGradient8"
       gradientUnits="userSpaceOnUse"
       gradientTransform="matrix(1.3593212,0,0,1.3593212,-2053.5277,-1174.7959)"
       x1="1595.6058"
       y1="974.93384"
       x2="1689.5221"
       y2="903.49469" /><linearGradient
       inkscape:collect="always"
       xlink:href="#linearGradient218"
       id="linearGradient9"
       gradientUnits="userSpaceOnUse"
       gradientTransform="matrix(1.3593212,0,0,1.3593212,-2053.5277,-1174.7959)"
       x1="1595.6058"
       y1="974.93384"
       x2="1689.5221"
       y2="903.49469" /><linearGradient
       inkscape:collect="always"
       xlink:href="#linearGradient218"
       id="linearGradient10"
       gradientUnits="userSpaceOnUse"
       gradientTransform="matrix(1.3593212,0,0,1.3593212,-2053.5277,-1174.7959)"
       x1="1595.6058"
       y1="974.93384"
       x2="1689.5221"
       y2="903.49469" /></defs><g
     inkscape:label="Layer 1"
     inkscape:groupmode="layer"
     id="layer1"
     transform="translate(-58.75,16.65625)"><rect
       style="fill:#020611;fill-opacity:1;stroke:none;stroke-width:1.30406;stroke-linecap:round;stroke-linejoin:round;paint-order:markers stroke fill"
       id="rect1"
       width="200"
       height="200"
       x="58.75"
       y="-16.65625" /><g
       inkscape:label="Layer 1"
       id="layer1-2"
       transform="translate(-89.06608,-24.118121)"><path
         style="fill:url(#linearGradient1);stroke-width:1.35932;paint-order:markers stroke fill"
         d="m 260.19928,112.46488 c -0.43729,-9.1e-4 -0.87849,0.0997 -1.29036,0.30283 -0.0557,0.0268 -0.10905,0.0556 -0.16329,0.0863 l 10e-4,5.1e-4 c -0.3764,0.21558 -0.72591,0.51994 -1.01803,0.91468 -0.80254,1.08501 -0.60194,2.87963 0.43305,3.88245 0.67558,0.65467 1.98011,1.00636 2.86081,0.77204 1.91148,-0.50859 2.72711,-2.71068 1.66398,-4.49171 -0.58043,-0.97243 -1.52493,-1.46512 -2.48719,-1.4671 z"
         id="path11" /><path
         style="fill:url(#linearGradient2);stroke-width:1.35932;paint-order:markers stroke fill"
         d="m 285.23445,105.62654 v 1.67535 1.67483 h 5.29425 6.5412 v -1.67483 -1.67535 h -6.5412 z"
         id="path10" /><path
         style="fill:url(#linearGradient3);stroke-width:1.35932;paint-order:markers stroke fill"
         d="m 208.16318,101.18288 v 5.2e-4 c -0.45157,-0.008 -0.92564,0.0779 -1.39733,0.27492 -1.29638,0.54169 -2.07529,2.25281 -1.68517,3.70158 0.25474,0.94579 1.23324,1.95643 2.14561,2.21692 1.98026,0.56534 3.88452,-0.96748 3.88452,-3.12694 0,-1.71497 -1.23075,-2.93469 -2.75591,-3.05718 -0.0639,-0.005 -0.12783,-0.008 -0.19172,-0.01 z"
         id="path9" /><path
         style="fill:url(#linearGradient4);stroke-width:1.35932;paint-order:markers stroke fill"
         d="m 235.1481,100.1416 -1.93218,4.37028 3.0272,6.84816 h -6.05389 l -1.56166,3.53312 h 9.17722 l 1.77715,4.01991 h 3.86333 l -1.77715,-4.01991 z"
         id="path8" /><path
         style="fill:url(#linearGradient5);stroke-width:1.35932;paint-order:markers stroke fill"
         d="m 268.47992,96.524767 c -0.43729,-8.97e-4 -0.87901,0.09983 -1.29088,0.302824 -0.0557,0.02678 -0.10868,0.05558 -0.16278,0.0863 -0.37639,0.215575 -0.7245,0.51994 -1.01648,0.914673 -0.80268,1.08501 -0.60296,2.880676 0.43202,3.883486 0.67572,0.65468 1.98062,1.00586 2.86132,0.77153 1.91148,-0.50858 2.72711,-2.710178 1.66398,-4.491201 -0.58043,-0.972418 -1.52492,-1.465613 -2.48718,-1.467612 z"
         id="path7" /><path
         style="fill:url(#linearGradient6);stroke-width:1.35932;paint-order:markers stroke fill"
         d="m 264.92871,96.026089 c -2.01125,-0.03099 -4.18762,0.595501 -6.24251,1.822111 h -5.2e-4 c -2.37405,1.417106 -3.95294,3.11088 -4.75113,4.91805 -0.79833,1.80719 -0.76339,3.77657 0.14831,5.30407 0.91183,1.5275 2.62968,2.49333 4.5992,2.64842 1.96952,0.1551 4.20901,-0.43137 6.58306,-1.84847 1.91474,-1.14293 3.49687,-1.46345 4.57957,-1.37821 1.08256,0.0852 1.64945,0.50489 1.94768,1.00459 0.29837,0.49968 0.39896,1.19938 -0.0393,2.19263 -0.43865,0.99327 -1.47224,2.23181 -3.38739,3.37499 -1.53114,0.91395 -3.13128,1.33714 -4.35942,1.33894 0.0598,1.29884 -0.53262,2.53338 -1.60662,3.23907 0.47834,0.0992 0.97083,0.15104 1.46399,0.15865 2.01112,0.0311 4.18712,-0.59499 6.242,-1.82159 2.37446,-1.41728 3.95383,-3.1118 4.75216,-4.91908 0.79819,-1.8073 0.76108,-3.77556 -0.15089,-5.30304 -0.91197,-1.52749 -2.62607,-2.4949 -4.59559,-2.64997 -1.96966,-0.15507 -4.21159,0.43243 -6.58564,1.8495 -1.91474,1.14297 -3.49663,1.46396 -4.57905,1.37873 -1.08243,-0.0852 -1.64738,-0.507 -1.94562,-1.00666 -0.29823,-0.49966 -0.40151,-1.19683 0.0377,-2.19004 0.43866,-0.99323 1.47252,-2.23304 3.38739,-3.37602 1.52516,-0.910364 3.12065,-1.334256 4.34703,-1.339462 0,-0.741497 0.19582,-1.465367 0.61598,-2.033468 0.36471,-0.492917 0.80004,-0.872319 1.26969,-1.142566 -0.561,-0.139058 -1.1448,-0.212163 -1.73013,-0.221175 z"
         id="path6" /><path
         style="fill:url(#linearGradient7);stroke-width:1.35932;paint-order:markers stroke fill"
         d="m 278.53615,96.024589 v 11.502661 11.50266 l 9.32243,-0.0584 9.32294,-0.0579 0.0641,-1.95441 0.0641,-1.95337 h -7.60109 -7.6016 v -7.48068 -7.48119 h 7.4812 7.48016 v -2.009705 -2.009696 h -9.26662 z"
         id="path5" /><path
         style="fill:url(#linearGradient8);stroke-width:1.35932;paint-order:markers stroke fill"
         d="m 208.14561,95.899532 v 3.538285 c 1.81333,0.04744 3.34926,0.522535 4.35529,1.281063 1.06055,0.79966 1.66398,1.82845 1.66398,3.58169 0,1.75322 -0.60343,2.78151 -1.66398,3.58118 -1.06054,0.79964 -2.70552,1.29346 -4.64881,1.29346 h -2.81171 v 3.53312 h 2.81171 c 0.62434,0 1.24069,-0.0364 1.84382,-0.11317 l 4.04264,6.31796 h 4.19561 l -4.70462,-7.34994 c 0.49248,-0.24419 0.96177,-0.5281 1.40043,-0.85886 1.86322,-1.40479 3.06907,-3.6955 3.06907,-6.40375 0,-2.70826 -1.20585,-4.99947 -3.06907,-6.404261 -1.7905,-1.349996 -4.07401,-1.951756 -6.48436,-1.996777 z"
         id="path4" /><path
         style="fill:url(#linearGradient9);stroke-width:1.35932;paint-order:markers stroke fill"
         d="m 246.01617,95.893832 v 23.018748 h 3.53312 V 95.893832 Z"
         id="path3" /><path
         style="fill:url(#linearGradient10);stroke-width:1.35932;paint-order:markers stroke fill"
         d="m 229.29936,95.893832 -10.17457,23.018748 h 3.86281 l 10.17457,-23.018748 z"
         id="path2" /><path
         style="fill:url(#linearGradient219);stroke-width:1.35932;paint-order:markers stroke fill"
         d="m 198.32244,95.893832 v 3.534151 19.484597 h 3.53364 V 99.427983 h 3.12487 v -3.534151 z"
         id="path1" /></g></g></svg>
